<?xml version="1.0" encoding="UTF-8" standalone="no"?><!-- Generator: Gravit.io --><svg xmlns="http://www.w3.org/2000/svg" xmlns:xlink="http://www.w3.org/1999/xlink" style="isolation:isolate" viewBox="741.962 188.923 505 551.001" width="505pt" height="551.001pt"><defs><clipPath id="_clipPath_6GwZt5D0iNsU7TWQEqywuPmiYMqn8U9r"><rect x="741.962" y="188.923" width="505" height="551.001"/></clipPath></defs><g clip-path="url(#_clipPath_6GwZt5D0iNsU7TWQEqywuPmiYMqn8U9r)"><circle vector-effect="non-scaling-stroke" cx="994.4622252572051" cy="487.4237637187439" r="250" fill="rgb(255,255,255)" stroke-width="5" stroke="rgb(0,0,0)" stroke-linejoin="miter" stroke-linecap="square" stroke-miterlimit="3"/><path d=" M 993.496 737.424 C 855.989 736.868 744.525 625.061 744.525 487.426 C 744.525 366.878 830.031 266.143 943.649 242.616 L 994.525 487.426 L 993.496 737.424 Z " fill="rgb(230,145,164)" vector-effect="non-scaling-stroke" stroke-width="5" stroke="rgb(0,0,0)" stroke-linejoin="miter" stroke-linecap="square" stroke-miterlimit="3"/><path d=" M 995.491 737.424 C 1132.998 736.868 1244.462 625.061 1244.462 487.426 C 1244.462 366.878 1158.956 266.143 1045.338 242.616 L 994.462 487.426 L 995.491 737.424 Z " fill="rgb(175,203,236)" vector-effect="non-scaling-stroke" stroke-width="5" stroke="rgb(0,0,0)" stroke-linejoin="miter" stroke-linecap="square" stroke-miterlimit="3"/><text transform="matrix(0,-1,1,0,995.507,394)" style="font-family:'B612 Mono';font-weight:400;font-size:21px;font-style:normal;fill:#000000;stroke:none;">Believe     </text><text transform="matrix(0,-1,1,0,1021.022,339.4)" style="font-family:'B612 Mono';font-weight:400;font-size:21px;font-style:normal;fill:#000000;stroke:none;">Science</text><polygon points="1008.242,228,994.525,276.224,980.683,228.146" fill="rgb(0,0,0)"/><g><ellipse vector-effect="non-scaling-stroke" cx="860.4999999999999" cy="565.2163624908579" rx="21.5" ry="13.783637509142068" fill="rgb(255,255,255)"/><ellipse vector-effect="non-scaling-stroke" cx="879.024780504305" cy="551.4327249817159" rx="21.5" ry="13.783637509142068" fill="rgb(255,255,255)"/><ellipse vector-effect="non-scaling-stroke" cx="903.5000000000001" cy="548.608181245429" rx="21.5" ry="16.60818124542891" fill="rgb(255,255,255)"/><ellipse vector-effect="non-scaling-stroke" cx="922.024780504305" cy="567.2074012278858" rx="21.5" ry="13.783637509142068" fill="rgb(255,255,255)"/><ellipse vector-effect="non-scaling-stroke" cx="889.5000000000002" cy="569.7163624908579" rx="21.5" ry="18.283637509142068" fill="rgb(255,255,255)"/></g><g><ellipse vector-effect="non-scaling-stroke" cx="867.6861840450936" cy="663.3019372936961" rx="36.686184045093455" ry="23.519491277732072" fill="rgb(255,255,255)"/><ellipse vector-effect="non-scaling-stroke" cx="894.517857142857" cy="642.3191225379493" rx="31.48214285714289" ry="20.18318349552942" fill="rgb(255,255,255)"/><ellipse vector-effect="non-scaling-stroke" cx="935.8545109473303" cy="642.3191225379493" rx="31.48214285714289" ry="24.31912253794951" fill="rgb(255,255,255)"/><ellipse vector-effect="non-scaling-stroke" cx="962.980082400062" cy="674.6852555797946" rx="31.48214285714289" ry="25.31474442020533" fill="rgb(255,255,255)"/><ellipse vector-effect="non-scaling-stroke" cx="915.3545109473303" cy="673.2275307901847" rx="31.48214285714289" ry="26.7724692098152" fill="rgb(255,255,255)"/></g><g><ellipse vector-effect="non-scaling-stroke" cx="899.7266319971169" cy="377.2244377343476" rx="41.226631997116556" ry="35.05919977479431" fill="rgb(255,255,255)"/><ellipse vector-effect="non-scaling-stroke" cx="849.7981485071883" cy="371.5" rx="41.226631997116556" ry="22.5" fill="rgb(255,255,255)"/><ellipse vector-effect="non-scaling-stroke" cx="872.5000000000001" cy="342.1652379595533" rx="41.226631997116556" ry="22.5" fill="rgb(255,255,255)"/><ellipse vector-effect="non-scaling-stroke" cx="921.2266319971168" cy="337.5" rx="41.226631997116556" ry="22.5" fill="rgb(255,255,255)"/><ellipse vector-effect="non-scaling-stroke" cx="939.2386856936666" cy="377.22443773434753" rx="36.00309243357822" ry="22.5" fill="rgb(255,255,255)"/><ellipse vector-effect="non-scaling-stroke" cx="958.4362747351161" cy="349" rx="11.02595052208926" ry="22.5" fill="rgb(255,255,255)"/></g><line x1="944.462" y1="245.424" x2="994.462" y2="487" vector-effect="non-scaling-stroke" stroke-width="5" stroke="rgb(0,0,0)" stroke-linejoin="miter" stroke-linecap="square" stroke-miterlimit="3"/><line x1="1044.462" y1="245.424" x2="994.525" y2="487" vector-effect="non-scaling-stroke" stroke-width="5" stroke="rgb(0,0,0)" stroke-linejoin="miter" stroke-linecap="square" stroke-miterlimit="3"/><line x1="994.462" y1="564.424" x2="994.462" y2="737.424" vector-effect="non-scaling-stroke" stroke-width="5" stroke="rgb(0,0,0)" stroke-linejoin="miter" stroke-linecap="square" stroke-miterlimit="3"/><circle vector-effect="non-scaling-stroke" cx="994.4622252572051" cy="487.4237637187439" r="75.00896126297198" fill="rgb(255,253,253)" stroke-width="5" stroke="rgb(0,0,0)" stroke-linejoin="miter" stroke-linecap="square" stroke-miterlimit="3"/><g><circle vector-effect="non-scaling-stroke" cx="776.5000000000002" cy="470.4237637187439" r="23.5" fill="rgb(255,255,255)"/><ellipse vector-effect="non-scaling-stroke" cx="800.0000000000001" cy="485.49999999999994" rx="23.500000000000114" ry="20" fill="rgb(255,255,255)"/><ellipse vector-effect="non-scaling-stroke" cx="828.024780504305" cy="485.4999999999999" rx="23.500000000000114" ry="20.000000000000057" fill="rgb(255,255,255)"/><ellipse vector-effect="non-scaling-stroke" cx="851.5247805043052" cy="476.0098386471485" rx="23.500000000000114" ry="20.509838647148513" fill="rgb(255,255,255)"/><ellipse vector-effect="non-scaling-stroke" cx="819.5000000000001" cy="455.50000000000006" rx="43" ry="23.5" fill="rgb(255,255,255)"/></g><g><path d=" M 1125.275 410.755 C 1127.313 405.711 1131.085 402.47 1133.693 403.524 C 1136.3 404.577 1136.763 409.528 1134.724 414.573 C 1132.686 419.618 1128.914 422.858 1126.307 421.805 C 1123.699 420.751 1123.237 415.8 1125.275 410.755 Z " fill="rgb(255,255,255)" vector-effect="non-scaling-stroke" stroke-width="1" stroke="rgb(74,134,232)" stroke-linejoin="miter" stroke-linecap="square" stroke-miterlimit="3"/><ellipse vector-effect="non-scaling-stroke" cx="1126.4955112673983" cy="432.5" rx="22.5" ry="15.5" fill="rgb(255,255,0)" stroke-width="2" stroke="rgb(0,0,0)" stroke-linejoin="miter" stroke-linecap="square" stroke-miterlimit="3"/><line x1="1141.996" y1="423" x2="1141.996" y2="442" vector-effect="non-scaling-stroke" stroke-width="3" stroke="rgb(0,0,0)" stroke-linejoin="miter" stroke-linecap="square" stroke-miterlimit="3"/><line x1="1119.458" y1="419.5" x2="1119.458" y2="445.5" vector-effect="non-scaling-stroke" stroke-width="3" stroke="rgb(0,0,0)" stroke-linejoin="miter" stroke-linecap="square" stroke-miterlimit="3"/><line x1="1127.496" y1="419.5" x2="1127.496" y2="447" vector-effect="non-scaling-stroke" stroke-width="3" stroke="rgb(0,0,0)" stroke-linejoin="miter" stroke-linecap="square" stroke-miterlimit="3"/><line x1="1134.996" y1="419.5" x2="1134.996" y2="445.5" vector-effect="non-scaling-stroke" stroke-width="3" stroke="rgb(0,0,0)" stroke-linejoin="miter" stroke-linecap="square" stroke-miterlimit="3"/><polygon points="1149.004,430.941,1157,432.194,1149.541,433.505" fill="rgb(0,0,0)"/><path d=" M 1115.774 414.574 C 1113.732 409.531 1114.191 404.58 1116.798 403.525 C 1119.405 402.469 1123.179 405.707 1125.22 410.751 C 1127.262 415.794 1126.803 420.745 1124.196 421.801 C 1121.589 422.856 1117.815 419.618 1115.774 414.574 Z " fill="rgb(255,255,255)" vector-effect="non-scaling-stroke" stroke-width="1" stroke="rgb(74,134,232)" stroke-linejoin="miter" stroke-linecap="square" stroke-miterlimit="3"/><circle vector-effect="non-scaling-stroke" cx="1111.4955112673986" cy="429.50000000000006" r="1.5" fill="rgb(0,0,0)"/></g><g><path d=" M 1061.426 666.122 C 1065.983 663.15 1070.931 662.649 1072.467 665.004 C 1074.004 667.36 1071.551 671.686 1066.994 674.658 C 1062.437 677.631 1057.489 678.131 1055.953 675.776 C 1054.417 673.42 1056.869 669.094 1061.426 666.122 Z " fill="rgb(255,255,255)" vector-effect="non-scaling-stroke" stroke-width="1" stroke="rgb(74,134,232)" stroke-linejoin="miter" stroke-linecap="square" stroke-miterlimit="3"/><path d=" M 1031.534 671.788 C 1036.427 664.771 1048.669 664.84 1058.856 671.942 C 1069.042 679.045 1073.34 690.508 1068.447 697.526 C 1063.555 704.543 1051.312 704.474 1041.126 697.372 C 1030.939 690.269 1026.641 678.806 1031.534 671.788 Z " fill="rgb(255,255,0)" vector-effect="non-scaling-stroke" stroke-width="2" stroke="rgb(0,0,0)" stroke-linejoin="miter" stroke-linecap="square" stroke-miterlimit="3"/><line x1="1068.139" y1="685.729" x2="1057.272" y2="701.315" vector-effect="non-scaling-stroke" stroke-width="3" stroke="rgb(0,0,0)" stroke-linejoin="miter" stroke-linecap="square" stroke-miterlimit="3"/><line x1="1051.653" y1="669.968" x2="1036.782" y2="691.296" vector-effect="non-scaling-stroke" stroke-width="3" stroke="rgb(0,0,0)" stroke-linejoin="miter" stroke-linecap="square" stroke-miterlimit="3"/><line x1="1058.246" y1="674.565" x2="1042.518" y2="697.123" vector-effect="non-scaling-stroke" stroke-width="3" stroke="rgb(0,0,0)" stroke-linejoin="miter" stroke-linecap="square" stroke-miterlimit="3"/><line x1="1064.398" y1="678.855" x2="1049.528" y2="700.182" vector-effect="non-scaling-stroke" stroke-width="3" stroke="rgb(0,0,0)" stroke-linejoin="miter" stroke-linecap="square" stroke-miterlimit="3"/><polygon points="1069.345,696.252,1075.188,701.853,1068.32,698.663" fill="rgb(0,0,0)"/><path d=" M 1051.448 663.821 C 1052.658 658.516 1055.866 654.717 1058.608 655.342 C 1061.35 655.968 1062.594 660.782 1061.384 666.087 C 1060.174 671.392 1056.966 675.191 1054.224 674.565 C 1051.482 673.94 1050.238 669.125 1051.448 663.821 Z " fill="rgb(255,255,255)" vector-effect="non-scaling-stroke" stroke-width="1" stroke="rgb(74,134,232)" stroke-linejoin="miter" stroke-linecap="square" stroke-miterlimit="3"/><path d=" M 1038.172 672.759 C 1038.645 672.08 1039.581 671.913 1040.26 672.387 C 1040.939 672.86 1041.106 673.796 1040.633 674.475 C 1040.159 675.154 1039.223 675.321 1038.544 674.847 C 1037.865 674.374 1037.698 673.438 1038.172 672.759 Z " fill="rgb(0,0,0)"/></g><g><path d=" M 1087.892 574.421 C 1084.208 570.501 1079.764 568.861 1077.974 570.761 C 1076.185 572.662 1077.722 577.387 1081.405 581.307 C 1085.089 585.227 1089.533 586.866 1091.323 584.966 C 1093.113 583.066 1091.575 578.341 1087.892 574.421 Z " fill="rgb(255,255,255)" vector-effect="non-scaling-stroke" stroke-width="1" stroke="rgb(74,134,232)" stroke-linejoin="miter" stroke-linecap="square" stroke-miterlimit="3"/><path d=" M 1114.31 586.862 C 1110.98 578.982 1099.77 576.18 1089.293 580.608 C 1078.816 585.036 1073.013 595.028 1076.344 602.908 C 1079.674 610.788 1090.884 613.59 1101.361 609.162 C 1111.838 604.734 1117.641 594.742 1114.31 586.862 Z " fill="rgb(255,255,0)" vector-effect="non-scaling-stroke" stroke-width="2" stroke="rgb(0,0,0)" stroke-linejoin="miter" stroke-linecap="square" stroke-miterlimit="3"/><line x1="1078.551" y1="591.662" x2="1085.948" y2="609.163" vector-effect="non-scaling-stroke" stroke-width="3" stroke="rgb(0,0,0)" stroke-linejoin="miter" stroke-linecap="square" stroke-miterlimit="3"/><line x1="1096.204" y1="580.401" x2="1106.326" y2="604.35" vector-effect="non-scaling-stroke" stroke-width="3" stroke="rgb(0,0,0)" stroke-linejoin="miter" stroke-linecap="square" stroke-miterlimit="3"/><line x1="1089.422" y1="583.267" x2="1100.128" y2="608.598" vector-effect="non-scaling-stroke" stroke-width="3" stroke="rgb(0,0,0)" stroke-linejoin="miter" stroke-linecap="square" stroke-miterlimit="3"/><line x1="1083.095" y1="585.942" x2="1093.217" y2="609.89" vector-effect="non-scaling-stroke" stroke-width="3" stroke="rgb(0,0,0)" stroke-linejoin="miter" stroke-linecap="square" stroke-miterlimit="3"/><polygon points="1075.73,601.476,1069.471,605.481,1076.274,604.029" fill="rgb(0,0,0)"/><path d=" M 1097.395 574.55 C 1097.154 569.177 1094.839 564.78 1092.229 564.738 C 1089.618 564.695 1087.695 569.023 1087.936 574.397 C 1088.177 579.77 1090.492 584.167 1093.102 584.21 C 1095.712 584.252 1097.636 579.924 1097.395 574.55 Z " fill="rgb(255,255,255)" vector-effect="non-scaling-stroke" stroke-width="1" stroke="rgb(74,134,232)" stroke-linejoin="miter" stroke-linecap="square" stroke-miterlimit="3"/><path d=" M 1108.08 586.238 C 1107.758 585.476 1106.929 585.096 1106.231 585.391 C 1105.532 585.686 1105.227 586.545 1105.549 587.308 C 1105.872 588.07 1106.7 588.45 1107.399 588.155 C 1108.097 587.859 1108.403 587.001 1108.08 586.238 Z " fill="rgb(0,0,0)"/></g><g><path d=" M 1110.648 311.291 C 1111.136 305.934 1109.414 301.521 1106.804 301.443 C 1104.195 301.365 1101.68 305.651 1101.192 311.008 C 1100.704 316.365 1102.426 320.777 1105.036 320.855 C 1107.645 320.933 1110.16 316.648 1110.648 311.291 Z " fill="rgb(255,255,255)" vector-effect="non-scaling-stroke" stroke-width="1" stroke="rgb(74,134,232)" stroke-linejoin="miter" stroke-linecap="square" stroke-miterlimit="3"/><path d=" M 1118.872 339.31 C 1122.557 331.59 1117.214 321.344 1106.949 316.445 C 1096.684 311.545 1085.358 313.836 1081.673 321.556 C 1077.989 329.277 1083.331 339.522 1093.596 344.422 C 1103.862 349.321 1115.187 347.031 1118.872 339.31 Z " fill="rgb(255,255,0)" vector-effect="non-scaling-stroke" stroke-width="2" stroke="rgb(0,0,0)" stroke-linejoin="miter" stroke-linecap="square" stroke-miterlimit="3"/><line x1="1091.552" y1="315.744" x2="1083.368" y2="332.891" vector-effect="non-scaling-stroke" stroke-width="3" stroke="rgb(0,0,0)" stroke-linejoin="miter" stroke-linecap="square" stroke-miterlimit="3"/><line x1="1111.69" y1="321.478" x2="1100.491" y2="344.942" vector-effect="non-scaling-stroke" stroke-width="3" stroke="rgb(0,0,0)" stroke-linejoin="miter" stroke-linecap="square" stroke-miterlimit="3"/><line x1="1105.046" y1="318.306" x2="1093.201" y2="343.125" vector-effect="non-scaling-stroke" stroke-width="3" stroke="rgb(0,0,0)" stroke-linejoin="miter" stroke-linecap="square" stroke-miterlimit="3"/><line x1="1098.846" y1="315.347" x2="1087.647" y2="338.812" vector-effect="non-scaling-stroke" stroke-width="3" stroke="rgb(0,0,0)" stroke-linejoin="miter" stroke-linecap="square" stroke-miterlimit="3"/><polygon points="1082.338,320.146,1075.188,318.122,1080.789,322.248" fill="rgb(0,0,0)"/><path d=" M 1116.857 318.486 C 1120.717 314.74 1122.47 310.09 1120.77 308.109 C 1119.069 306.129 1114.555 307.562 1110.695 311.308 C 1106.835 315.054 1105.082 319.704 1106.782 321.685 C 1108.483 323.665 1112.997 322.232 1116.857 318.486 Z " fill="rgb(255,255,255)" vector-effect="non-scaling-stroke" stroke-width="1" stroke="rgb(74,134,232)" stroke-linejoin="miter" stroke-linecap="square" stroke-miterlimit="3"/><path d=" M 1115.205 334.236 C 1115.561 333.489 1115.295 332.617 1114.611 332.29 C 1113.926 331.963 1113.081 332.305 1112.725 333.052 C 1112.368 333.799 1112.634 334.671 1113.318 334.998 C 1114.003 335.324 1114.848 334.983 1115.205 334.236 Z " fill="rgb(0,0,0)"/></g><g><path d=" M 1185.255 508.368 C 1187.582 503.519 1187.509 498.783 1185.091 497.799 C 1182.673 496.815 1178.821 499.953 1176.493 504.802 C 1174.165 509.652 1174.239 514.388 1176.656 515.372 C 1179.074 516.356 1182.927 513.218 1185.255 508.368 Z " fill="rgb(255,255,255)" vector-effect="non-scaling-stroke" stroke-width="1" stroke="rgb(74,134,232)" stroke-linejoin="miter" stroke-linecap="square" stroke-miterlimit="3"/><path d=" M 1183.179 537.496 C 1189.327 531.548 1187.898 520.082 1179.989 511.907 C 1172.081 503.732 1160.668 501.924 1154.52 507.872 C 1148.371 513.82 1149.8 525.286 1157.709 533.461 C 1165.618 541.636 1177.03 543.444 1183.179 537.496 Z " fill="rgb(255,255,0)" vector-effect="non-scaling-stroke" stroke-width="2" stroke="rgb(0,0,0)" stroke-linejoin="miter" stroke-linecap="square" stroke-miterlimit="3"/><line x1="1165.806" y1="505.875" x2="1152.15" y2="519.085" vector-effect="non-scaling-stroke" stroke-width="3" stroke="rgb(0,0,0)" stroke-linejoin="miter" stroke-linecap="square" stroke-miterlimit="3"/><line x1="1182.675" y1="518.278" x2="1163.988" y2="536.356" vector-effect="non-scaling-stroke" stroke-width="3" stroke="rgb(0,0,0)" stroke-linejoin="miter" stroke-linecap="square" stroke-miterlimit="3"/><line x1="1177.556" y1="512.987" x2="1157.791" y2="532.107" vector-effect="non-scaling-stroke" stroke-width="3" stroke="rgb(0,0,0)" stroke-linejoin="miter" stroke-linecap="square" stroke-miterlimit="3"/><line x1="1172.779" y1="508.049" x2="1154.092" y2="526.127" vector-effect="non-scaling-stroke" stroke-width="3" stroke="rgb(0,0,0)" stroke-linejoin="miter" stroke-linecap="square" stroke-miterlimit="3"/><polygon points="1155.635,506.783,1149.642,502.389,1153.449,508.211" fill="rgb(0,0,0)"/><path d=" M 1188.561 517.279 C 1193.486 515.116 1196.752 511.371 1195.85 508.921 C 1194.948 506.472 1190.218 506.238 1185.293 508.401 C 1180.368 510.564 1177.102 514.309 1178.004 516.759 C 1178.906 519.208 1183.636 519.442 1188.561 517.279 Z " fill="rgb(255,255,255)" vector-effect="non-scaling-stroke" stroke-width="1" stroke="rgb(74,134,232)" stroke-linejoin="miter" stroke-linecap="square" stroke-miterlimit="3"/><path d=" M 1181.514 531.46 C 1182.109 530.885 1182.164 529.975 1181.636 529.43 C 1181.109 528.885 1180.198 528.91 1179.603 529.485 C 1179.008 530.061 1178.953 530.971 1179.48 531.516 C 1180.008 532.061 1180.919 532.036 1181.514 531.46 Z " fill="rgb(0,0,0)"/></g></g></svg>