<?xml version="1.0" standalone="no"?><!-- Generator: Gravit.io --><svg xmlns="http://www.w3.org/2000/svg" xmlns:xlink="http://www.w3.org/1999/xlink" style="isolation:isolate" viewBox="1119 -133.906 333.195 431.504" width="333.195" height="431.504"><g id="Group"><g id="Group"><path d=" M 1359.074 275.456 L 1358.324 286.005 L 1382.073 287.337 L 1382.823 276.788 C 1384.584 251.874 1386.035 226.939 1387.154 202.004 C 1388.058 182.132 1388.629 162.25 1388.891 142.367 C 1389.069 128.246 1389.057 114.135 1388.843 100.013 C 1388.665 88.407 1388.284 76.801 1387.701 65.195 C 1387.225 55.661 1386.583 46.116 1385.774 36.592 C 1385.107 28.717 1384.274 20.843 1383.275 12.989 C 1382.299 5.273 1381.121 -2.433 1379.753 -10.107 C 1378.646 -16.29 1377.338 -22.442 1375.838 -28.552 C 1374.018 -36.014 1371.805 -43.403 1369.223 -50.696 C 1367.295 -56.108 1364.987 -61.404 1362.31 -66.551 C 1358.764 -73.369 1354.648 -79.933 1349.984 -86.19 C 1345.974 -91.581 1341.429 -96.623 1336.384 -101.274 C 1334.076 -103.409 1331.66 -105.449 1329.138 -107.384 C 1326.711 -109.255 1324.176 -111.02 1321.559 -112.679 C 1318.989 -114.307 1316.347 -115.819 1313.622 -117.214 C 1310.91 -118.598 1308.137 -119.877 1305.294 -121.03 C 1302.414 -122.192 1299.475 -123.228 1296.489 -124.148 C 1293.443 -125.078 1290.338 -125.881 1287.196 -126.568 C 1283.936 -127.266 1280.64 -127.837 1277.309 -128.27 C 1273.811 -128.725 1270.301 -129.042 1266.767 -129.221 C 1265.09 -129.306 1263.4 -129.359 1261.71 -129.391 C 1259.961 -129.412 1258.212 -129.412 1256.475 -129.38 Q 1250.205 -129.264 1206.77 -112.679 L 1211 -101.031 L 1222.518 -103.684 C 1228.693 -105.111 1234.951 -106.242 1241.257 -107.066 C 1246.457 -107.754 1251.704 -108.145 1256.963 -108.24 C 1258.403 -108.271 1259.854 -108.271 1261.294 -108.25 C 1262.662 -108.229 1264.042 -108.187 1265.411 -108.113 C 1268.243 -107.965 1271.062 -107.711 1273.87 -107.352 C 1276.464 -107.014 1279.034 -106.57 1281.58 -106.02 C 1283.996 -105.502 1286.387 -104.878 1288.743 -104.16 C 1291.004 -103.462 1293.241 -102.669 1295.418 -101.792 C 1297.572 -100.915 1299.678 -99.953 1301.724 -98.906 C 1303.795 -97.839 1305.805 -96.697 1307.757 -95.461 C 1309.767 -94.192 1311.707 -92.839 1313.563 -91.402 C 1315.538 -89.89 1317.43 -88.294 1319.238 -86.613 C 1323.284 -82.893 1326.925 -78.844 1330.137 -74.532 C 1334.135 -69.162 1337.669 -63.528 1340.715 -57.693 C 1342.964 -53.349 1344.903 -48.899 1346.521 -44.343 C 1348.889 -37.663 1350.912 -30.898 1352.589 -24.059 C 1353.993 -18.33 1355.207 -12.58 1356.242 -6.788 C 1357.563 0.569 1358.693 7.958 1359.633 15.367 C 1360.597 22.957 1361.406 30.567 1362.048 38.178 C 1362.834 47.49 1363.464 56.813 1363.928 66.136 C 1364.499 77.52 1364.868 88.904 1365.047 100.298 C 1365.261 114.24 1365.273 128.182 1365.094 142.124 C 1364.844 161.806 1364.273 181.487 1363.381 201.148 C 1362.263 225.935 1360.823 250.701 1359.074 275.456 Z " fill="rgb(212,203,129)" vector-effect="non-scaling-stroke" stroke-width="3" stroke="rgb(208,196,113)" stroke-opacity="100" stroke-linejoin="miter" stroke-linecap="square" stroke-miterlimit="3"/><path d=" M 1207.24 276.097 L 1207.87 286.077 L 1187.91 287.337 L 1187.28 277.357 C 1185.8 253.787 1184.58 230.197 1183.64 206.607 C 1182.88 187.807 1182.4 168.997 1182.18 150.187 C 1182.03 136.827 1182.04 123.477 1182.22 110.117 C 1182.37 99.137 1182.69 88.157 1183.18 77.177 C 1183.58 68.157 1184.12 59.127 1184.8 50.117 C 1185.36 42.667 1186.06 35.217 1186.9 27.787 C 1187.72 20.487 1188.71 13.197 1189.86 5.937 C 1190.79 0.087 1191.89 -5.733 1193.15 -11.513 C 1194.68 -18.573 1196.54 -25.563 1198.71 -32.463 C 1200.33 -37.583 1202.27 -42.593 1204.52 -47.463 C 1207.5 -53.913 1210.96 -60.123 1214.88 -66.043 C 1218.25 -71.143 1222.07 -75.913 1226.31 -80.313 C 1228.25 -82.333 1230.28 -84.263 1232.4 -86.093 C 1234.44 -87.863 1236.57 -89.533 1238.77 -91.103 C 1240.93 -92.643 1243.15 -94.073 1245.44 -95.393 C 1247.72 -96.703 1250.05 -97.913 1252.44 -99.003 C 1254.86 -100.103 1257.33 -101.083 1259.84 -101.953 C 1262.4 -102.833 1265.01 -103.593 1267.65 -104.243 C 1270.39 -104.903 1273.16 -105.443 1275.96 -105.853 C 1278.9 -106.283 1281.85 -106.583 1284.82 -106.753 C 1286.23 -106.833 1287.65 -106.883 1289.07 -106.913 C 1290.54 -106.933 1292.01 -106.933 1293.47 -106.903 C 1298.74 -106.793 1303.98 -106.353 1309.19 -105.583 C 1315.2 -104.693 1321.16 -103.483 1327.04 -101.953 L 1336.72 -99.443 L 1331.69 -80.083 L 1322.01 -82.593 C 1316.82 -83.943 1311.56 -85.013 1306.26 -85.793 C 1301.89 -86.443 1297.48 -86.813 1293.06 -86.903 C 1291.85 -86.933 1290.63 -86.933 1289.42 -86.913 C 1288.27 -86.893 1287.11 -86.853 1285.96 -86.783 C 1283.58 -86.643 1281.21 -86.403 1278.85 -86.063 C 1276.67 -85.743 1274.51 -85.323 1272.37 -84.803 C 1270.34 -84.313 1268.33 -83.723 1266.35 -83.043 C 1264.45 -82.383 1262.57 -81.633 1260.74 -80.803 C 1258.93 -79.973 1257.16 -79.063 1255.44 -78.073 C 1253.7 -77.063 1252.01 -75.983 1250.37 -74.813 C 1248.68 -73.613 1247.05 -72.333 1245.49 -70.973 C 1243.83 -69.543 1242.24 -68.033 1240.72 -66.443 C 1237.32 -62.923 1234.26 -59.093 1231.56 -55.013 C 1228.2 -49.933 1225.23 -44.603 1222.67 -39.083 C 1220.78 -34.973 1219.15 -30.763 1217.79 -26.453 C 1215.8 -20.133 1214.1 -13.733 1212.69 -7.263 C 1211.51 -1.843 1210.49 3.597 1209.62 9.077 C 1208.51 16.037 1207.56 23.027 1206.77 30.037 C 1205.96 37.217 1205.28 44.417 1204.74 51.617 C 1204.08 60.427 1203.55 69.247 1203.16 78.067 C 1202.68 88.837 1202.37 99.607 1202.22 110.387 C 1202.04 123.577 1202.03 136.767 1202.18 149.957 C 1202.39 168.577 1202.87 187.197 1203.62 205.797 C 1204.56 229.247 1205.77 252.677 1207.24 276.097 Z " fill="rgb(212,203,129)" vector-effect="non-scaling-stroke" stroke-width="3" stroke="rgb(208,196,113)" stroke-opacity="100" stroke-linejoin="miter" stroke-linecap="square" stroke-miterlimit="3"/><path d=" M 1190.306 275.456 L 1191.056 286.005 L 1167.307 287.337 L 1166.558 276.788 C 1164.797 251.874 1163.345 226.939 1162.227 202.004 C 1161.322 182.132 1160.751 162.25 1160.489 142.367 C 1160.311 128.246 1160.323 114.135 1160.537 100.013 C 1160.715 88.407 1161.096 76.801 1161.679 65.195 C 1162.155 55.661 1162.798 46.116 1163.607 36.592 C 1164.273 28.717 1165.106 20.843 1166.105 12.989 C 1167.081 5.273 1168.259 -2.433 1169.627 -10.107 C 1170.734 -16.29 1172.043 -22.442 1173.542 -28.552 C 1175.362 -36.014 1177.575 -43.403 1180.157 -50.696 C 1182.085 -56.108 1184.393 -61.404 1187.07 -66.551 C 1190.616 -73.369 1194.733 -79.933 1199.397 -86.19 C 1203.406 -91.581 1207.952 -96.623 1212.996 -101.274 C 1215.305 -103.409 1217.72 -105.449 1220.243 -107.384 C 1222.67 -109.254 1225.204 -111.02 1227.822 -112.679 C 1230.392 -114.307 1233.033 -115.819 1235.758 -117.214 C 1238.471 -118.598 1241.243 -119.877 1244.087 -121.03 C 1246.966 -122.192 1249.905 -123.228 1252.891 -124.148 C 1255.937 -125.078 1259.043 -125.881 1262.184 -126.568 C 1265.444 -127.266 1268.74 -127.837 1272.071 -128.27 C 1275.569 -128.725 1279.079 -129.042 1282.613 -129.221 C 1284.291 -129.306 1285.98 -129.359 1287.67 -129.391 C 1289.419 -129.412 1291.168 -129.412 1292.905 -129.38 C 1299.176 -129.264 1305.41 -128.799 1311.609 -127.985 C 1318.76 -127.044 1325.851 -125.765 1332.848 -124.148 L 1344.365 -121.495 L 1338.38 -101.031 L 1326.863 -103.684 C 1320.688 -105.111 1314.429 -106.242 1308.123 -107.066 C 1302.923 -107.754 1297.676 -108.145 1292.417 -108.24 C 1290.978 -108.271 1289.526 -108.271 1288.086 -108.25 C 1286.718 -108.229 1285.338 -108.187 1283.97 -108.113 C 1281.138 -107.965 1278.318 -107.711 1275.51 -107.352 C 1272.916 -107.014 1270.346 -106.57 1267.8 -106.02 C 1265.384 -105.502 1262.993 -104.878 1260.637 -104.16 C 1258.376 -103.462 1256.14 -102.669 1253.962 -101.792 C 1251.809 -100.915 1249.703 -99.953 1247.656 -98.906 C 1245.586 -97.839 1243.575 -96.697 1241.624 -95.46 C 1239.613 -94.192 1237.673 -92.839 1235.817 -91.402 C 1233.842 -89.89 1231.95 -88.294 1230.142 -86.613 C 1226.096 -82.893 1222.456 -78.844 1219.243 -74.532 C 1215.245 -69.162 1211.711 -63.528 1208.665 -57.693 C 1206.417 -53.349 1204.477 -48.899 1202.859 -44.343 C 1200.491 -37.663 1198.469 -30.898 1196.791 -24.059 C 1195.387 -18.33 1194.173 -12.58 1193.138 -6.788 C 1191.818 0.569 1190.687 7.958 1189.747 15.367 C 1188.784 22.957 1187.974 30.567 1187.332 38.178 C 1186.547 47.49 1185.916 56.813 1185.452 66.136 C 1184.881 77.52 1184.512 88.904 1184.334 100.298 C 1184.119 114.24 1184.108 128.182 1184.286 142.124 C 1184.536 161.806 1185.107 181.487 1185.999 201.148 C 1187.118 225.935 1188.557 250.701 1190.306 275.456 Z " fill="rgb(212,203,129)" vector-effect="non-scaling-stroke" stroke-width="3" stroke="rgb(208,196,113)" stroke-opacity="100" stroke-linejoin="miter" stroke-linecap="square" stroke-miterlimit="3"/><path d=" M 1216.774 176.561 C 1201.035 153.716 1173.274 98.707 1168.01 56.237 C 1155.915 -41.351 1221.433 -123.644 1287.236 -123.644 C 1353.039 -123.644 1409.925 -41.874 1399.862 56.237 C 1394.371 109.764 1362.82 151.553 1338.03 186.324 C 1314.421 210.145 1290.526 211.527 1277.804 210.73 C 1267.69 210.097 1232.514 199.406 1216.774 176.561 Z " fill="rgb(242,215,186)"/><path d=" M 1167.535 276.097 L 1168.165 286.077 L 1148.205 287.337 L 1147.575 277.357 C 1146.095 253.787 1144.875 230.197 1143.935 206.607 C 1143.175 187.807 1142.695 168.997 1142.475 150.187 C 1142.325 136.827 1142.335 123.477 1142.515 110.117 C 1142.665 99.137 1142.985 88.157 1143.475 77.177 C 1143.875 68.157 1144.415 59.127 1145.095 50.117 C 1145.655 42.667 1146.355 35.217 1147.195 27.787 C 1148.015 20.487 1149.005 13.197 1150.155 5.937 C 1151.085 0.087 1152.185 -5.733 1153.445 -11.513 C 1154.975 -18.573 1156.835 -25.563 1159.005 -32.463 C 1160.625 -37.583 1162.565 -42.593 1164.815 -47.463 C 1167.795 -53.913 1171.255 -60.123 1175.175 -66.043 C 1178.545 -71.143 1182.365 -75.913 1186.605 -80.313 C 1188.545 -82.333 1190.575 -84.263 1192.695 -86.093 C 1194.735 -87.863 1196.865 -89.533 1199.065 -91.103 C 1201.225 -92.643 1203.445 -94.073 1205.735 -95.393 C 1208.015 -96.703 1210.345 -97.913 1212.735 -99.003 C 1215.155 -100.103 1217.625 -101.083 1220.135 -101.953 C 1222.695 -102.833 1225.305 -103.593 1227.945 -104.243 C 1230.685 -104.903 1233.455 -105.443 1236.255 -105.853 C 1239.195 -106.283 1242.145 -106.583 1245.115 -106.753 C 1246.525 -106.833 1247.945 -106.883 1249.365 -106.913 C 1250.835 -106.933 1252.305 -106.933 1253.765 -106.903 C 1259.035 -106.793 1264.275 -106.353 1269.485 -105.583 C 1275.495 -104.693 1281.455 -103.483 1287.335 -101.953 L 1297.015 -99.443 L 1291.985 -80.083 L 1282.305 -82.593 C 1277.115 -83.943 1271.855 -85.013 1266.555 -85.793 C 1262.185 -86.443 1257.775 -86.813 1253.355 -86.903 C 1252.145 -86.933 1250.925 -86.933 1249.715 -86.913 C 1248.565 -86.893 1247.405 -86.853 1246.255 -86.783 C 1243.875 -86.643 1241.505 -86.403 1239.145 -86.063 C 1236.965 -85.743 1234.805 -85.323 1232.665 -84.803 C 1230.635 -84.313 1228.625 -83.723 1226.645 -83.043 C 1224.745 -82.383 1222.865 -81.633 1221.035 -80.803 C 1219.225 -79.973 1217.455 -79.063 1215.735 -78.073 C 1213.995 -77.063 1212.305 -75.983 1210.665 -74.813 C 1208.975 -73.613 1207.345 -72.333 1205.785 -70.973 C 1204.125 -69.543 1202.535 -68.033 1201.015 -66.443 C 1197.615 -62.923 1194.555 -59.093 1191.855 -55.013 C 1188.495 -49.933 1185.525 -44.603 1182.965 -39.083 C 1181.075 -34.973 1179.445 -30.763 1178.085 -26.453 C 1176.095 -20.133 1174.395 -13.733 1172.985 -7.263 C 1171.805 -1.843 1170.785 3.597 1169.915 9.077 C 1168.805 16.037 1167.855 23.027 1167.065 30.037 C 1166.255 37.217 1165.575 44.417 1165.035 51.617 C 1164.375 60.427 1163.845 69.247 1163.455 78.067 C 1162.975 88.837 1162.665 99.607 1162.515 110.387 C 1162.335 123.577 1162.325 136.767 1162.475 149.957 C 1162.685 168.577 1163.165 187.197 1163.915 205.797 C 1164.855 229.247 1166.065 252.677 1167.535 276.097 Z " fill="rgb(212,203,129)" vector-effect="non-scaling-stroke" stroke-width="3" stroke="rgb(208,196,113)" stroke-opacity="100" stroke-linejoin="miter" stroke-linecap="square" stroke-miterlimit="3"/><path d=" M 1407.852 281.858 L 1407.222 291.838 L 1427.182 293.098 L 1427.812 283.118 C 1429.292 259.548 1430.512 235.958 1431.452 212.368 C 1432.212 193.568 1432.692 174.758 1432.912 155.948 C 1433.062 142.588 1433.052 129.238 1432.872 115.878 C 1432.722 104.898 1432.402 93.918 1431.912 82.938 C 1431.512 73.918 1430.972 64.888 1430.292 55.878 C 1429.732 48.428 1429.032 40.978 1428.192 33.548 C 1427.372 26.248 1426.382 18.958 1425.232 11.698 C 1424.302 5.848 1423.202 0.028 1421.942 -5.752 C 1420.412 -12.812 1418.552 -19.802 1416.382 -26.702 C 1414.762 -31.822 1412.822 -36.832 1410.572 -41.702 C 1407.592 -48.152 1404.132 -54.362 1400.212 -60.282 C 1396.842 -65.382 1393.022 -70.152 1388.782 -74.552 C 1386.842 -76.572 1384.812 -78.502 1382.692 -80.332 C 1380.652 -82.102 1378.522 -83.772 1376.322 -85.342 C 1374.162 -86.882 1371.942 -88.312 1369.652 -89.632 C 1367.372 -90.942 1365.042 -92.152 1362.652 -93.242 C 1360.232 -94.342 1357.762 -95.322 1355.252 -96.192 C 1352.692 -97.072 1350.082 -97.832 1347.442 -98.482 C 1344.702 -99.142 1341.932 -99.682 1339.132 -100.092 C 1336.192 -100.522 1333.242 -100.822 1330.272 -100.992 C 1328.862 -101.072 1327.442 -101.122 1326.022 -101.152 C 1324.552 -101.172 1323.082 -101.172 1321.622 -101.142 C 1316.352 -101.032 1311.112 -100.592 1305.902 -99.822 C 1299.892 -98.932 1293.932 -97.722 1288.052 -96.192 L 1278.372 -93.682 L 1283.402 -74.322 L 1293.082 -76.832 C 1298.272 -78.182 1303.532 -79.252 1308.832 -80.032 C 1313.202 -80.682 1317.612 -81.052 1322.032 -81.142 C 1323.242 -81.172 1324.462 -81.172 1325.672 -81.152 C 1326.822 -81.132 1327.982 -81.092 1329.132 -81.022 C 1331.512 -80.882 1333.882 -80.642 1336.242 -80.302 C 1338.422 -79.982 1340.582 -79.562 1342.722 -79.042 C 1344.752 -78.552 1346.762 -77.962 1348.742 -77.282 C 1350.642 -76.622 1352.522 -75.872 1354.352 -75.042 C 1356.162 -74.212 1357.932 -73.302 1359.652 -72.312 C 1361.392 -71.302 1363.082 -70.222 1364.722 -69.052 C 1366.412 -67.852 1368.042 -66.572 1369.602 -65.212 C 1371.262 -63.782 1372.852 -62.272 1374.372 -60.682 C 1377.772 -57.162 1380.832 -53.332 1383.532 -49.252 C 1386.892 -44.172 1389.862 -38.842 1392.422 -33.322 C 1394.312 -29.212 1395.942 -25.002 1397.302 -20.692 C 1399.292 -14.372 1400.992 -7.972 1402.402 -1.502 C 1403.582 3.918 1404.602 9.358 1405.472 14.838 C 1406.582 21.798 1407.532 28.788 1408.322 35.798 C 1409.132 42.978 1409.812 50.178 1410.352 57.378 C 1411.012 66.188 1411.542 75.008 1411.932 83.828 C 1412.412 94.598 1412.722 105.368 1412.872 116.148 C 1413.052 129.338 1413.062 142.528 1412.912 155.718 C 1412.702 174.338 1412.222 192.958 1411.472 211.558 C 1410.532 235.008 1409.322 258.438 1407.852 281.858 Z " fill="rgb(212,203,129)" vector-effect="non-scaling-stroke" stroke-width="3" stroke="rgb(208,196,113)" stroke-opacity="100" stroke-linejoin="miter" stroke-linecap="square" stroke-miterlimit="3"/><path d=" M 1378.01 275.215 L 1377.544 285.204 L 1397.522 286.137 L 1397.988 276.148 C 1399.081 252.556 1399.913 228.95 1400.466 205.347 C 1400.917 186.537 1401.088 167.722 1400.999 148.911 C 1400.93 135.55 1400.701 122.202 1400.302 108.847 C 1399.971 97.871 1399.471 86.898 1398.801 75.927 C 1398.253 66.915 1397.565 57.895 1396.737 48.898 C 1396.055 41.458 1395.233 34.02 1394.271 26.605 C 1393.331 19.319 1392.221 12.047 1390.953 4.806 C 1389.927 -1.027 1388.731 -6.829 1387.376 -12.587 C 1385.731 -19.621 1383.756 -26.58 1381.473 -33.443 C 1379.769 -38.536 1377.748 -43.513 1375.418 -48.346 C 1372.332 -54.746 1368.771 -60.898 1364.754 -66.753 C 1361.301 -71.797 1357.403 -76.504 1353.092 -80.834 C 1351.119 -82.821 1349.057 -84.718 1346.907 -86.513 C 1344.839 -88.249 1342.682 -89.884 1340.456 -91.418 C 1338.271 -92.922 1336.028 -94.315 1333.717 -95.597 C 1331.415 -96.87 1329.066 -98.041 1326.658 -99.092 Q 1324.221 -100.152 1300.464 -104.243 C 1297.232 -88.34 1304.816 -85.052 1306.964 -84.567 C 1309.002 -84.11 1311.021 -83.553 1313.012 -82.906 C 1314.923 -82.277 1316.815 -81.558 1318.658 -80.758 C 1320.482 -79.958 1322.266 -79.077 1324.002 -78.116 C 1325.759 -77.134 1327.466 -76.082 1329.125 -74.939 C 1330.835 -73.767 1332.485 -72.514 1334.067 -71.18 C 1335.751 -69.777 1337.365 -68.294 1338.911 -66.729 C 1342.369 -63.265 1345.491 -59.486 1348.258 -55.451 C 1351.701 -50.427 1354.758 -45.146 1357.408 -39.669 C 1359.365 -35.59 1361.064 -31.408 1362.495 -27.121 C 1364.588 -20.834 1366.393 -14.463 1367.909 -8.017 C 1369.178 -2.617 1370.287 2.805 1371.247 8.27 C 1372.471 15.211 1373.535 22.185 1374.44 29.181 C 1375.368 36.347 1376.166 43.534 1376.824 50.725 C 1377.629 59.523 1378.304 68.333 1378.838 77.145 C 1379.495 87.906 1379.982 98.669 1380.309 109.445 C 1380.705 122.631 1380.932 135.819 1380.998 149.009 C 1381.094 167.63 1380.92 186.256 1380.475 204.865 C 1379.92 228.328 1379.095 251.774 1378.01 275.215 Z " fill="rgb(212,203,129)"/><path d=" M 1417.753 281.217 L 1417.004 291.766 L 1440.753 293.098 L 1441.502 282.549 C 1443.263 257.635 1444.715 232.7 1445.833 207.765 C 1446.738 187.893 1447.309 168.011 1447.57 148.128 C 1447.749 134.007 1447.737 119.896 1447.523 105.774 C 1447.344 94.168 1446.964 82.562 1446.381 70.956 C 1445.905 61.422 1445.262 51.877 1444.453 42.353 C 1443.787 34.478 1442.954 26.604 1441.954 18.75 C 1440.979 11.034 1439.801 3.328 1438.433 -4.346 C 1437.326 -10.529 1436.017 -16.681 1434.518 -22.791 C 1432.698 -30.253 1430.485 -37.642 1427.903 -44.935 C 1425.975 -50.347 1423.667 -55.643 1420.99 -60.79 C 1417.444 -67.608 1413.327 -74.172 1408.663 -80.429 C 1404.653 -85.82 1400.108 -90.862 1395.063 -95.513 C 1392.755 -97.648 1390.34 -99.688 1387.817 -101.623 C 1385.39 -103.494 1382.856 -105.259 1380.238 -106.918 C 1377.668 -108.546 1375.027 -110.058 1372.302 -111.453 C 1369.589 -112.837 1366.817 -114.117 1363.973 -115.269 C 1361.094 -116.431 1358.155 -117.467 1355.168 -118.387 C 1352.123 -119.317 1349.017 -120.12 1345.876 -120.807 C 1342.616 -121.505 1339.32 -122.076 1335.989 -122.509 C 1332.49 -122.964 1328.98 -123.281 1325.447 -123.46 C 1323.769 -123.545 1322.079 -123.598 1320.39 -123.63 C 1318.641 -123.651 1316.892 -123.651 1315.155 -123.619 C 1308.884 -123.503 1302.65 -123.038 1296.451 -122.224 C 1289.3 -121.283 1282.208 -120.004 1275.212 -118.387 L 1263.695 -115.734 L 1269.68 -95.27 L 1281.197 -97.923 C 1287.372 -99.35 1293.631 -100.481 1299.937 -101.305 C 1305.136 -101.993 1310.384 -102.384 1315.643 -102.479 C 1317.082 -102.51 1318.534 -102.51 1319.973 -102.489 C 1321.342 -102.468 1322.722 -102.426 1324.09 -102.352 C 1326.922 -102.204 1329.742 -101.95 1332.55 -101.591 C 1335.144 -101.253 1337.714 -100.809 1340.26 -100.259 C 1342.675 -99.741 1345.067 -99.117 1347.423 -98.399 C 1349.683 -97.701 1351.92 -96.908 1354.098 -96.031 C 1356.251 -95.154 1358.357 -94.192 1360.404 -93.145 C 1362.474 -92.078 1364.485 -90.936 1366.436 -89.7 C 1368.447 -88.431 1370.386 -87.078 1372.243 -85.641 C 1374.218 -84.129 1376.109 -82.533 1377.918 -80.852 C 1381.963 -77.132 1385.604 -73.083 1388.817 -68.771 C 1392.815 -63.401 1396.348 -57.767 1399.394 -51.932 C 1401.643 -47.588 1403.583 -43.138 1405.201 -38.582 C 1407.568 -31.902 1409.591 -25.137 1411.269 -18.298 C 1412.673 -12.569 1413.886 -6.819 1414.922 -1.027 C 1416.242 6.33 1417.373 13.719 1418.313 21.128 C 1419.276 28.718 1420.085 36.328 1420.728 43.939 C 1421.513 53.251 1422.144 62.574 1422.608 71.897 C 1423.179 83.281 1423.548 94.665 1423.726 106.059 C 1423.94 120.001 1423.952 133.943 1423.774 147.885 C 1423.524 167.567 1422.953 187.248 1422.061 206.909 C 1420.942 231.696 1419.502 256.462 1417.753 281.217 Z " fill="rgb(212,203,129)" vector-effect="non-scaling-stroke" stroke-width="3" stroke="rgb(208,196,113)" stroke-opacity="100" stroke-linejoin="miter" stroke-linecap="square" stroke-miterlimit="3"/><path d=" M 1391.424 281.217 L 1390.674 291.766 L 1414.423 293.098 L 1415.173 282.549 C 1416.934 257.635 1418.385 232.7 1419.504 207.765 C 1420.408 187.893 1420.979 168.011 1421.241 148.128 C 1421.419 134.007 1421.407 119.896 1421.193 105.774 C 1421.015 94.168 1420.634 82.562 1420.051 70.956 C 1419.575 61.422 1418.933 51.877 1418.124 42.353 C 1417.457 34.478 1416.624 26.604 1415.625 18.75 C 1414.649 11.034 1413.471 3.328 1412.103 -4.346 C 1410.996 -10.529 1409.688 -16.681 1408.188 -22.791 C 1406.368 -30.253 1404.155 -37.642 1401.573 -44.935 C 1399.645 -50.347 1397.337 -55.643 1394.66 -60.79 C 1391.114 -67.608 1386.998 -74.172 1382.334 -80.429 C 1378.324 -85.82 1373.779 -90.862 1368.734 -95.513 C 1366.426 -97.648 1364.01 -99.688 1361.488 -101.623 C 1359.061 -103.494 1356.526 -105.259 1353.909 -106.918 C 1351.339 -108.546 1348.697 -110.058 1345.972 -111.453 C 1343.26 -112.837 1340.487 -114.117 1337.644 -115.269 C 1334.764 -116.431 1331.825 -117.467 1328.839 -118.387 C 1325.793 -119.317 1322.688 -120.12 1319.546 -120.807 C 1316.286 -121.505 1312.99 -122.076 1309.659 -122.509 C 1306.161 -122.964 1302.651 -123.281 1299.117 -123.46 C 1297.44 -123.545 1295.75 -123.598 1294.06 -123.63 C 1292.311 -123.651 1290.562 -123.651 1288.825 -123.619 C 1282.555 -123.503 1276.32 -123.038 1270.121 -122.224 C 1262.97 -121.283 1255.879 -120.004 1248.883 -118.387 L 1237.365 -115.734 L 1241.257 -106.02 L 1256.475 -104.16 C 1262.65 -105.587 1267.301 -100.481 1273.607 -101.305 C 1278.807 -101.993 1284.054 -102.384 1289.313 -102.479 C 1290.753 -102.51 1292.204 -102.51 1293.644 -102.489 C 1295.012 -102.468 1296.392 -102.426 1297.761 -102.352 C 1300.593 -102.204 1303.412 -101.95 1306.22 -101.591 C 1308.814 -101.253 1311.384 -100.809 1313.93 -100.259 C 1316.346 -99.741 1318.737 -99.117 1321.093 -98.399 C 1323.354 -97.701 1325.591 -96.908 1327.768 -96.031 C 1329.922 -95.154 1332.028 -94.192 1334.074 -93.145 C 1336.145 -92.078 1338.155 -90.936 1340.107 -89.7 C 1342.117 -88.431 1344.057 -87.078 1345.913 -85.641 C 1347.888 -84.129 1349.78 -82.533 1351.588 -80.852 C 1355.634 -77.132 1359.275 -73.083 1362.487 -68.771 C 1366.485 -63.401 1370.019 -57.767 1373.065 -51.932 C 1375.314 -47.588 1377.253 -43.138 1378.871 -38.582 C 1381.239 -31.902 1383.262 -25.137 1384.939 -18.298 C 1386.343 -12.569 1387.557 -6.819 1388.592 -1.027 C 1389.913 6.33 1391.043 13.719 1391.983 21.128 C 1392.947 28.718 1393.756 36.328 1394.398 43.939 C 1395.184 53.251 1395.814 62.574 1396.278 71.897 C 1396.849 83.281 1397.218 94.665 1397.397 106.059 C 1397.611 120.001 1397.623 133.943 1397.444 147.885 C 1397.194 167.567 1396.623 187.248 1395.731 206.909 C 1394.613 231.696 1393.173 256.462 1391.424 281.217 Z " fill="rgb(212,203,129)" vector-effect="non-scaling-stroke" stroke-width="3" stroke="rgb(208,196,113)" stroke-opacity="100" stroke-linejoin="miter" stroke-linecap="square" stroke-miterlimit="3"/><path d=" M 1148.941 281.217 L 1149.691 291.766 L 1125.942 293.098 L 1125.192 282.549 C 1123.431 257.635 1121.98 232.7 1120.861 207.765 C 1119.957 187.893 1119.386 168.011 1119.124 148.128 C 1118.946 134.007 1118.958 119.896 1119.172 105.774 C 1119.35 94.168 1119.731 82.562 1120.314 70.956 C 1120.79 61.422 1121.433 51.877 1122.242 42.353 C 1122.908 34.478 1123.741 26.604 1124.74 18.75 C 1125.716 11.034 1126.894 3.328 1128.262 -4.346 C 1129.369 -10.529 1130.678 -16.681 1132.177 -22.791 C 1133.997 -30.253 1136.21 -37.642 1138.792 -44.935 C 1140.72 -50.347 1143.028 -55.643 1145.705 -60.79 C 1149.251 -67.608 1153.367 -74.172 1158.032 -80.429 C 1162.041 -85.82 1166.586 -90.862 1171.631 -95.513 C 1173.94 -97.648 1176.355 -99.688 1178.877 -101.623 C 1181.305 -103.494 1183.839 -105.259 1186.457 -106.918 C 1189.027 -108.546 1191.668 -110.058 1194.393 -111.453 C 1197.106 -112.837 1199.878 -114.117 1202.721 -115.269 C 1205.601 -116.431 1208.54 -117.467 1211.526 -118.387 C 1214.572 -119.317 1217.678 -120.12 1220.819 -120.807 C 1224.079 -121.505 1227.375 -122.076 1230.706 -122.509 C 1234.204 -122.964 1237.714 -123.281 1241.248 -123.46 C 1242.926 -123.545 1244.615 -123.598 1246.305 -123.63 C 1248.054 -123.651 1249.803 -123.651 1251.54 -123.619 C 1257.81 -123.503 1264.045 -123.038 1270.244 -122.224 C 1277.395 -121.283 1284.486 -120.004 1291.482 -118.387 L 1303 -115.734 L 1300.365 -106.02 L 1285.96 -105.583 L 1267.65 -104.243 Q 1256.311 -102.384 1251.052 -102.479 C 1249.613 -102.51 1248.161 -102.51 1246.721 -102.489 C 1245.353 -102.468 1243.973 -102.426 1242.604 -102.352 C 1239.773 -102.204 1236.953 -101.95 1234.145 -101.591 C 1231.551 -101.253 1228.981 -100.809 1226.435 -100.259 C 1224.019 -99.741 1221.628 -99.117 1219.272 -98.399 C 1217.011 -97.701 1214.774 -96.908 1212.597 -96.031 C 1210.443 -95.154 1208.337 -94.192 1206.291 -93.145 C 1204.221 -92.078 1202.21 -90.936 1200.258 -89.7 C 1198.248 -88.431 1196.308 -87.078 1194.452 -85.641 C 1192.477 -84.129 1190.585 -82.533 1188.777 -80.852 C 1184.731 -77.132 1181.09 -73.083 1177.878 -68.771 C 1173.88 -63.401 1170.346 -57.767 1167.3 -51.932 C 1165.052 -47.588 1163.112 -43.138 1161.494 -38.582 C 1159.126 -31.902 1157.104 -25.137 1155.426 -18.298 C 1154.022 -12.569 1152.808 -6.819 1151.773 -1.027 C 1150.452 6.33 1149.322 13.719 1148.382 21.128 C 1147.418 28.718 1146.609 36.328 1145.967 43.939 C 1145.181 53.251 1144.551 62.574 1144.087 71.897 C 1143.516 83.281 1143.147 94.665 1142.968 106.059 C 1142.754 120.001 1142.742 133.943 1142.921 147.885 C 1143.171 167.567 1143.742 187.248 1144.634 206.909 C 1145.753 231.696 1147.192 256.462 1148.941 281.217 Z " fill="rgb(212,203,129)"/><path d=" M 1181.628 259.145 L 1182.16 268.509 L 1165.295 269.692 L 1164.763 260.328 C 1163.512 238.212 1162.481 216.078 1161.687 193.944 C 1161.045 176.305 1160.639 158.656 1160.453 141.007 C 1160.327 128.471 1160.335 115.945 1160.487 103.41 C 1160.614 93.107 1160.884 82.805 1161.298 72.503 C 1161.636 64.039 1162.093 55.567 1162.667 47.113 C 1163.14 40.123 1163.732 33.132 1164.442 26.161 C 1165.134 19.312 1165.971 12.472 1166.943 5.66 C 1167.728 0.171 1168.658 -5.29 1169.723 -10.713 C 1171.015 -17.338 1172.587 -23.896 1174.42 -30.37 C 1175.789 -35.174 1177.429 -39.875 1179.33 -44.445 C 1181.848 -50.496 1184.771 -56.323 1188.083 -61.878 C 1190.931 -66.663 1194.159 -71.139 1197.741 -75.267 C 1199.38 -77.162 1201.096 -78.973 1202.887 -80.69 C 1204.611 -82.351 1206.41 -83.918 1208.269 -85.391 C 1210.094 -86.836 1211.97 -88.178 1213.905 -89.416 C 1215.832 -90.645 1217.8 -91.781 1219.82 -92.803 C 1221.865 -93.836 1223.952 -94.755 1226.072 -95.571 C 1228.236 -96.397 1230.441 -97.11 1232.672 -97.72 C 1234.987 -98.339 1237.327 -98.846 1239.693 -99.231 C 1242.177 -99.634 1244.67 -99.916 1247.179 -100.075 C 1248.371 -100.15 1249.571 -100.197 1250.77 -100.225 C 1252.012 -100.244 1253.255 -100.244 1254.488 -100.216 C 1258.941 -100.113 1263.369 -99.7 1267.771 -98.977 C 1272.849 -98.142 1277.885 -97.007 1282.853 -95.571 L 1291.032 -93.216 L 1286.782 -75.051 L 1278.603 -77.406 C 1274.218 -78.673 1269.773 -79.677 1265.295 -80.409 C 1261.603 -81.019 1257.876 -81.366 1254.142 -81.45 C 1253.119 -81.478 1252.089 -81.478 1251.066 -81.46 C 1250.094 -81.441 1249.114 -81.403 1248.143 -81.338 C 1246.132 -81.206 1244.129 -80.981 1242.135 -80.662 C 1240.293 -80.362 1238.468 -79.968 1236.66 -79.48 C 1234.944 -79.02 1233.246 -78.467 1231.573 -77.829 C 1229.968 -77.209 1228.379 -76.506 1226.833 -75.727 C 1225.304 -74.948 1223.808 -74.094 1222.355 -73.165 C 1220.884 -72.218 1219.456 -71.204 1218.071 -70.106 C 1216.643 -68.981 1215.265 -67.78 1213.947 -66.504 C 1212.545 -65.162 1211.201 -63.745 1209.917 -62.253 C 1207.044 -58.95 1204.459 -55.357 1202.177 -51.529 C 1199.338 -46.762 1196.829 -41.761 1194.666 -36.582 C 1193.069 -32.725 1191.691 -28.775 1190.542 -24.731 C 1188.861 -18.801 1187.424 -12.796 1186.233 -6.726 C 1185.236 -1.64 1184.374 3.464 1183.639 8.606 C 1182.701 15.136 1181.898 21.695 1181.231 28.272 C 1180.546 35.009 1179.972 41.765 1179.516 48.52 C 1178.958 56.787 1178.51 65.062 1178.181 73.338 C 1177.775 83.443 1177.513 93.548 1177.386 103.663 C 1177.234 116.039 1177.226 128.415 1177.352 140.791 C 1177.53 158.261 1177.935 175.732 1178.569 193.184 C 1179.363 215.187 1180.386 237.171 1181.628 259.145 Z " fill="rgb(212,203,129)" vector-effect="non-scaling-stroke" stroke-width="3" stroke="rgb(208,196,113)" stroke-opacity="100" stroke-linejoin="miter" stroke-linecap="square" stroke-miterlimit="3"/></g><path d=" M 1314.805 61.293 C 1314.805 44.454 1322.63 30.783 1332.269 30.783 C 1341.908 30.783 1349.734 44.454 1349.734 61.293 C 1349.734 78.132 1341.908 91.803 1332.269 91.803 C 1322.63 91.803 1314.805 78.132 1314.805 61.293 Z " fill="rgb(255,255,255)"/><path d=" M 1326.714 41.768 C 1326.714 38.765 1329.203 36.328 1332.269 36.328 C 1335.335 36.328 1337.824 38.765 1337.824 41.768 C 1337.824 44.77 1335.335 47.208 1332.269 47.208 C 1329.203 47.208 1326.714 44.77 1326.714 41.768 Z " fill="rgb(0,0,0)"/><path d=" M 1303.871 45.173 C 1303.871 39.139 1320.021 24.14 1332.005 24.14 C 1343.989 24.14 1360.667 39.973 1360.667 46.008 C 1360.667 52.042 1343.811 33.347 1331.827 33.347 C 1319.842 33.347 1303.871 51.208 1303.871 45.173 Z " fill="rgb(157,140,122)"/><path d=" M 1237.545 171.253 Q 1265.905 159.893 1282.087 159.679 Q 1299.155 159.453 1329.149 171.253 Q 1302.316 144.594 1283.567 144.511 Q 1264.663 144.428 1237.545 171.253 Z " fill="rgb(225,118,118)" vector-effect="non-scaling-stroke" stroke-width="1" stroke="rgb(225,118,118)" stroke-opacity="100" stroke-linejoin="miter" stroke-linecap="square" stroke-miterlimit="3"/><path d=" M 1278.296 91.803 Q 1284.706 99.219 1289.296 101.803 Q 1293.192 103.997 1301.296 105.803 Q 1295.854 111.968 1291.851 113.803 Q 1289.342 114.953 1284.296 115.803" fill="none" vector-effect="non-scaling-stroke" stroke-width="3" stroke="rgb(149,132,114)" stroke-opacity="100" stroke-linejoin="miter" stroke-linecap="square" stroke-miterlimit="3"/><path d=" M 1214.383 61.293 C 1214.383 44.454 1222.208 30.783 1231.847 30.783 C 1241.486 30.783 1249.312 44.454 1249.312 61.293 C 1249.312 78.132 1241.486 91.803 1231.847 91.803 C 1222.208 91.803 1214.383 78.132 1214.383 61.293 Z " fill="rgb(255,255,255)"/><path d=" M 1226.292 41.768 C 1226.292 38.765 1228.781 36.328 1231.847 36.328 C 1234.913 36.328 1237.402 38.765 1237.402 41.768 C 1237.402 44.77 1234.913 47.208 1231.847 47.208 C 1228.781 47.208 1226.292 44.77 1226.292 41.768 Z " fill="rgb(0,0,0)"/><path d=" M 1203.449 45.173 C 1203.449 39.139 1219.599 24.14 1231.583 24.14 C 1243.567 24.14 1260.246 39.973 1260.246 46.008 C 1260.246 52.042 1243.389 33.347 1231.405 33.347 C 1219.42 33.347 1203.449 51.208 1203.449 45.173 Z " fill="rgb(157,140,122)"/></g></svg>