<?xml version="1.0" standalone="no"?><!-- Generator: Gravit.io --><svg xmlns="http://www.w3.org/2000/svg" xmlns:xlink="http://www.w3.org/1999/xlink" style="isolation:isolate" viewBox="311.695 -145.906 333.195 431.504" width="333.195" height="431.504"><g id="Group"><g id="Group"><path d=" M 551.769 263.456 L 551.019 274.005 L 574.768 275.337 L 575.518 264.788 C 577.279 239.874 578.73 214.939 579.849 190.004 C 580.753 170.132 581.324 150.25 581.586 130.367 C 581.764 116.246 581.752 102.135 581.538 88.013 C 581.36 76.407 580.979 64.801 580.396 53.195 C 579.92 43.661 579.278 34.116 578.469 24.592 C 577.802 16.717 576.969 8.843 575.97 0.989 C 574.994 -6.727 573.816 -14.433 572.448 -22.107 C 571.341 -28.29 570.033 -34.442 568.533 -40.552 C 566.713 -48.014 564.5 -55.403 561.918 -62.696 C 559.99 -68.108 557.682 -73.404 555.005 -78.551 C 551.459 -85.369 547.343 -91.933 542.679 -98.19 C 538.669 -103.581 534.124 -108.623 529.079 -113.274 C 526.771 -115.409 524.355 -117.449 521.833 -119.384 C 519.406 -121.255 516.871 -123.02 514.254 -124.679 C 511.684 -126.307 509.042 -127.819 506.317 -129.214 C 503.605 -130.598 500.832 -131.877 497.989 -133.03 C 495.109 -134.192 492.17 -135.228 489.184 -136.148 C 486.138 -137.078 483.033 -137.881 479.891 -138.568 C 476.631 -139.266 473.335 -139.837 470.004 -140.27 C 466.506 -140.725 462.996 -141.042 459.462 -141.221 C 457.785 -141.306 456.095 -141.359 454.405 -141.391 C 452.656 -141.412 450.907 -141.412 449.17 -141.38 Q 442.9 -141.264 399.465 -124.679 L 403.695 -113.031 L 415.213 -115.684 C 421.388 -117.111 427.646 -118.242 433.952 -119.066 C 439.152 -119.754 444.399 -120.145 449.658 -120.24 C 451.098 -120.271 452.549 -120.271 453.989 -120.25 C 455.357 -120.229 456.737 -120.187 458.106 -120.113 C 460.938 -119.965 463.757 -119.711 466.565 -119.352 C 469.159 -119.014 471.729 -118.57 474.275 -118.02 C 476.691 -117.502 479.082 -116.878 481.438 -116.16 C 483.699 -115.462 485.936 -114.669 488.113 -113.792 C 490.267 -112.915 492.373 -111.953 494.419 -110.906 C 496.49 -109.839 498.5 -108.697 500.452 -107.461 C 502.462 -106.192 504.402 -104.839 506.258 -103.402 C 508.233 -101.89 510.125 -100.294 511.933 -98.613 C 515.979 -94.893 519.62 -90.844 522.832 -86.532 C 526.83 -81.162 530.364 -75.528 533.41 -69.693 C 535.659 -65.349 537.598 -60.899 539.216 -56.343 C 541.584 -49.663 543.607 -42.898 545.284 -36.059 C 546.688 -30.33 547.902 -24.58 548.937 -18.788 C 550.258 -11.431 551.388 -4.042 552.328 3.367 C 553.292 10.957 554.101 18.567 554.743 26.178 C 555.529 35.49 556.159 44.813 556.623 54.136 C 557.194 65.52 557.563 76.904 557.742 88.298 C 557.956 102.24 557.968 116.182 557.789 130.124 C 557.539 149.806 556.968 169.487 556.076 189.148 C 554.958 213.935 553.518 238.701 551.769 263.456 Z " fill="rgb(212,203,129)" vector-effect="non-scaling-stroke" stroke-width="3" stroke="rgb(208,196,113)" stroke-opacity="100" stroke-linejoin="miter" stroke-linecap="square" stroke-miterlimit="3"/><path d=" M 399.935 264.097 L 400.565 274.077 L 380.605 275.337 L 379.975 265.357 C 378.495 241.787 377.275 218.197 376.335 194.607 C 375.575 175.807 375.095 156.997 374.875 138.187 C 374.725 124.827 374.735 111.477 374.915 98.117 C 375.065 87.137 375.385 76.157 375.875 65.177 C 376.275 56.157 376.815 47.127 377.495 38.117 C 378.055 30.667 378.755 23.217 379.595 15.787 C 380.415 8.487 381.405 1.197 382.555 -6.063 C 383.485 -11.913 384.585 -17.733 385.845 -23.513 C 387.375 -30.573 389.235 -37.563 391.405 -44.463 C 393.025 -49.583 394.965 -54.593 397.215 -59.463 C 400.195 -65.913 403.655 -72.123 407.575 -78.043 C 410.945 -83.143 414.765 -87.913 419.005 -92.313 C 420.945 -94.333 422.975 -96.263 425.095 -98.093 C 427.135 -99.863 429.265 -101.533 431.465 -103.103 C 433.625 -104.643 435.845 -106.073 438.135 -107.393 C 440.415 -108.703 442.745 -109.913 445.135 -111.003 C 447.555 -112.103 450.025 -113.083 452.535 -113.953 C 455.095 -114.833 457.705 -115.593 460.345 -116.243 C 463.085 -116.903 465.855 -117.443 468.655 -117.853 C 471.595 -118.283 474.545 -118.583 477.515 -118.753 C 478.925 -118.833 480.345 -118.883 481.765 -118.913 C 483.235 -118.933 484.705 -118.933 486.165 -118.903 C 491.435 -118.793 496.675 -118.353 501.885 -117.583 C 507.895 -116.693 513.855 -115.483 519.735 -113.953 L 529.415 -111.443 L 524.385 -92.083 L 514.705 -94.593 C 509.515 -95.943 504.255 -97.013 498.955 -97.793 C 494.585 -98.443 490.175 -98.813 485.755 -98.903 C 484.545 -98.933 483.325 -98.933 482.115 -98.913 C 480.965 -98.893 479.805 -98.853 478.655 -98.783 C 476.275 -98.643 473.905 -98.403 471.545 -98.063 C 469.365 -97.743 467.205 -97.323 465.065 -96.803 C 463.035 -96.313 461.025 -95.723 459.045 -95.043 C 457.145 -94.383 455.265 -93.633 453.435 -92.803 C 451.625 -91.973 449.855 -91.063 448.135 -90.073 C 446.395 -89.063 444.705 -87.983 443.065 -86.813 C 441.375 -85.613 439.745 -84.333 438.185 -82.973 C 436.525 -81.543 434.935 -80.033 433.415 -78.443 C 430.015 -74.923 426.955 -71.093 424.255 -67.013 C 420.895 -61.933 417.925 -56.603 415.365 -51.083 C 413.475 -46.973 411.845 -42.763 410.485 -38.453 C 408.495 -32.133 406.795 -25.733 405.385 -19.263 C 404.205 -13.843 403.185 -8.403 402.315 -2.923 C 401.205 4.037 400.255 11.027 399.465 18.037 C 398.655 25.217 397.975 32.417 397.435 39.617 C 396.775 48.427 396.245 57.247 395.855 66.067 C 395.375 76.837 395.065 87.607 394.915 98.387 C 394.735 111.577 394.725 124.767 394.875 137.957 C 395.085 156.577 395.565 175.197 396.315 193.797 C 397.255 217.247 398.465 240.677 399.935 264.097 Z " fill="rgb(212,203,129)" vector-effect="non-scaling-stroke" stroke-width="3" stroke="rgb(208,196,113)" stroke-opacity="100" stroke-linejoin="miter" stroke-linecap="square" stroke-miterlimit="3"/><path d=" M 383.001 263.456 L 383.751 274.005 L 360.002 275.337 L 359.253 264.788 C 357.492 239.874 356.04 214.939 354.922 190.004 C 354.017 170.132 353.446 150.25 353.184 130.367 C 353.006 116.246 353.018 102.135 353.232 88.013 C 353.41 76.407 353.791 64.801 354.374 53.195 C 354.85 43.661 355.493 34.116 356.302 24.592 C 356.968 16.717 357.801 8.843 358.8 0.989 C 359.776 -6.727 360.954 -14.433 362.322 -22.107 C 363.429 -28.29 364.738 -34.442 366.237 -40.552 C 368.057 -48.014 370.27 -55.403 372.852 -62.696 C 374.78 -68.108 377.088 -73.404 379.765 -78.551 C 383.311 -85.369 387.428 -91.933 392.092 -98.19 C 396.101 -103.581 400.647 -108.623 405.691 -113.274 C 408 -115.409 410.415 -117.449 412.938 -119.384 C 415.365 -121.254 417.899 -123.02 420.517 -124.679 C 423.087 -126.307 425.728 -127.819 428.453 -129.214 C 431.166 -130.598 433.938 -131.877 436.782 -133.03 C 439.661 -134.192 442.6 -135.228 445.586 -136.148 C 448.632 -137.078 451.738 -137.881 454.879 -138.568 C 458.139 -139.266 461.435 -139.837 464.766 -140.27 C 468.264 -140.725 471.774 -141.042 475.308 -141.221 C 476.986 -141.306 478.675 -141.359 480.365 -141.391 C 482.114 -141.412 483.863 -141.412 485.6 -141.38 C 491.871 -141.264 498.105 -140.799 504.304 -139.985 C 511.455 -139.044 518.546 -137.765 525.543 -136.148 L 537.06 -133.495 L 531.075 -113.031 L 519.558 -115.684 C 513.383 -117.111 507.124 -118.242 500.818 -119.066 C 495.618 -119.754 490.371 -120.145 485.112 -120.24 C 483.673 -120.271 482.221 -120.271 480.781 -120.25 C 479.413 -120.229 478.033 -120.187 476.665 -120.113 C 473.833 -119.965 471.013 -119.711 468.205 -119.352 C 465.611 -119.014 463.041 -118.57 460.495 -118.02 C 458.079 -117.502 455.688 -116.878 453.332 -116.16 C 451.071 -115.462 448.835 -114.669 446.657 -113.792 C 444.504 -112.915 442.398 -111.953 440.351 -110.906 C 438.281 -109.839 436.27 -108.697 434.319 -107.46 C 432.308 -106.192 430.368 -104.839 428.512 -103.402 C 426.537 -101.89 424.645 -100.294 422.837 -98.613 C 418.791 -94.893 415.151 -90.844 411.938 -86.532 C 407.94 -81.162 404.406 -75.528 401.36 -69.693 C 399.112 -65.349 397.172 -60.899 395.554 -56.343 C 393.186 -49.663 391.164 -42.898 389.486 -36.059 C 388.082 -30.33 386.868 -24.58 385.833 -18.788 C 384.513 -11.431 383.382 -4.042 382.442 3.367 C 381.479 10.957 380.669 18.567 380.027 26.178 C 379.242 35.49 378.611 44.813 378.147 54.136 C 377.576 65.52 377.207 76.904 377.029 88.298 C 376.814 102.24 376.803 116.182 376.981 130.124 C 377.231 149.806 377.802 169.487 378.694 189.148 C 379.813 213.935 381.252 238.701 383.001 263.456 Z " fill="rgb(212,203,129)" vector-effect="non-scaling-stroke" stroke-width="3" stroke="rgb(208,196,113)" stroke-opacity="100" stroke-linejoin="miter" stroke-linecap="square" stroke-miterlimit="3"/><path d=" M 409.469 164.561 C 393.73 141.716 365.969 86.707 360.705 44.237 C 348.61 -53.351 414.128 -135.644 479.931 -135.644 C 545.734 -135.644 602.62 -53.874 592.557 44.237 C 587.066 97.764 555.515 139.553 530.725 174.324 C 507.116 198.145 483.221 199.527 470.499 198.73 C 460.385 198.097 425.209 187.406 409.469 164.561 Z " fill="rgb(242,215,186)"/><path d=" M 360.23 264.097 L 360.86 274.077 L 340.9 275.337 L 340.27 265.357 C 338.79 241.787 337.57 218.197 336.63 194.607 C 335.87 175.807 335.39 156.997 335.17 138.187 C 335.02 124.827 335.03 111.477 335.21 98.117 C 335.36 87.137 335.68 76.157 336.17 65.177 C 336.57 56.157 337.11 47.127 337.79 38.117 C 338.35 30.667 339.05 23.217 339.89 15.787 C 340.71 8.487 341.7 1.197 342.85 -6.063 C 343.78 -11.913 344.88 -17.733 346.14 -23.513 C 347.67 -30.573 349.53 -37.563 351.7 -44.463 C 353.32 -49.583 355.26 -54.593 357.51 -59.463 C 360.49 -65.913 363.95 -72.123 367.87 -78.043 C 371.24 -83.143 375.06 -87.913 379.3 -92.313 C 381.24 -94.333 383.27 -96.263 385.39 -98.093 C 387.43 -99.863 389.56 -101.533 391.76 -103.103 C 393.92 -104.643 396.14 -106.073 398.43 -107.393 C 400.71 -108.703 403.04 -109.913 405.43 -111.003 C 407.85 -112.103 410.32 -113.083 412.83 -113.953 C 415.39 -114.833 418 -115.593 420.64 -116.243 C 423.38 -116.903 426.15 -117.443 428.95 -117.853 C 431.89 -118.283 434.84 -118.583 437.81 -118.753 C 439.22 -118.833 440.64 -118.883 442.06 -118.913 C 443.53 -118.933 445 -118.933 446.46 -118.903 C 451.73 -118.793 456.97 -118.353 462.18 -117.583 C 468.19 -116.693 474.15 -115.483 480.03 -113.953 L 489.71 -111.443 L 484.68 -92.083 L 475 -94.593 C 469.81 -95.943 464.55 -97.013 459.25 -97.793 C 454.88 -98.443 450.47 -98.813 446.05 -98.903 C 444.84 -98.933 443.62 -98.933 442.41 -98.913 C 441.26 -98.893 440.1 -98.853 438.95 -98.783 C 436.57 -98.643 434.2 -98.403 431.84 -98.063 C 429.66 -97.743 427.5 -97.323 425.36 -96.803 C 423.33 -96.313 421.32 -95.723 419.34 -95.043 C 417.44 -94.383 415.56 -93.633 413.73 -92.803 C 411.92 -91.973 410.15 -91.063 408.43 -90.073 C 406.69 -89.063 405 -87.983 403.36 -86.813 C 401.67 -85.613 400.04 -84.333 398.48 -82.973 C 396.82 -81.543 395.23 -80.033 393.71 -78.443 C 390.31 -74.923 387.25 -71.093 384.55 -67.013 C 381.19 -61.933 378.22 -56.603 375.66 -51.083 C 373.77 -46.973 372.14 -42.763 370.78 -38.453 C 368.79 -32.133 367.09 -25.733 365.68 -19.263 C 364.5 -13.843 363.48 -8.403 362.61 -2.923 C 361.5 4.037 360.55 11.027 359.76 18.037 C 358.95 25.217 358.27 32.417 357.73 39.617 C 357.07 48.427 356.54 57.247 356.15 66.067 C 355.67 76.837 355.36 87.607 355.21 98.387 C 355.03 111.577 355.02 124.767 355.17 137.957 C 355.38 156.577 355.86 175.197 356.61 193.797 C 357.55 217.247 358.76 240.677 360.23 264.097 Z " fill="rgb(212,203,129)" vector-effect="non-scaling-stroke" stroke-width="3" stroke="rgb(208,196,113)" stroke-opacity="100" stroke-linejoin="miter" stroke-linecap="square" stroke-miterlimit="3"/><path d=" M 600.547 269.858 L 599.917 279.838 L 619.877 281.098 L 620.507 271.118 C 621.987 247.548 623.207 223.958 624.147 200.368 C 624.907 181.568 625.387 162.758 625.607 143.948 C 625.757 130.588 625.747 117.238 625.567 103.878 C 625.417 92.898 625.097 81.918 624.607 70.938 C 624.207 61.918 623.667 52.888 622.987 43.878 C 622.427 36.428 621.727 28.978 620.887 21.548 C 620.067 14.248 619.077 6.958 617.927 -0.302 C 616.997 -6.152 615.897 -11.972 614.637 -17.752 C 613.107 -24.812 611.247 -31.802 609.077 -38.702 C 607.457 -43.822 605.517 -48.832 603.267 -53.702 C 600.287 -60.152 596.827 -66.362 592.907 -72.282 C 589.537 -77.382 585.717 -82.152 581.477 -86.552 C 579.537 -88.572 577.507 -90.502 575.387 -92.332 C 573.347 -94.102 571.217 -95.772 569.017 -97.342 C 566.857 -98.882 564.637 -100.312 562.347 -101.632 C 560.067 -102.942 557.737 -104.152 555.347 -105.242 C 552.927 -106.342 550.457 -107.322 547.947 -108.192 C 545.387 -109.072 542.777 -109.832 540.137 -110.482 C 537.397 -111.142 534.627 -111.682 531.827 -112.092 C 528.887 -112.522 525.937 -112.822 522.967 -112.992 C 521.557 -113.072 520.137 -113.122 518.717 -113.152 C 517.247 -113.172 515.777 -113.172 514.317 -113.142 C 509.047 -113.032 503.807 -112.592 498.597 -111.822 C 492.587 -110.932 486.627 -109.722 480.747 -108.192 L 471.067 -105.682 L 476.097 -86.322 L 485.777 -88.832 C 490.967 -90.182 496.227 -91.252 501.527 -92.032 C 505.897 -92.682 510.307 -93.052 514.727 -93.142 C 515.937 -93.172 517.157 -93.172 518.367 -93.152 C 519.517 -93.132 520.677 -93.092 521.827 -93.022 C 524.207 -92.882 526.577 -92.642 528.937 -92.302 C 531.117 -91.982 533.277 -91.562 535.417 -91.042 C 537.447 -90.552 539.457 -89.962 541.437 -89.282 C 543.337 -88.622 545.217 -87.872 547.047 -87.042 C 548.857 -86.212 550.627 -85.302 552.347 -84.312 C 554.087 -83.302 555.777 -82.222 557.417 -81.052 C 559.107 -79.852 560.737 -78.572 562.297 -77.212 C 563.957 -75.782 565.547 -74.272 567.067 -72.682 C 570.467 -69.162 573.527 -65.332 576.227 -61.252 C 579.587 -56.172 582.557 -50.842 585.117 -45.322 C 587.007 -41.212 588.637 -37.002 589.997 -32.692 C 591.987 -26.372 593.687 -19.972 595.097 -13.502 C 596.277 -8.082 597.297 -2.642 598.167 2.838 C 599.277 9.798 600.227 16.788 601.017 23.798 C 601.827 30.978 602.507 38.178 603.047 45.378 C 603.707 54.188 604.237 63.008 604.627 71.828 C 605.107 82.598 605.417 93.368 605.567 104.148 C 605.747 117.338 605.757 130.528 605.607 143.718 C 605.397 162.338 604.917 180.958 604.167 199.558 C 603.227 223.008 602.017 246.438 600.547 269.858 Z " fill="rgb(212,203,129)" vector-effect="non-scaling-stroke" stroke-width="3" stroke="rgb(208,196,113)" stroke-opacity="100" stroke-linejoin="miter" stroke-linecap="square" stroke-miterlimit="3"/><path d=" M 570.705 263.215 L 570.239 273.204 L 590.217 274.137 L 590.683 264.148 C 591.776 240.556 592.608 216.95 593.161 193.347 C 593.612 174.537 593.783 155.722 593.694 136.911 C 593.625 123.55 593.396 110.202 592.997 96.847 C 592.666 85.871 592.166 74.898 591.496 63.927 C 590.948 54.915 590.26 45.895 589.432 36.898 C 588.75 29.458 587.928 22.02 586.966 14.605 C 586.026 7.319 584.916 0.047 583.648 -7.194 C 582.622 -13.027 581.426 -18.829 580.071 -24.587 C 578.426 -31.621 576.451 -38.58 574.168 -45.443 C 572.464 -50.536 570.443 -55.513 568.113 -60.346 C 565.027 -66.746 561.466 -72.898 557.449 -78.753 C 553.996 -83.797 550.098 -88.504 545.787 -92.834 C 543.814 -94.821 541.752 -96.718 539.602 -98.513 C 537.534 -100.249 535.377 -101.884 533.151 -103.418 C 530.966 -104.922 528.723 -106.315 526.412 -107.597 C 524.11 -108.87 521.761 -110.041 519.353 -111.092 Q 516.916 -112.152 493.159 -116.243 C 489.927 -100.34 497.511 -97.052 499.659 -96.567 C 501.697 -96.11 503.716 -95.553 505.707 -94.906 C 507.618 -94.277 509.51 -93.558 511.353 -92.758 C 513.177 -91.958 514.961 -91.077 516.697 -90.116 C 518.454 -89.134 520.161 -88.082 521.82 -86.939 C 523.53 -85.767 525.18 -84.514 526.762 -83.18 C 528.446 -81.777 530.06 -80.294 531.606 -78.729 C 535.064 -75.265 538.186 -71.486 540.953 -67.451 C 544.396 -62.427 547.453 -57.146 550.103 -51.669 C 552.06 -47.59 553.759 -43.408 555.19 -39.121 C 557.283 -32.834 559.088 -26.463 560.604 -20.017 C 561.873 -14.617 562.982 -9.195 563.942 -3.73 C 565.166 3.211 566.23 10.185 567.135 17.181 C 568.063 24.347 568.861 31.534 569.519 38.725 C 570.324 47.523 570.999 56.333 571.533 65.145 C 572.19 75.906 572.677 86.669 573.004 97.445 C 573.4 110.631 573.627 123.819 573.693 137.009 C 573.789 155.63 573.615 174.256 573.17 192.865 C 572.615 216.328 571.79 239.774 570.705 263.215 Z " fill="rgb(212,203,129)"/><path d=" M 610.448 269.217 L 609.699 279.766 L 633.448 281.098 L 634.197 270.549 C 635.958 245.635 637.41 220.7 638.528 195.765 C 639.433 175.893 640.004 156.011 640.265 136.128 C 640.444 122.007 640.432 107.896 640.218 93.774 C 640.039 82.168 639.659 70.562 639.076 58.956 C 638.6 49.422 637.957 39.877 637.148 30.353 C 636.482 22.478 635.649 14.604 634.649 6.75 C 633.674 -0.966 632.496 -8.672 631.128 -16.346 C 630.021 -22.529 628.712 -28.681 627.213 -34.791 C 625.393 -42.253 623.18 -49.642 620.598 -56.935 C 618.67 -62.347 616.362 -67.643 613.685 -72.79 C 610.139 -79.608 606.022 -86.172 601.358 -92.429 C 597.348 -97.82 592.803 -102.862 587.758 -107.513 C 585.45 -109.648 583.035 -111.688 580.512 -113.623 C 578.085 -115.494 575.551 -117.259 572.933 -118.918 C 570.363 -120.546 567.722 -122.058 564.997 -123.453 C 562.284 -124.837 559.512 -126.117 556.668 -127.269 C 553.789 -128.431 550.85 -129.467 547.863 -130.387 C 544.818 -131.317 541.712 -132.12 538.571 -132.807 C 535.311 -133.505 532.015 -134.076 528.684 -134.509 C 525.185 -134.964 521.675 -135.281 518.142 -135.46 C 516.464 -135.545 514.774 -135.598 513.085 -135.63 C 511.336 -135.651 509.587 -135.651 507.85 -135.619 C 501.579 -135.503 495.345 -135.038 489.146 -134.224 C 481.995 -133.283 474.903 -132.004 467.907 -130.387 L 456.39 -127.734 L 462.375 -107.27 L 473.892 -109.923 C 480.067 -111.35 486.326 -112.481 492.632 -113.305 C 497.831 -113.993 503.079 -114.384 508.338 -114.479 C 509.777 -114.51 511.229 -114.51 512.668 -114.489 C 514.037 -114.468 515.417 -114.426 516.785 -114.352 C 519.617 -114.204 522.437 -113.95 525.245 -113.591 C 527.839 -113.253 530.409 -112.809 532.955 -112.259 C 535.37 -111.741 537.762 -111.117 540.118 -110.399 C 542.378 -109.701 544.615 -108.908 546.793 -108.031 C 548.946 -107.154 551.052 -106.192 553.099 -105.145 C 555.169 -104.078 557.18 -102.936 559.131 -101.7 C 561.142 -100.431 563.081 -99.078 564.938 -97.641 C 566.913 -96.129 568.804 -94.533 570.613 -92.852 C 574.658 -89.132 578.299 -85.083 581.512 -80.771 C 585.51 -75.401 589.043 -69.767 592.089 -63.932 C 594.338 -59.588 596.278 -55.138 597.896 -50.582 C 600.263 -43.902 602.286 -37.137 603.964 -30.298 C 605.368 -24.569 606.581 -18.819 607.617 -13.027 C 608.937 -5.67 610.068 1.719 611.008 9.128 C 611.971 16.718 612.78 24.328 613.423 31.939 C 614.208 41.251 614.839 50.574 615.303 59.897 C 615.874 71.281 616.243 82.665 616.421 94.059 C 616.635 108.001 616.647 121.943 616.469 135.885 C 616.219 155.567 615.648 175.248 614.756 194.909 C 613.637 219.696 612.197 244.462 610.448 269.217 Z " fill="rgb(212,203,129)" vector-effect="non-scaling-stroke" stroke-width="3" stroke="rgb(208,196,113)" stroke-opacity="100" stroke-linejoin="miter" stroke-linecap="square" stroke-miterlimit="3"/><path d=" M 584.119 269.217 L 583.369 279.766 L 607.118 281.098 L 607.868 270.549 C 609.629 245.635 611.08 220.7 612.199 195.765 C 613.103 175.893 613.674 156.011 613.936 136.128 C 614.114 122.007 614.102 107.896 613.888 93.774 C 613.71 82.168 613.329 70.562 612.746 58.956 C 612.27 49.422 611.628 39.877 610.819 30.353 C 610.152 22.478 609.319 14.604 608.32 6.75 C 607.344 -0.966 606.166 -8.672 604.798 -16.346 C 603.691 -22.529 602.383 -28.681 600.883 -34.791 C 599.063 -42.253 596.85 -49.642 594.268 -56.935 C 592.34 -62.347 590.032 -67.643 587.355 -72.79 C 583.809 -79.608 579.693 -86.172 575.029 -92.429 C 571.019 -97.82 566.474 -102.862 561.429 -107.513 C 559.121 -109.648 556.705 -111.688 554.183 -113.623 C 551.756 -115.494 549.221 -117.259 546.604 -118.918 C 544.034 -120.546 541.392 -122.058 538.667 -123.453 C 535.955 -124.837 533.182 -126.117 530.339 -127.269 C 527.459 -128.431 524.52 -129.467 521.534 -130.387 C 518.488 -131.317 515.383 -132.12 512.241 -132.807 C 508.981 -133.505 505.685 -134.076 502.354 -134.509 C 498.856 -134.964 495.346 -135.281 491.812 -135.46 C 490.135 -135.545 488.445 -135.598 486.755 -135.63 C 485.006 -135.651 483.257 -135.651 481.52 -135.619 C 475.25 -135.503 469.015 -135.038 462.816 -134.224 C 455.665 -133.283 448.574 -132.004 441.578 -130.387 L 430.06 -127.734 L 433.952 -118.02 L 449.17 -116.16 C 455.345 -117.587 459.996 -112.481 466.302 -113.305 C 471.502 -113.993 476.749 -114.384 482.008 -114.479 C 483.448 -114.51 484.899 -114.51 486.339 -114.489 C 487.707 -114.468 489.087 -114.426 490.456 -114.352 C 493.288 -114.204 496.107 -113.95 498.915 -113.591 C 501.509 -113.253 504.079 -112.809 506.625 -112.259 C 509.041 -111.741 511.432 -111.117 513.788 -110.399 C 516.049 -109.701 518.286 -108.908 520.463 -108.031 C 522.617 -107.154 524.723 -106.192 526.769 -105.145 C 528.84 -104.078 530.85 -102.936 532.802 -101.7 C 534.812 -100.431 536.752 -99.078 538.608 -97.641 C 540.583 -96.129 542.475 -94.533 544.283 -92.852 C 548.329 -89.132 551.97 -85.083 555.182 -80.771 C 559.18 -75.401 562.714 -69.767 565.76 -63.932 C 568.009 -59.588 569.948 -55.138 571.566 -50.582 C 573.934 -43.902 575.957 -37.137 577.634 -30.298 C 579.038 -24.569 580.252 -18.819 581.287 -13.027 C 582.608 -5.67 583.738 1.719 584.678 9.128 C 585.642 16.718 586.451 24.328 587.093 31.939 C 587.879 41.251 588.509 50.574 588.973 59.897 C 589.544 71.281 589.913 82.665 590.092 94.059 C 590.306 108.001 590.318 121.943 590.139 135.885 C 589.889 155.567 589.318 175.248 588.426 194.909 C 587.308 219.696 585.868 244.462 584.119 269.217 Z " fill="rgb(212,203,129)" vector-effect="non-scaling-stroke" stroke-width="3" stroke="rgb(208,196,113)" stroke-opacity="100" stroke-linejoin="miter" stroke-linecap="square" stroke-miterlimit="3"/><path d=" M 341.636 269.217 L 342.386 279.766 L 318.637 281.098 L 317.887 270.549 C 316.126 245.635 314.675 220.7 313.556 195.765 C 312.652 175.893 312.081 156.011 311.819 136.128 C 311.641 122.007 311.653 107.896 311.867 93.774 C 312.045 82.168 312.426 70.562 313.009 58.956 C 313.485 49.422 314.128 39.877 314.937 30.353 C 315.603 22.478 316.436 14.604 317.435 6.75 C 318.411 -0.966 319.589 -8.672 320.957 -16.346 C 322.064 -22.529 323.373 -28.681 324.872 -34.791 C 326.692 -42.253 328.905 -49.642 331.487 -56.935 C 333.415 -62.347 335.723 -67.643 338.4 -72.79 C 341.946 -79.608 346.062 -86.172 350.727 -92.429 C 354.736 -97.82 359.281 -102.862 364.326 -107.513 C 366.635 -109.648 369.05 -111.688 371.572 -113.623 C 374 -115.494 376.534 -117.259 379.152 -118.918 C 381.722 -120.546 384.363 -122.058 387.088 -123.453 C 389.801 -124.837 392.573 -126.117 395.416 -127.269 C 398.296 -128.431 401.235 -129.467 404.221 -130.387 C 407.267 -131.317 410.373 -132.12 413.514 -132.807 C 416.774 -133.505 420.07 -134.076 423.401 -134.509 C 426.899 -134.964 430.409 -135.281 433.943 -135.46 C 435.621 -135.545 437.31 -135.598 439 -135.63 C 440.749 -135.651 442.498 -135.651 444.235 -135.619 C 450.505 -135.503 456.74 -135.038 462.939 -134.224 C 470.09 -133.283 477.181 -132.004 484.177 -130.387 L 495.695 -127.734 L 493.06 -118.02 L 478.655 -117.583 L 460.345 -116.243 Q 449.006 -114.384 443.747 -114.479 C 442.308 -114.51 440.856 -114.51 439.416 -114.489 C 438.048 -114.468 436.668 -114.426 435.299 -114.352 C 432.468 -114.204 429.648 -113.95 426.84 -113.591 C 424.246 -113.253 421.676 -112.809 419.13 -112.259 C 416.714 -111.741 414.323 -111.117 411.967 -110.399 C 409.706 -109.701 407.469 -108.908 405.292 -108.031 C 403.138 -107.154 401.032 -106.192 398.986 -105.145 C 396.916 -104.078 394.905 -102.936 392.953 -101.7 C 390.943 -100.431 389.003 -99.078 387.147 -97.641 C 385.172 -96.129 383.28 -94.533 381.472 -92.852 C 377.426 -89.132 373.785 -85.083 370.573 -80.771 C 366.575 -75.401 363.041 -69.767 359.995 -63.932 C 357.747 -59.588 355.807 -55.138 354.189 -50.582 C 351.821 -43.902 349.799 -37.137 348.121 -30.298 C 346.717 -24.569 345.503 -18.819 344.468 -13.027 C 343.147 -5.67 342.017 1.719 341.077 9.128 C 340.113 16.718 339.304 24.328 338.662 31.939 C 337.876 41.251 337.246 50.574 336.782 59.897 C 336.211 71.281 335.842 82.665 335.663 94.059 C 335.449 108.001 335.437 121.943 335.616 135.885 C 335.866 155.567 336.437 175.248 337.329 194.909 C 338.448 219.696 339.887 244.462 341.636 269.217 Z " fill="rgb(212,203,129)"/><path d=" M 374.323 247.145 L 374.855 256.509 L 357.99 257.692 L 357.458 248.328 C 356.207 226.212 355.176 204.078 354.382 181.944 C 353.74 164.305 353.334 146.656 353.148 129.007 C 353.022 116.471 353.03 103.945 353.182 91.41 C 353.309 81.107 353.579 70.805 353.993 60.503 C 354.331 52.039 354.788 43.567 355.362 35.113 C 355.835 28.123 356.427 21.132 357.137 14.161 C 357.829 7.312 358.666 0.472 359.638 -6.34 C 360.423 -11.829 361.353 -17.29 362.418 -22.713 C 363.71 -29.338 365.282 -35.896 367.115 -42.37 C 368.484 -47.174 370.124 -51.875 372.025 -56.445 C 374.543 -62.496 377.466 -68.323 380.778 -73.878 C 383.626 -78.663 386.854 -83.139 390.436 -87.267 C 392.075 -89.162 393.791 -90.973 395.582 -92.69 C 397.306 -94.351 399.105 -95.918 400.964 -97.391 C 402.789 -98.836 404.665 -100.178 406.6 -101.416 C 408.527 -102.645 410.495 -103.781 412.515 -104.803 C 414.56 -105.836 416.647 -106.755 418.767 -107.571 C 420.931 -108.397 423.136 -109.11 425.367 -109.72 C 427.682 -110.339 430.022 -110.846 432.388 -111.231 C 434.872 -111.634 437.365 -111.916 439.874 -112.075 C 441.066 -112.15 442.266 -112.197 443.465 -112.225 C 444.707 -112.244 445.95 -112.244 447.183 -112.216 C 451.636 -112.113 456.064 -111.7 460.466 -110.977 C 465.544 -110.142 470.58 -109.007 475.548 -107.571 L 483.727 -105.216 L 479.477 -87.051 L 471.298 -89.406 C 466.913 -90.673 462.468 -91.677 457.99 -92.409 C 454.298 -93.019 450.571 -93.366 446.837 -93.45 C 445.814 -93.478 444.784 -93.478 443.761 -93.46 C 442.789 -93.441 441.809 -93.403 440.838 -93.338 C 438.827 -93.206 436.824 -92.981 434.83 -92.662 C 432.988 -92.362 431.163 -91.968 429.355 -91.48 C 427.639 -91.02 425.941 -90.467 424.268 -89.829 C 422.663 -89.209 421.074 -88.506 419.528 -87.727 C 417.999 -86.948 416.503 -86.094 415.05 -85.165 C 413.579 -84.218 412.151 -83.204 410.766 -82.106 C 409.338 -80.981 407.96 -79.78 406.642 -78.504 C 405.24 -77.162 403.896 -75.745 402.612 -74.253 C 399.739 -70.95 397.154 -67.357 394.872 -63.529 C 392.033 -58.762 389.524 -53.761 387.361 -48.582 C 385.764 -44.725 384.386 -40.775 383.237 -36.731 C 381.556 -30.801 380.119 -24.796 378.928 -18.726 C 377.931 -13.64 377.069 -8.536 376.334 -3.394 C 375.396 3.136 374.593 9.695 373.926 16.272 C 373.241 23.009 372.667 29.765 372.211 36.52 C 371.653 44.787 371.205 53.062 370.876 61.338 C 370.47 71.443 370.208 81.548 370.081 91.663 C 369.929 104.039 369.921 116.415 370.047 128.791 C 370.225 146.261 370.63 163.732 371.264 181.184 C 372.058 203.187 373.081 225.171 374.323 247.145 Z " fill="rgb(212,203,129)" vector-effect="non-scaling-stroke" stroke-width="3" stroke="rgb(208,196,113)" stroke-opacity="100" stroke-linejoin="miter" stroke-linecap="square" stroke-miterlimit="3"/></g><g id="Group"><path d=" M 466.654 75.147 Q 473.064 82.563 477.654 85.147 Q 481.55 87.341 489.654 89.147 Q 484.212 95.312 480.209 97.147 Q 477.7 98.297 472.654 99.147" fill="none" vector-effect="non-scaling-stroke" stroke-width="3" stroke="rgb(149,132,114)" stroke-opacity="100" stroke-linejoin="miter" stroke-linecap="square" stroke-miterlimit="3"/><path d=" M 413.046 126.94 Q 448.532 141.471 468.781 141.745 Q 490.138 142.034 527.669 126.94 Q 494.093 161.041 470.632 161.147 Q 446.978 161.253 413.046 126.94 Z " fill="rgb(225,118,118)" vector-effect="non-scaling-stroke" stroke-width="1" stroke="rgb(225,118,118)" stroke-opacity="100" stroke-linejoin="miter" stroke-linecap="square" stroke-miterlimit="3"/><path d=" M 433.375 140.377 Q 455.516 146.94 469.311 147.108 Q 484.12 147.29 508.131 140.377 Q 487.578 154.598 469.311 154.267 Q 452.057 153.954 433.375 140.377 Z " fill="rgb(255,255,255)" vector-effect="non-scaling-stroke" stroke-width="0.64" stroke="rgb(255,255,255)" stroke-opacity="100" stroke-linejoin="miter" stroke-linecap="square" stroke-miterlimit="3"/><path d=" M 392.01 31.508 C 392.01 23.989 408.126 5.301 420.085 5.301 C 432.044 5.301 448.687 25.029 448.687 32.548 C 448.687 40.066 431.866 16.773 419.907 16.773 C 407.948 16.773 392.01 39.027 392.01 31.508 Z " fill="rgb(42,41,41)"/><path d=" M 492.289 34.999 C 492.289 27.48 508.404 8.792 520.363 8.792 C 532.322 8.792 548.965 28.52 548.965 36.038 C 548.965 43.557 532.144 20.264 520.185 20.264 C 508.226 20.264 492.289 42.518 492.289 34.999 Z " fill="rgb(42,41,41)"/></g></g></svg>