<?xml version="1.0" standalone="no"?><!-- Generator: Gravit.io --><svg xmlns="http://www.w3.org/2000/svg" xmlns:xlink="http://www.w3.org/1999/xlink" style="isolation:isolate" viewBox="-89.347 -133.906 333.195 431.504" width="333.195" height="431.504"><g id="Group"><g id="Group"><path d=" M 150.727 275.456 L 149.977 286.005 L 173.726 287.337 L 174.476 276.788 C 176.237 251.874 177.688 226.939 178.807 202.004 C 179.711 182.132 180.282 162.25 180.544 142.367 C 180.722 128.246 180.71 114.135 180.496 100.013 C 180.318 88.407 179.937 76.801 179.354 65.195 C 178.878 55.661 178.236 46.116 177.427 36.592 C 176.76 28.717 175.927 20.843 174.928 12.989 C 173.952 5.273 172.774 -2.433 171.406 -10.107 C 170.299 -16.29 168.991 -22.442 167.491 -28.552 C 165.671 -36.014 163.458 -43.403 160.876 -50.696 C 158.948 -56.108 156.64 -61.404 153.963 -66.551 C 150.417 -73.369 146.301 -79.933 141.637 -86.19 C 137.627 -91.581 133.082 -96.623 128.037 -101.274 C 125.729 -103.409 123.313 -105.449 120.791 -107.384 C 118.364 -109.255 115.829 -111.02 113.212 -112.679 C 110.642 -114.307 108 -115.819 105.275 -117.214 C 102.563 -118.598 99.79 -119.877 96.947 -121.03 C 94.067 -122.192 91.128 -123.228 88.142 -124.148 C 85.096 -125.078 81.991 -125.881 78.849 -126.568 C 75.589 -127.266 72.293 -127.837 68.962 -128.27 C 65.464 -128.725 61.954 -129.042 58.42 -129.221 C 56.743 -129.306 55.053 -129.359 53.363 -129.391 C 51.614 -129.412 49.865 -129.412 48.128 -129.38 Q 41.858 -129.264 -1.577 -112.679 L 2.653 -101.031 L 14.171 -103.684 C 20.346 -105.111 26.604 -106.242 32.91 -107.066 C 38.11 -107.754 43.357 -108.145 48.616 -108.24 C 50.056 -108.271 51.507 -108.271 52.947 -108.25 C 54.315 -108.229 55.695 -108.187 57.064 -108.113 C 59.896 -107.965 62.715 -107.711 65.523 -107.352 C 68.117 -107.014 70.687 -106.57 73.233 -106.02 C 75.649 -105.502 78.04 -104.878 80.396 -104.16 C 82.657 -103.462 84.894 -102.669 87.071 -101.792 C 89.225 -100.915 91.331 -99.953 93.377 -98.906 C 95.448 -97.839 97.458 -96.697 99.41 -95.461 C 101.42 -94.192 103.36 -92.839 105.216 -91.402 C 107.191 -89.89 109.083 -88.294 110.891 -86.613 C 114.937 -82.893 118.578 -78.844 121.79 -74.532 C 125.788 -69.162 129.322 -63.528 132.368 -57.693 C 134.617 -53.349 136.556 -48.899 138.174 -44.343 C 140.542 -37.663 142.565 -30.898 144.242 -24.059 C 145.646 -18.33 146.86 -12.58 147.895 -6.788 C 149.216 0.569 150.346 7.958 151.286 15.367 C 152.25 22.957 153.059 30.567 153.701 38.178 C 154.487 47.49 155.117 56.813 155.581 66.136 C 156.152 77.52 156.521 88.904 156.7 100.298 C 156.914 114.24 156.926 128.182 156.747 142.124 C 156.497 161.806 155.926 181.487 155.034 201.148 C 153.916 225.935 152.476 250.701 150.727 275.456 Z " fill="rgb(212,203,129)" vector-effect="non-scaling-stroke" stroke-width="3" stroke="rgb(208,196,113)" stroke-opacity="100" stroke-linejoin="miter" stroke-linecap="square" stroke-miterlimit="3"/><path d=" M -1.107 276.097 L -0.477 286.077 L -20.437 287.337 L -21.067 277.357 C -22.547 253.787 -23.767 230.197 -24.707 206.607 C -25.467 187.807 -25.947 168.997 -26.167 150.187 C -26.317 136.827 -26.307 123.477 -26.127 110.117 C -25.977 99.137 -25.657 88.157 -25.167 77.177 C -24.767 68.157 -24.227 59.127 -23.547 50.117 C -22.987 42.667 -22.287 35.217 -21.447 27.787 C -20.627 20.487 -19.637 13.197 -18.487 5.937 C -17.557 0.087 -16.457 -5.733 -15.197 -11.513 C -13.667 -18.573 -11.807 -25.563 -9.637 -32.463 C -8.017 -37.583 -6.077 -42.593 -3.827 -47.463 C -0.847 -53.913 2.613 -60.123 6.533 -66.043 C 9.903 -71.143 13.723 -75.913 17.963 -80.313 C 19.903 -82.333 21.933 -84.263 24.053 -86.093 C 26.093 -87.863 28.223 -89.533 30.423 -91.103 C 32.583 -92.643 34.803 -94.073 37.093 -95.393 C 39.373 -96.703 41.703 -97.913 44.093 -99.003 C 46.513 -100.103 48.983 -101.083 51.493 -101.953 C 54.053 -102.833 56.663 -103.593 59.303 -104.243 C 62.043 -104.903 64.813 -105.443 67.613 -105.853 C 70.553 -106.283 73.503 -106.583 76.473 -106.753 C 77.883 -106.833 79.303 -106.883 80.723 -106.913 C 82.193 -106.933 83.663 -106.933 85.123 -106.903 C 90.393 -106.793 95.633 -106.353 100.843 -105.583 C 106.853 -104.693 112.813 -103.483 118.693 -101.953 L 128.373 -99.443 L 123.343 -80.083 L 113.663 -82.593 C 108.473 -83.943 103.213 -85.013 97.913 -85.793 C 93.543 -86.443 89.133 -86.813 84.713 -86.903 C 83.503 -86.933 82.283 -86.933 81.073 -86.913 C 79.923 -86.893 78.763 -86.853 77.613 -86.783 C 75.233 -86.643 72.863 -86.403 70.503 -86.063 C 68.323 -85.743 66.163 -85.323 64.023 -84.803 C 61.993 -84.313 59.983 -83.723 58.003 -83.043 C 56.103 -82.383 54.223 -81.633 52.393 -80.803 C 50.583 -79.973 48.813 -79.063 47.093 -78.073 C 45.353 -77.063 43.663 -75.983 42.023 -74.813 C 40.333 -73.613 38.703 -72.333 37.143 -70.973 C 35.483 -69.543 33.893 -68.033 32.373 -66.443 C 28.973 -62.923 25.913 -59.093 23.213 -55.013 C 19.853 -49.933 16.883 -44.603 14.323 -39.083 C 12.433 -34.973 10.803 -30.763 9.443 -26.453 C 7.453 -20.133 5.753 -13.733 4.343 -7.263 C 3.163 -1.843 2.143 3.597 1.273 9.077 C 0.163 16.037 -0.787 23.027 -1.577 30.037 C -2.387 37.217 -3.067 44.417 -3.607 51.617 C -4.267 60.427 -4.797 69.247 -5.187 78.067 C -5.667 88.837 -5.977 99.607 -6.127 110.387 C -6.307 123.577 -6.317 136.767 -6.167 149.957 C -5.957 168.577 -5.477 187.197 -4.727 205.797 C -3.787 229.247 -2.577 252.677 -1.107 276.097 Z " fill="rgb(212,203,129)" vector-effect="non-scaling-stroke" stroke-width="3" stroke="rgb(208,196,113)" stroke-opacity="100" stroke-linejoin="miter" stroke-linecap="square" stroke-miterlimit="3"/><path d=" M -18.041 275.456 L -17.291 286.005 L -41.04 287.337 L -41.789 276.788 C -43.55 251.874 -45.002 226.939 -46.12 202.004 C -47.025 182.132 -47.596 162.25 -47.858 142.367 C -48.036 128.246 -48.024 114.135 -47.81 100.013 C -47.632 88.407 -47.251 76.801 -46.668 65.195 C -46.192 55.661 -45.549 46.116 -44.74 36.592 C -44.074 28.717 -43.241 20.843 -42.242 12.989 C -41.266 5.273 -40.088 -2.433 -38.72 -10.107 C -37.613 -16.29 -36.304 -22.442 -34.805 -28.552 C -32.985 -36.014 -30.772 -43.403 -28.19 -50.696 C -26.262 -56.108 -23.954 -61.404 -21.277 -66.551 C -17.731 -73.369 -13.614 -79.933 -8.95 -86.19 C -4.941 -91.581 -0.395 -96.623 4.649 -101.274 C 6.958 -103.409 9.373 -105.449 11.896 -107.384 C 14.323 -109.254 16.857 -111.02 19.475 -112.679 C 22.045 -114.307 24.686 -115.819 27.411 -117.214 C 30.124 -118.598 32.896 -119.877 35.74 -121.03 C 38.619 -122.192 41.558 -123.228 44.544 -124.148 C 47.59 -125.078 50.696 -125.881 53.837 -126.568 C 57.097 -127.266 60.393 -127.837 63.724 -128.27 C 67.222 -128.725 70.732 -129.042 74.266 -129.221 C 75.944 -129.306 77.633 -129.359 79.323 -129.391 C 81.072 -129.412 82.821 -129.412 84.558 -129.38 C 90.829 -129.264 97.063 -128.799 103.262 -127.985 C 110.413 -127.044 117.504 -125.765 124.501 -124.148 L 136.018 -121.495 L 130.033 -101.031 L 118.516 -103.684 C 112.341 -105.111 106.082 -106.242 99.776 -107.066 C 94.576 -107.754 89.329 -108.145 84.07 -108.24 C 82.631 -108.271 81.179 -108.271 79.739 -108.25 C 78.371 -108.229 76.991 -108.187 75.623 -108.113 C 72.791 -107.965 69.971 -107.711 67.163 -107.352 C 64.569 -107.014 61.999 -106.57 59.453 -106.02 C 57.037 -105.502 54.646 -104.878 52.29 -104.16 C 50.029 -103.462 47.793 -102.669 45.615 -101.792 C 43.462 -100.915 41.356 -99.953 39.309 -98.906 C 37.239 -97.839 35.228 -96.697 33.277 -95.46 C 31.266 -94.192 29.326 -92.839 27.47 -91.402 C 25.495 -89.89 23.603 -88.294 21.795 -86.613 C 17.749 -82.893 14.109 -78.844 10.896 -74.532 C 6.898 -69.162 3.364 -63.528 0.318 -57.693 C -1.93 -53.349 -3.87 -48.899 -5.488 -44.343 C -7.856 -37.663 -9.878 -30.898 -11.556 -24.059 C -12.96 -18.33 -14.174 -12.58 -15.209 -6.788 C -16.529 0.569 -17.66 7.958 -18.6 15.367 C -19.563 22.957 -20.373 30.567 -21.015 38.178 C -21.8 47.49 -22.431 56.813 -22.895 66.136 C -23.466 77.52 -23.835 88.904 -24.013 100.298 C -24.228 114.24 -24.239 128.182 -24.061 142.124 C -23.811 161.806 -23.24 181.487 -22.348 201.148 C -21.229 225.935 -19.79 250.701 -18.041 275.456 Z " fill="rgb(212,203,129)" vector-effect="non-scaling-stroke" stroke-width="3" stroke="rgb(208,196,113)" stroke-opacity="100" stroke-linejoin="miter" stroke-linecap="square" stroke-miterlimit="3"/><path d=" M 8.427 176.561 C -7.312 153.716 -35.073 98.707 -40.337 56.237 C -52.432 -41.351 13.086 -123.644 78.889 -123.644 C 144.692 -123.644 201.578 -41.874 191.515 56.237 C 186.024 109.764 154.473 151.553 129.683 186.324 C 106.074 210.145 82.179 211.527 69.457 210.73 C 59.343 210.097 24.167 199.406 8.427 176.561 Z " fill="rgb(242,215,186)"/><path d=" M -40.812 276.097 L -40.182 286.077 L -60.142 287.337 L -60.772 277.357 C -62.252 253.787 -63.472 230.197 -64.412 206.607 C -65.172 187.807 -65.652 168.997 -65.872 150.187 C -66.022 136.827 -66.012 123.477 -65.832 110.117 C -65.682 99.137 -65.362 88.157 -64.872 77.177 C -64.472 68.157 -63.932 59.127 -63.252 50.117 C -62.692 42.667 -61.992 35.217 -61.152 27.787 C -60.332 20.487 -59.342 13.197 -58.192 5.937 C -57.262 0.087 -56.162 -5.733 -54.902 -11.513 C -53.372 -18.573 -51.512 -25.563 -49.342 -32.463 C -47.722 -37.583 -45.782 -42.593 -43.532 -47.463 C -40.552 -53.913 -37.092 -60.123 -33.172 -66.043 C -29.802 -71.143 -25.982 -75.913 -21.742 -80.313 C -19.802 -82.333 -17.772 -84.263 -15.652 -86.093 C -13.612 -87.863 -11.482 -89.533 -9.282 -91.103 C -7.122 -92.643 -4.902 -94.073 -2.612 -95.393 C -0.332 -96.703 1.998 -97.913 4.388 -99.003 C 6.808 -100.103 9.278 -101.083 11.788 -101.953 C 14.348 -102.833 16.958 -103.593 19.598 -104.243 C 22.338 -104.903 25.108 -105.443 27.908 -105.853 C 30.848 -106.283 33.798 -106.583 36.768 -106.753 C 38.178 -106.833 39.598 -106.883 41.018 -106.913 C 42.488 -106.933 43.958 -106.933 45.418 -106.903 C 50.688 -106.793 55.928 -106.353 61.138 -105.583 C 67.148 -104.693 73.108 -103.483 78.988 -101.953 L 88.668 -99.443 L 83.638 -80.083 L 73.958 -82.593 C 68.768 -83.943 63.508 -85.013 58.208 -85.793 C 53.838 -86.443 49.428 -86.813 45.008 -86.903 C 43.798 -86.933 42.578 -86.933 41.368 -86.913 C 40.218 -86.893 39.058 -86.853 37.908 -86.783 C 35.528 -86.643 33.158 -86.403 30.798 -86.063 C 28.618 -85.743 26.458 -85.323 24.318 -84.803 C 22.288 -84.313 20.278 -83.723 18.298 -83.043 C 16.398 -82.383 14.518 -81.633 12.688 -80.803 C 10.878 -79.973 9.108 -79.063 7.388 -78.073 C 5.648 -77.063 3.958 -75.983 2.318 -74.813 C 0.628 -73.613 -1.002 -72.333 -2.562 -70.973 C -4.222 -69.543 -5.812 -68.033 -7.332 -66.443 C -10.732 -62.923 -13.792 -59.093 -16.492 -55.013 C -19.852 -49.933 -22.822 -44.603 -25.382 -39.083 C -27.272 -34.973 -28.902 -30.763 -30.262 -26.453 C -32.252 -20.133 -33.952 -13.733 -35.362 -7.263 C -36.542 -1.843 -37.562 3.597 -38.432 9.077 C -39.542 16.037 -40.492 23.027 -41.282 30.037 C -42.092 37.217 -42.772 44.417 -43.312 51.617 C -43.972 60.427 -44.502 69.247 -44.892 78.067 C -45.372 88.837 -45.682 99.607 -45.832 110.387 C -46.012 123.577 -46.022 136.767 -45.872 149.957 C -45.662 168.577 -45.182 187.197 -44.432 205.797 C -43.492 229.247 -42.282 252.677 -40.812 276.097 Z " fill="rgb(212,203,129)" vector-effect="non-scaling-stroke" stroke-width="3" stroke="rgb(208,196,113)" stroke-opacity="100" stroke-linejoin="miter" stroke-linecap="square" stroke-miterlimit="3"/><path d=" M 199.505 281.858 L 198.875 291.838 L 218.835 293.098 L 219.465 283.118 C 220.945 259.548 222.165 235.958 223.105 212.368 C 223.865 193.568 224.345 174.758 224.565 155.948 C 224.715 142.588 224.705 129.238 224.525 115.878 C 224.375 104.898 224.055 93.918 223.565 82.938 C 223.165 73.918 222.625 64.888 221.945 55.878 C 221.385 48.428 220.685 40.978 219.845 33.548 C 219.025 26.248 218.035 18.958 216.885 11.698 C 215.955 5.848 214.855 0.028 213.595 -5.752 C 212.065 -12.812 210.205 -19.802 208.035 -26.702 C 206.415 -31.822 204.475 -36.832 202.225 -41.702 C 199.245 -48.152 195.785 -54.362 191.865 -60.282 C 188.495 -65.382 184.675 -70.152 180.435 -74.552 C 178.495 -76.572 176.465 -78.502 174.345 -80.332 C 172.305 -82.102 170.175 -83.772 167.975 -85.342 C 165.815 -86.882 163.595 -88.312 161.305 -89.632 C 159.025 -90.942 156.695 -92.152 154.305 -93.242 C 151.885 -94.342 149.415 -95.322 146.905 -96.192 C 144.345 -97.072 141.735 -97.832 139.095 -98.482 C 136.355 -99.142 133.585 -99.682 130.785 -100.092 C 127.845 -100.522 124.895 -100.822 121.925 -100.992 C 120.515 -101.072 119.095 -101.122 117.675 -101.152 C 116.205 -101.172 114.735 -101.172 113.275 -101.142 C 108.005 -101.032 102.765 -100.592 97.555 -99.822 C 91.545 -98.932 85.585 -97.722 79.705 -96.192 L 70.025 -93.682 L 75.055 -74.322 L 84.735 -76.832 C 89.925 -78.182 95.185 -79.252 100.485 -80.032 C 104.855 -80.682 109.265 -81.052 113.685 -81.142 C 114.895 -81.172 116.115 -81.172 117.325 -81.152 C 118.475 -81.132 119.635 -81.092 120.785 -81.022 C 123.165 -80.882 125.535 -80.642 127.895 -80.302 C 130.075 -79.982 132.235 -79.562 134.375 -79.042 C 136.405 -78.552 138.415 -77.962 140.395 -77.282 C 142.295 -76.622 144.175 -75.872 146.005 -75.042 C 147.815 -74.212 149.585 -73.302 151.305 -72.312 C 153.045 -71.302 154.735 -70.222 156.375 -69.052 C 158.065 -67.852 159.695 -66.572 161.255 -65.212 C 162.915 -63.782 164.505 -62.272 166.025 -60.682 C 169.425 -57.162 172.485 -53.332 175.185 -49.252 C 178.545 -44.172 181.515 -38.842 184.075 -33.322 C 185.965 -29.212 187.595 -25.002 188.955 -20.692 C 190.945 -14.372 192.645 -7.972 194.055 -1.502 C 195.235 3.918 196.255 9.358 197.125 14.838 C 198.235 21.798 199.185 28.788 199.975 35.798 C 200.785 42.978 201.465 50.178 202.005 57.378 C 202.665 66.188 203.195 75.008 203.585 83.828 C 204.065 94.598 204.375 105.368 204.525 116.148 C 204.705 129.338 204.715 142.528 204.565 155.718 C 204.355 174.338 203.875 192.958 203.125 211.558 C 202.185 235.008 200.975 258.438 199.505 281.858 Z " fill="rgb(212,203,129)" vector-effect="non-scaling-stroke" stroke-width="3" stroke="rgb(208,196,113)" stroke-opacity="100" stroke-linejoin="miter" stroke-linecap="square" stroke-miterlimit="3"/><path d=" M 169.663 275.215 L 169.197 285.204 L 189.175 286.137 L 189.641 276.148 C 190.734 252.556 191.566 228.95 192.119 205.347 C 192.57 186.537 192.741 167.722 192.652 148.911 C 192.583 135.55 192.354 122.202 191.955 108.847 C 191.624 97.871 191.124 86.898 190.454 75.927 C 189.906 66.915 189.218 57.895 188.39 48.898 C 187.708 41.458 186.886 34.02 185.924 26.605 C 184.984 19.319 183.874 12.047 182.606 4.806 C 181.58 -1.027 180.384 -6.829 179.029 -12.587 C 177.384 -19.621 175.409 -26.58 173.126 -33.443 C 171.422 -38.536 169.401 -43.513 167.071 -48.346 C 163.985 -54.746 160.424 -60.898 156.407 -66.753 C 152.954 -71.797 149.056 -76.504 144.745 -80.834 C 142.772 -82.821 140.71 -84.718 138.56 -86.513 C 136.492 -88.249 134.335 -89.884 132.109 -91.418 C 129.924 -92.922 127.681 -94.315 125.37 -95.597 C 123.068 -96.87 120.719 -98.041 118.311 -99.092 Q 115.874 -100.152 92.117 -104.243 C 88.885 -88.34 96.469 -85.052 98.617 -84.567 C 100.655 -84.11 102.674 -83.553 104.665 -82.906 C 106.576 -82.277 108.468 -81.558 110.311 -80.758 C 112.135 -79.958 113.919 -79.077 115.655 -78.116 C 117.412 -77.134 119.119 -76.082 120.778 -74.939 C 122.488 -73.767 124.138 -72.514 125.72 -71.18 C 127.404 -69.777 129.018 -68.294 130.564 -66.729 C 134.022 -63.265 137.144 -59.486 139.911 -55.451 C 143.354 -50.427 146.411 -45.146 149.061 -39.669 C 151.018 -35.59 152.717 -31.408 154.148 -27.121 C 156.241 -20.834 158.046 -14.463 159.562 -8.017 C 160.831 -2.617 161.94 2.805 162.9 8.27 C 164.124 15.211 165.188 22.185 166.093 29.181 C 167.021 36.347 167.819 43.534 168.477 50.725 C 169.282 59.523 169.957 68.333 170.491 77.145 C 171.148 87.906 171.635 98.669 171.962 109.445 C 172.358 122.631 172.585 135.819 172.651 149.009 C 172.747 167.63 172.573 186.256 172.128 204.865 C 171.573 228.328 170.748 251.774 169.663 275.215 Z " fill="rgb(212,203,129)"/><path d=" M 209.406 281.217 L 208.657 291.766 L 232.406 293.098 L 233.155 282.549 C 234.916 257.635 236.368 232.7 237.486 207.765 C 238.391 187.893 238.962 168.011 239.223 148.128 C 239.402 134.007 239.39 119.896 239.176 105.774 C 238.997 94.168 238.617 82.562 238.034 70.956 C 237.558 61.422 236.915 51.877 236.106 42.353 C 235.44 34.478 234.607 26.604 233.607 18.75 C 232.632 11.034 231.454 3.328 230.086 -4.346 C 228.979 -10.529 227.67 -16.681 226.171 -22.791 C 224.351 -30.253 222.138 -37.642 219.556 -44.935 C 217.628 -50.347 215.32 -55.643 212.643 -60.79 C 209.097 -67.608 204.98 -74.172 200.316 -80.429 C 196.306 -85.82 191.761 -90.862 186.716 -95.513 C 184.408 -97.648 181.993 -99.688 179.47 -101.623 C 177.043 -103.494 174.509 -105.259 171.891 -106.918 C 169.321 -108.546 166.68 -110.058 163.955 -111.453 C 161.242 -112.837 158.47 -114.117 155.626 -115.269 C 152.747 -116.431 149.808 -117.467 146.821 -118.387 C 143.776 -119.317 140.67 -120.12 137.529 -120.807 C 134.269 -121.505 130.973 -122.076 127.642 -122.509 C 124.143 -122.964 120.633 -123.281 117.1 -123.46 C 115.422 -123.545 113.732 -123.598 112.043 -123.63 C 110.294 -123.651 108.545 -123.651 106.808 -123.619 C 100.537 -123.503 94.303 -123.038 88.104 -122.224 C 80.953 -121.283 73.861 -120.004 66.865 -118.387 L 55.348 -115.734 L 61.333 -95.27 L 72.85 -97.923 C 79.025 -99.35 85.284 -100.481 91.59 -101.305 C 96.789 -101.993 102.037 -102.384 107.296 -102.479 C 108.735 -102.51 110.187 -102.51 111.626 -102.489 C 112.995 -102.468 114.375 -102.426 115.743 -102.352 C 118.575 -102.204 121.395 -101.95 124.203 -101.591 C 126.797 -101.253 129.367 -100.809 131.913 -100.259 C 134.328 -99.741 136.72 -99.117 139.076 -98.399 C 141.336 -97.701 143.573 -96.908 145.751 -96.031 C 147.904 -95.154 150.01 -94.192 152.057 -93.145 C 154.127 -92.078 156.138 -90.936 158.089 -89.7 C 160.1 -88.431 162.039 -87.078 163.896 -85.641 C 165.871 -84.129 167.762 -82.533 169.571 -80.852 C 173.616 -77.132 177.257 -73.083 180.47 -68.771 C 184.468 -63.401 188.001 -57.767 191.047 -51.932 C 193.296 -47.588 195.236 -43.138 196.854 -38.582 C 199.221 -31.902 201.244 -25.137 202.922 -18.298 C 204.326 -12.569 205.539 -6.819 206.575 -1.027 C 207.895 6.33 209.026 13.719 209.966 21.128 C 210.929 28.718 211.738 36.328 212.381 43.939 C 213.166 53.251 213.797 62.574 214.261 71.897 C 214.832 83.281 215.201 94.665 215.379 106.059 C 215.593 120.001 215.605 133.943 215.427 147.885 C 215.177 167.567 214.606 187.248 213.714 206.909 C 212.595 231.696 211.155 256.462 209.406 281.217 Z " fill="rgb(212,203,129)" vector-effect="non-scaling-stroke" stroke-width="3" stroke="rgb(208,196,113)" stroke-opacity="100" stroke-linejoin="miter" stroke-linecap="square" stroke-miterlimit="3"/><path d=" M 183.077 281.217 L 182.327 291.766 L 206.076 293.098 L 206.826 282.549 C 208.587 257.635 210.038 232.7 211.157 207.765 C 212.061 187.893 212.632 168.011 212.894 148.128 C 213.072 134.007 213.06 119.896 212.846 105.774 C 212.668 94.168 212.287 82.562 211.704 70.956 C 211.228 61.422 210.586 51.877 209.777 42.353 C 209.11 34.478 208.277 26.604 207.278 18.75 C 206.302 11.034 205.124 3.328 203.756 -4.346 C 202.649 -10.529 201.341 -16.681 199.841 -22.791 C 198.021 -30.253 195.808 -37.642 193.226 -44.935 C 191.298 -50.347 188.99 -55.643 186.313 -60.79 C 182.767 -67.608 178.651 -74.172 173.987 -80.429 C 169.977 -85.82 165.432 -90.862 160.387 -95.513 C 158.079 -97.648 155.663 -99.688 153.141 -101.623 C 150.714 -103.494 148.179 -105.259 145.562 -106.918 C 142.992 -108.546 140.35 -110.058 137.625 -111.453 C 134.913 -112.837 132.14 -114.117 129.297 -115.269 C 126.417 -116.431 123.478 -117.467 120.492 -118.387 C 117.446 -119.317 114.341 -120.12 111.199 -120.807 C 107.939 -121.505 104.643 -122.076 101.312 -122.509 C 97.814 -122.964 94.304 -123.281 90.77 -123.46 C 89.093 -123.545 87.403 -123.598 85.713 -123.63 C 83.964 -123.651 82.215 -123.651 80.478 -123.619 C 74.208 -123.503 67.973 -123.038 61.774 -122.224 C 54.623 -121.283 47.532 -120.004 40.536 -118.387 L 29.018 -115.734 L 32.91 -106.02 L 48.128 -104.16 C 54.303 -105.587 58.954 -100.481 65.26 -101.305 C 70.46 -101.993 75.707 -102.384 80.966 -102.479 C 82.406 -102.51 83.857 -102.51 85.297 -102.489 C 86.665 -102.468 88.045 -102.426 89.414 -102.352 C 92.246 -102.204 95.065 -101.95 97.873 -101.591 C 100.467 -101.253 103.037 -100.809 105.583 -100.259 C 107.999 -99.741 110.39 -99.117 112.746 -98.399 C 115.007 -97.701 117.244 -96.908 119.421 -96.031 C 121.575 -95.154 123.681 -94.192 125.727 -93.145 C 127.798 -92.078 129.808 -90.936 131.76 -89.7 C 133.77 -88.431 135.71 -87.078 137.566 -85.641 C 139.541 -84.129 141.433 -82.533 143.241 -80.852 C 147.287 -77.132 150.928 -73.083 154.14 -68.771 C 158.138 -63.401 161.672 -57.767 164.718 -51.932 C 166.967 -47.588 168.906 -43.138 170.524 -38.582 C 172.892 -31.902 174.915 -25.137 176.592 -18.298 C 177.996 -12.569 179.21 -6.819 180.245 -1.027 C 181.566 6.33 182.696 13.719 183.636 21.128 C 184.6 28.718 185.409 36.328 186.051 43.939 C 186.837 53.251 187.467 62.574 187.931 71.897 C 188.502 83.281 188.871 94.665 189.05 106.059 C 189.264 120.001 189.276 133.943 189.097 147.885 C 188.847 167.567 188.276 187.248 187.384 206.909 C 186.266 231.696 184.826 256.462 183.077 281.217 Z " fill="rgb(212,203,129)" vector-effect="non-scaling-stroke" stroke-width="3" stroke="rgb(208,196,113)" stroke-opacity="100" stroke-linejoin="miter" stroke-linecap="square" stroke-miterlimit="3"/><path d=" M -59.406 281.217 L -58.656 291.766 L -82.405 293.098 L -83.155 282.549 C -84.916 257.635 -86.367 232.7 -87.486 207.765 C -88.39 187.893 -88.961 168.011 -89.223 148.128 C -89.401 134.007 -89.389 119.896 -89.175 105.774 C -88.997 94.168 -88.616 82.562 -88.033 70.956 C -87.557 61.422 -86.914 51.877 -86.105 42.353 C -85.439 34.478 -84.606 26.604 -83.607 18.75 C -82.631 11.034 -81.453 3.328 -80.085 -4.346 C -78.978 -10.529 -77.669 -16.681 -76.17 -22.791 C -74.35 -30.253 -72.137 -37.642 -69.555 -44.935 C -67.627 -50.347 -65.319 -55.643 -62.642 -60.79 C -59.096 -67.608 -54.98 -74.172 -50.315 -80.429 C -46.306 -85.82 -41.761 -90.862 -36.716 -95.513 C -34.407 -97.648 -31.992 -99.688 -29.47 -101.623 C -27.042 -103.494 -24.508 -105.259 -21.89 -106.918 C -19.32 -108.546 -16.679 -110.058 -13.954 -111.453 C -11.241 -112.837 -8.469 -114.117 -5.626 -115.269 C -2.746 -116.431 0.193 -117.467 3.179 -118.387 C 6.225 -119.317 9.331 -120.12 12.472 -120.807 C 15.732 -121.505 19.028 -122.076 22.359 -122.509 C 25.857 -122.964 29.367 -123.281 32.901 -123.46 C 34.579 -123.545 36.268 -123.598 37.958 -123.63 C 39.707 -123.651 41.456 -123.651 43.193 -123.619 C 49.463 -123.503 55.698 -123.038 61.897 -122.224 C 69.048 -121.283 76.139 -120.004 83.135 -118.387 L 94.653 -115.734 L 92.018 -106.02 L 77.613 -105.583 L 59.303 -104.243 Q 47.964 -102.384 42.705 -102.479 C 41.266 -102.51 39.814 -102.51 38.374 -102.489 C 37.006 -102.468 35.626 -102.426 34.257 -102.352 C 31.426 -102.204 28.606 -101.95 25.798 -101.591 C 23.204 -101.253 20.634 -100.809 18.088 -100.259 C 15.672 -99.741 13.281 -99.117 10.925 -98.399 C 8.664 -97.701 6.427 -96.908 4.25 -96.031 C 2.096 -95.154 -0.01 -94.192 -2.056 -93.145 C -4.126 -92.078 -6.137 -90.936 -8.089 -89.7 C -10.099 -88.431 -12.039 -87.078 -13.895 -85.641 C -15.87 -84.129 -17.762 -82.533 -19.57 -80.852 C -23.616 -77.132 -27.257 -73.083 -30.469 -68.771 C -34.467 -63.401 -38.001 -57.767 -41.047 -51.932 C -43.295 -47.588 -45.235 -43.138 -46.853 -38.582 C -49.221 -31.902 -51.243 -25.137 -52.921 -18.298 C -54.325 -12.569 -55.539 -6.819 -56.574 -1.027 C -57.895 6.33 -59.025 13.719 -59.965 21.128 C -60.929 28.718 -61.738 36.328 -62.38 43.939 C -63.166 53.251 -63.796 62.574 -64.26 71.897 C -64.831 83.281 -65.2 94.665 -65.379 106.059 C -65.593 120.001 -65.605 133.943 -65.426 147.885 C -65.176 167.567 -64.605 187.248 -63.713 206.909 C -62.594 231.696 -61.155 256.462 -59.406 281.217 Z " fill="rgb(212,203,129)"/><path d=" M -26.719 259.145 L -26.187 268.509 L -43.052 269.692 L -43.584 260.328 C -44.835 238.212 -45.866 216.078 -46.66 193.944 C -47.302 176.305 -47.708 158.656 -47.894 141.007 C -48.02 128.471 -48.012 115.945 -47.86 103.41 C -47.733 93.107 -47.463 82.805 -47.049 72.503 C -46.711 64.039 -46.254 55.567 -45.68 47.113 C -45.207 40.123 -44.615 33.132 -43.905 26.161 C -43.213 19.312 -42.376 12.472 -41.404 5.66 C -40.619 0.171 -39.689 -5.29 -38.624 -10.713 C -37.332 -17.338 -35.76 -23.896 -33.927 -30.37 C -32.558 -35.174 -30.918 -39.875 -29.017 -44.445 C -26.499 -50.496 -23.576 -56.323 -20.264 -61.878 C -17.416 -66.663 -14.188 -71.139 -10.606 -75.267 C -8.967 -77.162 -7.251 -78.973 -5.46 -80.69 C -3.736 -82.351 -1.937 -83.918 -0.078 -85.391 C 1.747 -86.836 3.623 -88.178 5.558 -89.416 C 7.485 -90.645 9.453 -91.781 11.473 -92.803 C 13.518 -93.836 15.605 -94.755 17.725 -95.571 C 19.889 -96.397 22.094 -97.11 24.325 -97.72 C 26.64 -98.339 28.98 -98.846 31.346 -99.231 C 33.83 -99.634 36.323 -99.916 38.832 -100.075 C 40.024 -100.15 41.224 -100.197 42.423 -100.225 C 43.665 -100.244 44.908 -100.244 46.141 -100.216 C 50.594 -100.113 55.022 -99.7 59.424 -98.977 C 64.502 -98.142 69.538 -97.007 74.506 -95.571 L 82.685 -93.216 L 78.435 -75.051 L 70.256 -77.406 C 65.871 -78.673 61.426 -79.677 56.948 -80.409 C 53.256 -81.019 49.529 -81.366 45.795 -81.45 C 44.772 -81.478 43.742 -81.478 42.719 -81.46 C 41.747 -81.441 40.767 -81.403 39.796 -81.338 C 37.785 -81.206 35.782 -80.981 33.788 -80.662 C 31.946 -80.362 30.121 -79.968 28.313 -79.48 C 26.597 -79.02 24.899 -78.467 23.226 -77.829 C 21.621 -77.209 20.032 -76.506 18.486 -75.727 C 16.957 -74.948 15.461 -74.094 14.008 -73.165 C 12.537 -72.218 11.109 -71.204 9.724 -70.106 C 8.296 -68.981 6.918 -67.78 5.6 -66.504 C 4.198 -65.162 2.854 -63.745 1.57 -62.253 C -1.303 -58.95 -3.888 -55.357 -6.17 -51.529 C -9.009 -46.762 -11.518 -41.761 -13.681 -36.582 C -15.278 -32.725 -16.656 -28.775 -17.805 -24.731 C -19.486 -18.801 -20.923 -12.796 -22.114 -6.726 C -23.111 -1.64 -23.973 3.464 -24.708 8.606 C -25.646 15.136 -26.449 21.695 -27.116 28.272 C -27.801 35.009 -28.375 41.765 -28.831 48.52 C -29.389 56.787 -29.837 65.062 -30.166 73.338 C -30.572 83.443 -30.834 93.548 -30.961 103.663 C -31.113 116.039 -31.121 128.415 -30.995 140.791 C -30.817 158.261 -30.412 175.732 -29.778 193.184 C -28.984 215.187 -27.961 237.171 -26.719 259.145 Z " fill="rgb(212,203,129)" vector-effect="non-scaling-stroke" stroke-width="3" stroke="rgb(208,196,113)" stroke-opacity="100" stroke-linejoin="miter" stroke-linecap="square" stroke-miterlimit="3"/></g><path d=" M 22.032 130 Q 56.968 145.058 76.903 145.342 Q 97.929 145.641 134.878 130 Q 101.823 165.338 78.725 165.448 Q 55.438 165.557 22.032 130 Z " fill="rgb(225,118,118)" vector-effect="non-scaling-stroke" stroke-width="1" stroke="rgb(225,118,118)" stroke-opacity="100" stroke-linejoin="miter" stroke-linecap="square" stroke-miterlimit="3"/><path d=" M 44.675 143.922 Q 64.685 149.997 77.152 150.152 Q 90.535 150.321 112.235 143.922 Q 93.66 157.085 77.152 156.778 Q 61.559 156.489 44.675 143.922 Z " fill="rgb(255,255,255)" vector-effect="non-scaling-stroke" stroke-width="0.64" stroke="rgb(255,255,255)" stroke-opacity="100" stroke-linejoin="miter" stroke-linecap="square" stroke-miterlimit="3"/><path d=" M 10 43.678 C 10 26.839 17.826 13.168 27.464 13.168 C 37.103 13.168 44.929 26.839 44.929 43.678 C 44.929 60.518 37.103 74.189 27.464 74.189 C 17.826 74.189 10 60.518 10 43.678 Z " fill="rgb(255,255,255)"/><path d=" M 24.365 40.232 C 24.365 33.623 26.854 28.257 29.92 28.257 C 32.986 28.257 35.475 33.623 35.475 40.232 C 35.475 46.841 32.986 52.207 29.92 52.207 C 26.854 52.207 24.365 46.841 24.365 40.232 Z " fill="rgb(0,0,0)"/><path d=" M 111 43.678 C 111 26.839 118.826 13.168 128.464 13.168 C 138.103 13.168 145.929 26.839 145.929 43.678 C 145.929 60.518 138.103 74.189 128.464 74.189 C 118.826 74.189 111 60.518 111 43.678 Z " fill="rgb(255,255,255)"/><path d=" M 122.91 40.232 C 122.91 33.623 125.399 28.257 128.464 28.257 C 131.53 28.257 134.019 33.623 134.019 40.232 C 134.019 46.841 131.53 52.207 128.464 52.207 C 125.399 52.207 122.91 46.841 122.91 40.232 Z " fill="rgb(0,0,0)"/><path d=" M 74.644 69.846 Q 81.054 77.262 85.644 79.846 Q 89.54 82.04 97.644 83.846 Q 92.202 90.011 88.199 91.846 Q 85.69 92.996 80.644 93.846" fill="none" vector-effect="non-scaling-stroke" stroke-width="3" stroke="rgb(149,132,114)" stroke-opacity="100" stroke-linejoin="miter" stroke-linecap="square" stroke-miterlimit="3"/><path d=" M 101.365 1.963 C 101.365 -1.708 116.687 -10.832 128.057 -10.832 C 139.427 -10.832 155.25 -1.2 155.25 2.471 C 155.25 6.141 139.258 -5.231 127.888 -5.231 C 116.518 -5.231 101.365 5.634 101.365 1.963 Z " fill="rgb(157,140,122)"/><path d=" M 0.664 1.963 C 0.664 -1.708 15.986 -10.832 27.356 -10.832 C 38.726 -10.832 54.549 -1.2 54.549 2.471 C 54.549 6.141 38.557 -5.231 27.187 -5.231 C 15.817 -5.231 0.664 5.634 0.664 1.963 Z " fill="rgb(157,140,122)"/></g></svg>