<?xml version="1.0" standalone="no"?><!-- Generator: Gravit.io --><svg xmlns="http://www.w3.org/2000/svg" xmlns:xlink="http://www.w3.org/1999/xlink" style="isolation:isolate" viewBox="718 -132.528 333.195 431.504" width="333.195" height="431.504"><g id="Group"><g id="Group"><path d=" M 958.074 276.834 L 957.324 287.383 L 981.073 288.715 L 981.823 278.166 C 983.584 253.252 985.035 228.317 986.154 203.382 C 987.058 183.51 987.629 163.628 987.891 143.745 C 988.069 129.624 988.057 115.513 987.843 101.391 C 987.665 89.785 987.284 78.179 986.701 66.573 C 986.225 57.039 985.583 47.494 984.774 37.97 C 984.107 30.095 983.274 22.221 982.275 14.367 C 981.299 6.651 980.121 -1.055 978.753 -8.729 C 977.646 -14.912 976.338 -21.064 974.838 -27.174 C 973.018 -34.636 970.805 -42.025 968.223 -49.318 C 966.295 -54.73 963.987 -60.026 961.31 -65.173 C 957.764 -71.991 953.648 -78.555 948.984 -84.812 C 944.974 -90.203 940.429 -95.245 935.384 -99.896 C 933.076 -102.031 930.66 -104.071 928.138 -106.006 C 925.711 -107.877 923.176 -109.642 920.559 -111.301 C 917.989 -112.929 915.347 -114.441 912.622 -115.836 C 909.91 -117.22 907.137 -118.499 904.294 -119.652 C 901.414 -120.814 898.475 -121.85 895.489 -122.77 C 892.443 -123.7 889.338 -124.503 886.196 -125.19 C 882.936 -125.888 879.64 -126.459 876.309 -126.892 C 872.811 -127.347 869.301 -127.664 865.767 -127.843 C 864.09 -127.928 862.4 -127.981 860.71 -128.013 C 858.961 -128.034 857.212 -128.034 855.475 -128.002 Q 849.205 -127.886 805.77 -111.301 L 810 -99.653 L 821.518 -102.306 C 827.693 -103.733 833.951 -104.864 840.257 -105.688 C 845.457 -106.376 850.704 -106.767 855.963 -106.862 C 857.403 -106.893 858.854 -106.893 860.294 -106.872 C 861.662 -106.851 863.042 -106.809 864.411 -106.735 C 867.243 -106.587 870.062 -106.333 872.87 -105.974 C 875.464 -105.636 878.034 -105.192 880.58 -104.642 C 882.996 -104.124 885.387 -103.5 887.743 -102.782 C 890.004 -102.084 892.241 -101.291 894.418 -100.414 C 896.572 -99.537 898.678 -98.575 900.724 -97.528 C 902.795 -96.461 904.805 -95.319 906.757 -94.083 C 908.767 -92.814 910.707 -91.461 912.563 -90.024 C 914.538 -88.512 916.43 -86.916 918.238 -85.235 C 922.284 -81.515 925.925 -77.466 929.137 -73.154 C 933.135 -67.784 936.669 -62.15 939.715 -56.315 C 941.964 -51.971 943.903 -47.521 945.521 -42.965 C 947.889 -36.285 949.912 -29.52 951.589 -22.681 C 952.993 -16.952 954.207 -11.202 955.242 -5.41 C 956.563 1.947 957.693 9.336 958.633 16.745 C 959.597 24.335 960.406 31.945 961.048 39.556 C 961.834 48.868 962.464 58.191 962.928 67.514 C 963.499 78.898 963.868 90.282 964.047 101.676 C 964.261 115.618 964.273 129.56 964.094 143.502 C 963.844 163.184 963.273 182.865 962.381 202.526 C 961.263 227.313 959.823 252.079 958.074 276.834 Z " fill="rgb(212,203,129)" vector-effect="non-scaling-stroke" stroke-width="3" stroke="rgb(208,196,113)" stroke-opacity="100" stroke-linejoin="miter" stroke-linecap="square" stroke-miterlimit="3"/><path d=" M 806.24 277.475 L 806.87 287.455 L 786.91 288.715 L 786.28 278.735 C 784.8 255.165 783.58 231.575 782.64 207.985 C 781.88 189.185 781.4 170.375 781.18 151.565 C 781.03 138.205 781.04 124.855 781.22 111.495 C 781.37 100.515 781.69 89.535 782.18 78.555 C 782.58 69.535 783.12 60.505 783.8 51.495 C 784.36 44.045 785.06 36.595 785.9 29.165 C 786.72 21.865 787.71 14.575 788.86 7.315 C 789.79 1.465 790.89 -4.355 792.15 -10.135 C 793.68 -17.195 795.54 -24.185 797.71 -31.085 C 799.33 -36.205 801.27 -41.215 803.52 -46.085 C 806.5 -52.535 809.96 -58.745 813.88 -64.665 C 817.25 -69.765 821.07 -74.535 825.31 -78.935 C 827.25 -80.955 829.28 -82.885 831.4 -84.715 C 833.44 -86.485 835.57 -88.155 837.77 -89.725 C 839.93 -91.265 842.15 -92.695 844.44 -94.015 C 846.72 -95.325 849.05 -96.535 851.44 -97.625 C 853.86 -98.725 856.33 -99.705 858.84 -100.575 C 861.4 -101.455 864.01 -102.215 866.65 -102.865 C 869.39 -103.525 872.16 -104.065 874.96 -104.475 C 877.9 -104.905 880.85 -105.205 883.82 -105.375 C 885.23 -105.455 886.65 -105.505 888.07 -105.535 C 889.54 -105.555 891.01 -105.555 892.47 -105.525 C 897.74 -105.415 902.98 -104.975 908.19 -104.205 C 914.2 -103.315 920.16 -102.105 926.04 -100.575 L 935.72 -98.065 L 930.69 -78.705 L 921.01 -81.215 C 915.82 -82.565 910.56 -83.635 905.26 -84.415 C 900.89 -85.065 896.48 -85.435 892.06 -85.525 C 890.85 -85.555 889.63 -85.555 888.42 -85.535 C 887.27 -85.515 886.11 -85.475 884.96 -85.405 C 882.58 -85.265 880.21 -85.025 877.85 -84.685 C 875.67 -84.365 873.51 -83.945 871.37 -83.425 C 869.34 -82.935 867.33 -82.345 865.35 -81.665 C 863.45 -81.005 861.57 -80.255 859.74 -79.425 C 857.93 -78.595 856.16 -77.685 854.44 -76.695 C 852.7 -75.685 851.01 -74.605 849.37 -73.435 C 847.68 -72.235 846.05 -70.955 844.49 -69.595 C 842.83 -68.165 841.24 -66.655 839.72 -65.065 C 836.32 -61.545 833.26 -57.715 830.56 -53.635 C 827.2 -48.555 824.23 -43.225 821.67 -37.705 C 819.78 -33.595 818.15 -29.385 816.79 -25.075 C 814.8 -18.755 813.1 -12.355 811.69 -5.885 C 810.51 -0.465 809.49 4.975 808.62 10.455 C 807.51 17.415 806.56 24.405 805.77 31.415 C 804.96 38.595 804.28 45.795 803.74 52.995 C 803.08 61.805 802.55 70.625 802.16 79.445 C 801.68 90.215 801.37 100.985 801.22 111.765 C 801.04 124.955 801.03 138.145 801.18 151.335 C 801.39 169.955 801.87 188.575 802.62 207.175 C 803.56 230.625 804.77 254.055 806.24 277.475 Z " fill="rgb(212,203,129)" vector-effect="non-scaling-stroke" stroke-width="3" stroke="rgb(208,196,113)" stroke-opacity="100" stroke-linejoin="miter" stroke-linecap="square" stroke-miterlimit="3"/><path d=" M 789.306 276.834 L 790.056 287.383 L 766.307 288.715 L 765.558 278.166 C 763.797 253.252 762.345 228.317 761.227 203.382 C 760.322 183.51 759.751 163.628 759.489 143.745 C 759.311 129.624 759.323 115.513 759.537 101.391 C 759.715 89.785 760.096 78.179 760.679 66.573 C 761.155 57.039 761.798 47.494 762.607 37.97 C 763.273 30.095 764.106 22.221 765.105 14.367 C 766.081 6.651 767.259 -1.055 768.627 -8.729 C 769.734 -14.912 771.043 -21.064 772.542 -27.174 C 774.362 -34.636 776.575 -42.025 779.157 -49.318 C 781.085 -54.73 783.393 -60.026 786.07 -65.173 C 789.616 -71.991 793.733 -78.555 798.397 -84.812 C 802.406 -90.203 806.952 -95.245 811.996 -99.896 C 814.305 -102.031 816.72 -104.071 819.243 -106.006 C 821.67 -107.876 824.204 -109.642 826.822 -111.301 C 829.392 -112.929 832.033 -114.441 834.758 -115.836 C 837.471 -117.22 840.243 -118.499 843.087 -119.652 C 845.966 -120.814 848.905 -121.85 851.891 -122.77 C 854.937 -123.7 858.043 -124.503 861.184 -125.19 C 864.444 -125.888 867.74 -126.459 871.071 -126.892 C 874.569 -127.347 878.079 -127.664 881.613 -127.843 C 883.291 -127.928 884.98 -127.981 886.67 -128.013 C 888.419 -128.034 890.168 -128.034 891.905 -128.002 C 898.176 -127.886 904.41 -127.421 910.609 -126.607 C 917.76 -125.666 924.851 -124.387 931.848 -122.77 L 943.365 -120.117 L 937.38 -99.653 L 925.863 -102.306 C 919.688 -103.733 913.429 -104.864 907.123 -105.688 C 901.923 -106.376 896.676 -106.767 891.417 -106.862 C 889.978 -106.893 888.526 -106.893 887.086 -106.872 C 885.718 -106.851 884.338 -106.809 882.97 -106.735 C 880.138 -106.587 877.318 -106.333 874.51 -105.974 C 871.916 -105.636 869.346 -105.192 866.8 -104.642 C 864.384 -104.124 861.993 -103.5 859.637 -102.782 C 857.376 -102.084 855.14 -101.291 852.962 -100.414 C 850.809 -99.537 848.703 -98.575 846.656 -97.528 C 844.586 -96.461 842.575 -95.319 840.624 -94.082 C 838.613 -92.814 836.673 -91.461 834.817 -90.024 C 832.842 -88.512 830.95 -86.916 829.142 -85.235 C 825.096 -81.515 821.456 -77.466 818.243 -73.154 C 814.245 -67.784 810.711 -62.15 807.665 -56.315 C 805.417 -51.971 803.477 -47.521 801.859 -42.965 C 799.491 -36.285 797.469 -29.52 795.791 -22.681 C 794.387 -16.952 793.173 -11.202 792.138 -5.41 C 790.818 1.947 789.687 9.336 788.747 16.745 C 787.784 24.335 786.974 31.945 786.332 39.556 C 785.547 48.868 784.916 58.191 784.452 67.514 C 783.881 78.898 783.512 90.282 783.334 101.676 C 783.119 115.618 783.108 129.56 783.286 143.502 C 783.536 163.184 784.107 182.865 784.999 202.526 C 786.118 227.313 787.557 252.079 789.306 276.834 Z " fill="rgb(212,203,129)" vector-effect="non-scaling-stroke" stroke-width="3" stroke="rgb(208,196,113)" stroke-opacity="100" stroke-linejoin="miter" stroke-linecap="square" stroke-miterlimit="3"/><path d=" M 815.774 177.939 C 800.035 155.094 772.274 100.085 767.01 57.615 C 754.915 -39.973 820.433 -122.266 886.236 -122.266 C 952.039 -122.266 1008.925 -40.496 998.862 57.615 C 993.371 111.142 961.82 152.931 937.03 187.702 C 913.421 211.523 889.526 212.905 876.804 212.108 C 866.69 211.475 831.514 200.784 815.774 177.939 Z " fill="rgb(242,215,186)"/><path d=" M 766.535 277.475 L 767.165 287.455 L 747.205 288.715 L 746.575 278.735 C 745.095 255.165 743.875 231.575 742.935 207.985 C 742.175 189.185 741.695 170.375 741.475 151.565 C 741.325 138.205 741.335 124.855 741.515 111.495 C 741.665 100.515 741.985 89.535 742.475 78.555 C 742.875 69.535 743.415 60.505 744.095 51.495 C 744.655 44.045 745.355 36.595 746.195 29.165 C 747.015 21.865 748.005 14.575 749.155 7.315 C 750.085 1.465 751.185 -4.355 752.445 -10.135 C 753.975 -17.195 755.835 -24.185 758.005 -31.085 C 759.625 -36.205 761.565 -41.215 763.815 -46.085 C 766.795 -52.535 770.255 -58.745 774.175 -64.665 C 777.545 -69.765 781.365 -74.535 785.605 -78.935 C 787.545 -80.955 789.575 -82.885 791.695 -84.715 C 793.735 -86.485 795.865 -88.155 798.065 -89.725 C 800.225 -91.265 802.445 -92.695 804.735 -94.015 C 807.015 -95.325 809.345 -96.535 811.735 -97.625 C 814.155 -98.725 816.625 -99.705 819.135 -100.575 C 821.695 -101.455 824.305 -102.215 826.945 -102.865 C 829.685 -103.525 832.455 -104.065 835.255 -104.475 C 838.195 -104.905 841.145 -105.205 844.115 -105.375 C 845.525 -105.455 846.945 -105.505 848.365 -105.535 C 849.835 -105.555 851.305 -105.555 852.765 -105.525 C 858.035 -105.415 863.275 -104.975 868.485 -104.205 C 874.495 -103.315 880.455 -102.105 886.335 -100.575 L 896.015 -98.065 L 890.985 -78.705 L 881.305 -81.215 C 876.115 -82.565 870.855 -83.635 865.555 -84.415 C 861.185 -85.065 856.775 -85.435 852.355 -85.525 C 851.145 -85.555 849.925 -85.555 848.715 -85.535 C 847.565 -85.515 846.405 -85.475 845.255 -85.405 C 842.875 -85.265 840.505 -85.025 838.145 -84.685 C 835.965 -84.365 833.805 -83.945 831.665 -83.425 C 829.635 -82.935 827.625 -82.345 825.645 -81.665 C 823.745 -81.005 821.865 -80.255 820.035 -79.425 C 818.225 -78.595 816.455 -77.685 814.735 -76.695 C 812.995 -75.685 811.305 -74.605 809.665 -73.435 C 807.975 -72.235 806.345 -70.955 804.785 -69.595 C 803.125 -68.165 801.535 -66.655 800.015 -65.065 C 796.615 -61.545 793.555 -57.715 790.855 -53.635 C 787.495 -48.555 784.525 -43.225 781.965 -37.705 C 780.075 -33.595 778.445 -29.385 777.085 -25.075 C 775.095 -18.755 773.395 -12.355 771.985 -5.885 C 770.805 -0.465 769.785 4.975 768.915 10.455 C 767.805 17.415 766.855 24.405 766.065 31.415 C 765.255 38.595 764.575 45.795 764.035 52.995 C 763.375 61.805 762.845 70.625 762.455 79.445 C 761.975 90.215 761.665 100.985 761.515 111.765 C 761.335 124.955 761.325 138.145 761.475 151.335 C 761.685 169.955 762.165 188.575 762.915 207.175 C 763.855 230.625 765.065 254.055 766.535 277.475 Z " fill="rgb(212,203,129)" vector-effect="non-scaling-stroke" stroke-width="3" stroke="rgb(208,196,113)" stroke-opacity="100" stroke-linejoin="miter" stroke-linecap="square" stroke-miterlimit="3"/><path d=" M 1006.852 283.236 L 1006.222 293.216 L 1026.182 294.476 L 1026.812 284.496 C 1028.292 260.926 1029.512 237.336 1030.452 213.746 C 1031.212 194.946 1031.692 176.136 1031.912 157.326 C 1032.062 143.966 1032.052 130.616 1031.872 117.256 C 1031.722 106.276 1031.402 95.296 1030.912 84.316 C 1030.512 75.296 1029.972 66.266 1029.292 57.256 C 1028.732 49.806 1028.032 42.356 1027.192 34.926 C 1026.372 27.626 1025.382 20.336 1024.232 13.076 C 1023.302 7.226 1022.202 1.406 1020.942 -4.374 C 1019.412 -11.434 1017.552 -18.424 1015.382 -25.324 C 1013.762 -30.444 1011.822 -35.454 1009.572 -40.324 C 1006.592 -46.774 1003.132 -52.984 999.212 -58.904 C 995.842 -64.004 992.022 -68.774 987.782 -73.174 C 985.842 -75.194 983.812 -77.124 981.692 -78.954 C 979.652 -80.724 977.522 -82.394 975.322 -83.964 C 973.162 -85.504 970.942 -86.934 968.652 -88.254 C 966.372 -89.564 964.042 -90.774 961.652 -91.864 C 959.232 -92.964 956.762 -93.944 954.252 -94.814 C 951.692 -95.694 949.082 -96.454 946.442 -97.104 C 943.702 -97.764 940.932 -98.304 938.132 -98.714 C 935.192 -99.144 932.242 -99.444 929.272 -99.614 C 927.862 -99.694 926.442 -99.744 925.022 -99.774 C 923.552 -99.794 922.082 -99.794 920.622 -99.764 C 915.352 -99.654 910.112 -99.214 904.902 -98.444 C 898.892 -97.554 892.932 -96.344 887.052 -94.814 L 877.372 -92.304 L 882.402 -72.944 L 892.082 -75.454 C 897.272 -76.804 902.532 -77.874 907.832 -78.654 C 912.202 -79.304 916.612 -79.674 921.032 -79.764 C 922.242 -79.794 923.462 -79.794 924.672 -79.774 C 925.822 -79.754 926.982 -79.714 928.132 -79.644 C 930.512 -79.504 932.882 -79.264 935.242 -78.924 C 937.422 -78.604 939.582 -78.184 941.722 -77.664 C 943.752 -77.174 945.762 -76.584 947.742 -75.904 C 949.642 -75.244 951.522 -74.494 953.352 -73.664 C 955.162 -72.834 956.932 -71.924 958.652 -70.934 C 960.392 -69.924 962.082 -68.844 963.722 -67.674 C 965.412 -66.474 967.042 -65.194 968.602 -63.834 C 970.262 -62.404 971.852 -60.894 973.372 -59.304 C 976.772 -55.784 979.832 -51.954 982.532 -47.874 C 985.892 -42.794 988.862 -37.464 991.422 -31.944 C 993.312 -27.834 994.942 -23.624 996.302 -19.314 C 998.292 -12.994 999.992 -6.594 1001.402 -0.124 C 1002.582 5.296 1003.602 10.736 1004.472 16.216 C 1005.582 23.176 1006.532 30.166 1007.322 37.176 C 1008.132 44.356 1008.812 51.556 1009.352 58.756 C 1010.012 67.566 1010.542 76.386 1010.932 85.206 C 1011.412 95.976 1011.722 106.746 1011.872 117.526 C 1012.052 130.716 1012.062 143.906 1011.912 157.096 C 1011.702 175.716 1011.222 194.336 1010.472 212.936 C 1009.532 236.386 1008.322 259.816 1006.852 283.236 Z " fill="rgb(212,203,129)" vector-effect="non-scaling-stroke" stroke-width="3" stroke="rgb(208,196,113)" stroke-opacity="100" stroke-linejoin="miter" stroke-linecap="square" stroke-miterlimit="3"/><path d=" M 977.01 276.593 L 976.544 286.582 L 996.522 287.515 L 996.988 277.526 C 998.081 253.934 998.913 230.328 999.466 206.725 C 999.917 187.915 1000.088 169.1 999.999 150.289 C 999.93 136.928 999.701 123.58 999.302 110.225 C 998.971 99.249 998.471 88.276 997.801 77.305 C 997.253 68.293 996.565 59.273 995.737 50.276 C 995.055 42.836 994.233 35.398 993.271 27.983 C 992.331 20.697 991.221 13.425 989.953 6.184 C 988.927 0.351 987.731 -5.451 986.376 -11.209 C 984.731 -18.243 982.756 -25.202 980.473 -32.065 C 978.769 -37.158 976.748 -42.135 974.418 -46.968 C 971.332 -53.368 967.771 -59.52 963.754 -65.375 C 960.301 -70.419 956.403 -75.126 952.092 -79.456 C 950.119 -81.443 948.057 -83.34 945.907 -85.135 C 943.839 -86.871 941.682 -88.506 939.456 -90.04 C 937.271 -91.544 935.028 -92.937 932.717 -94.219 C 930.415 -95.492 928.066 -96.663 925.658 -97.714 Q 923.221 -98.774 899.464 -102.865 C 896.232 -86.962 903.816 -83.674 905.964 -83.189 C 908.002 -82.732 910.021 -82.175 912.012 -81.528 C 913.923 -80.899 915.815 -80.18 917.658 -79.38 C 919.482 -78.58 921.266 -77.699 923.002 -76.738 C 924.759 -75.756 926.466 -74.704 928.125 -73.561 C 929.835 -72.389 931.485 -71.136 933.067 -69.802 C 934.751 -68.399 936.365 -66.916 937.911 -65.351 C 941.369 -61.887 944.491 -58.108 947.258 -54.073 C 950.701 -49.049 953.758 -43.768 956.408 -38.291 C 958.365 -34.212 960.064 -30.03 961.495 -25.743 C 963.588 -19.456 965.393 -13.085 966.909 -6.639 C 968.178 -1.239 969.287 4.183 970.247 9.648 C 971.471 16.589 972.535 23.563 973.44 30.559 C 974.368 37.725 975.166 44.912 975.824 52.103 C 976.629 60.901 977.304 69.711 977.838 78.523 C 978.495 89.284 978.982 100.047 979.309 110.823 C 979.705 124.009 979.932 137.197 979.998 150.387 C 980.094 169.008 979.92 187.634 979.475 206.243 C 978.92 229.706 978.095 253.152 977.01 276.593 Z " fill="rgb(212,203,129)"/><path d=" M 1016.753 282.595 L 1016.004 293.144 L 1039.753 294.476 L 1040.502 283.927 C 1042.263 259.013 1043.715 234.078 1044.833 209.143 C 1045.738 189.271 1046.309 169.389 1046.57 149.506 C 1046.749 135.385 1046.737 121.274 1046.523 107.152 C 1046.344 95.546 1045.964 83.94 1045.381 72.334 C 1044.905 62.8 1044.262 53.255 1043.453 43.731 C 1042.787 35.856 1041.954 27.982 1040.954 20.128 C 1039.979 12.412 1038.801 4.706 1037.433 -2.968 C 1036.326 -9.151 1035.017 -15.303 1033.518 -21.413 C 1031.698 -28.875 1029.485 -36.264 1026.903 -43.557 C 1024.975 -48.969 1022.667 -54.265 1019.99 -59.412 C 1016.444 -66.23 1012.327 -72.794 1007.663 -79.051 C 1003.653 -84.442 999.108 -89.484 994.063 -94.135 C 991.755 -96.27 989.34 -98.31 986.817 -100.245 C 984.39 -102.116 981.856 -103.881 979.238 -105.54 C 976.668 -107.168 974.027 -108.68 971.302 -110.075 C 968.589 -111.459 965.817 -112.739 962.973 -113.891 C 960.094 -115.053 957.155 -116.089 954.168 -117.009 C 951.123 -117.939 948.017 -118.742 944.876 -119.429 C 941.616 -120.127 938.32 -120.698 934.989 -121.131 C 931.49 -121.586 927.98 -121.903 924.447 -122.082 C 922.769 -122.167 921.079 -122.22 919.39 -122.252 C 917.641 -122.273 915.892 -122.273 914.155 -122.241 C 907.884 -122.125 901.65 -121.66 895.451 -120.846 C 888.3 -119.905 881.208 -118.626 874.212 -117.009 L 862.695 -114.356 L 868.68 -93.892 L 880.197 -96.545 C 886.372 -97.972 892.631 -99.103 898.937 -99.927 C 904.136 -100.615 909.384 -101.006 914.643 -101.101 C 916.082 -101.132 917.534 -101.132 918.973 -101.111 C 920.342 -101.09 921.722 -101.048 923.09 -100.974 C 925.922 -100.826 928.742 -100.572 931.55 -100.213 C 934.144 -99.875 936.714 -99.431 939.26 -98.881 C 941.675 -98.363 944.067 -97.739 946.423 -97.021 C 948.683 -96.323 950.92 -95.53 953.098 -94.653 C 955.251 -93.776 957.357 -92.814 959.404 -91.767 C 961.474 -90.7 963.485 -89.558 965.436 -88.322 C 967.447 -87.053 969.386 -85.7 971.243 -84.263 C 973.218 -82.751 975.109 -81.155 976.918 -79.474 C 980.963 -75.754 984.604 -71.705 987.817 -67.393 C 991.815 -62.023 995.348 -56.389 998.394 -50.554 C 1000.643 -46.21 1002.583 -41.76 1004.201 -37.204 C 1006.568 -30.524 1008.591 -23.759 1010.269 -16.92 C 1011.673 -11.191 1012.886 -5.441 1013.922 0.351 C 1015.242 7.708 1016.373 15.097 1017.313 22.506 C 1018.276 30.096 1019.085 37.706 1019.728 45.317 C 1020.513 54.629 1021.144 63.952 1021.608 73.275 C 1022.179 84.659 1022.548 96.043 1022.726 107.437 C 1022.94 121.379 1022.952 135.321 1022.774 149.263 C 1022.524 168.945 1021.953 188.626 1021.061 208.287 C 1019.942 233.074 1018.502 257.84 1016.753 282.595 Z " fill="rgb(212,203,129)" vector-effect="non-scaling-stroke" stroke-width="3" stroke="rgb(208,196,113)" stroke-opacity="100" stroke-linejoin="miter" stroke-linecap="square" stroke-miterlimit="3"/><path d=" M 990.424 282.595 L 989.674 293.144 L 1013.423 294.476 L 1014.173 283.927 C 1015.934 259.013 1017.385 234.078 1018.504 209.143 C 1019.408 189.271 1019.979 169.389 1020.241 149.506 C 1020.419 135.385 1020.407 121.274 1020.193 107.152 C 1020.015 95.546 1019.634 83.94 1019.051 72.334 C 1018.575 62.8 1017.933 53.255 1017.124 43.731 C 1016.457 35.856 1015.624 27.982 1014.625 20.128 C 1013.649 12.412 1012.471 4.706 1011.103 -2.968 C 1009.996 -9.151 1008.688 -15.303 1007.188 -21.413 C 1005.368 -28.875 1003.155 -36.264 1000.573 -43.557 C 998.645 -48.969 996.337 -54.265 993.66 -59.412 C 990.114 -66.23 985.998 -72.794 981.334 -79.051 C 977.324 -84.442 972.779 -89.484 967.734 -94.135 C 965.426 -96.27 963.01 -98.31 960.488 -100.245 C 958.061 -102.116 955.526 -103.881 952.909 -105.54 C 950.339 -107.168 947.697 -108.68 944.972 -110.075 C 942.26 -111.459 939.487 -112.739 936.644 -113.891 C 933.764 -115.053 930.825 -116.089 927.839 -117.009 C 924.793 -117.939 921.688 -118.742 918.546 -119.429 C 915.286 -120.127 911.99 -120.698 908.659 -121.131 C 905.161 -121.586 901.651 -121.903 898.117 -122.082 C 896.44 -122.167 894.75 -122.22 893.06 -122.252 C 891.311 -122.273 889.562 -122.273 887.825 -122.241 C 881.555 -122.125 875.32 -121.66 869.121 -120.846 C 861.97 -119.905 854.879 -118.626 847.883 -117.009 L 836.365 -114.356 L 840.257 -104.642 L 855.475 -102.782 C 861.65 -104.209 866.301 -99.103 872.607 -99.927 C 877.807 -100.615 883.054 -101.006 888.313 -101.101 C 889.753 -101.132 891.204 -101.132 892.644 -101.111 C 894.012 -101.09 895.392 -101.048 896.761 -100.974 C 899.593 -100.826 902.412 -100.572 905.22 -100.213 C 907.814 -99.875 910.384 -99.431 912.93 -98.881 C 915.346 -98.363 917.737 -97.739 920.093 -97.021 C 922.354 -96.323 924.591 -95.53 926.768 -94.653 C 928.922 -93.776 931.028 -92.814 933.074 -91.767 C 935.145 -90.7 937.155 -89.558 939.107 -88.322 C 941.117 -87.053 943.057 -85.7 944.913 -84.263 C 946.888 -82.751 948.78 -81.155 950.588 -79.474 C 954.634 -75.754 958.275 -71.705 961.487 -67.393 C 965.485 -62.023 969.019 -56.389 972.065 -50.554 C 974.314 -46.21 976.253 -41.76 977.871 -37.204 C 980.239 -30.524 982.262 -23.759 983.939 -16.92 C 985.343 -11.191 986.557 -5.441 987.592 0.351 C 988.913 7.708 990.043 15.097 990.983 22.506 C 991.947 30.096 992.756 37.706 993.398 45.317 C 994.184 54.629 994.814 63.952 995.278 73.275 C 995.849 84.659 996.218 96.043 996.397 107.437 C 996.611 121.379 996.623 135.321 996.444 149.263 C 996.194 168.945 995.623 188.626 994.731 208.287 C 993.613 233.074 992.173 257.84 990.424 282.595 Z " fill="rgb(212,203,129)" vector-effect="non-scaling-stroke" stroke-width="3" stroke="rgb(208,196,113)" stroke-opacity="100" stroke-linejoin="miter" stroke-linecap="square" stroke-miterlimit="3"/><path d=" M 747.941 282.595 L 748.691 293.144 L 724.942 294.476 L 724.192 283.927 C 722.431 259.013 720.98 234.078 719.861 209.143 C 718.957 189.271 718.386 169.389 718.124 149.506 C 717.946 135.385 717.958 121.274 718.172 107.152 C 718.35 95.546 718.731 83.94 719.314 72.334 C 719.79 62.8 720.433 53.255 721.242 43.731 C 721.908 35.856 722.741 27.982 723.74 20.128 C 724.716 12.412 725.894 4.706 727.262 -2.968 C 728.369 -9.151 729.678 -15.303 731.177 -21.413 C 732.997 -28.875 735.21 -36.264 737.792 -43.557 C 739.72 -48.969 742.028 -54.265 744.705 -59.412 C 748.251 -66.23 752.367 -72.794 757.032 -79.051 C 761.041 -84.442 765.586 -89.484 770.631 -94.135 C 772.94 -96.27 775.355 -98.31 777.877 -100.245 C 780.305 -102.116 782.839 -103.881 785.457 -105.54 C 788.027 -107.168 790.668 -108.68 793.393 -110.075 C 796.106 -111.459 798.878 -112.739 801.721 -113.891 C 804.601 -115.053 807.54 -116.089 810.526 -117.009 C 813.572 -117.939 816.678 -118.742 819.819 -119.429 C 823.079 -120.127 826.375 -120.698 829.706 -121.131 C 833.204 -121.586 836.714 -121.903 840.248 -122.082 C 841.926 -122.167 843.615 -122.22 845.305 -122.252 C 847.054 -122.273 848.803 -122.273 850.54 -122.241 C 856.81 -122.125 863.045 -121.66 869.244 -120.846 C 876.395 -119.905 883.486 -118.626 890.482 -117.009 L 902 -114.356 L 899.365 -104.642 L 884.96 -104.205 L 866.65 -102.865 Q 855.311 -101.006 850.052 -101.101 C 848.613 -101.132 847.161 -101.132 845.721 -101.111 C 844.353 -101.09 842.973 -101.048 841.604 -100.974 C 838.773 -100.826 835.953 -100.572 833.145 -100.213 C 830.551 -99.875 827.981 -99.431 825.435 -98.881 C 823.019 -98.363 820.628 -97.739 818.272 -97.021 C 816.011 -96.323 813.774 -95.53 811.597 -94.653 C 809.443 -93.776 807.337 -92.814 805.291 -91.767 C 803.221 -90.7 801.21 -89.558 799.258 -88.322 C 797.248 -87.053 795.308 -85.7 793.452 -84.263 C 791.477 -82.751 789.585 -81.155 787.777 -79.474 C 783.731 -75.754 780.09 -71.705 776.878 -67.393 C 772.88 -62.023 769.346 -56.389 766.3 -50.554 C 764.052 -46.21 762.112 -41.76 760.494 -37.204 C 758.126 -30.524 756.104 -23.759 754.426 -16.92 C 753.022 -11.191 751.808 -5.441 750.773 0.351 C 749.452 7.708 748.322 15.097 747.382 22.506 C 746.418 30.096 745.609 37.706 744.967 45.317 C 744.181 54.629 743.551 63.952 743.087 73.275 C 742.516 84.659 742.147 96.043 741.968 107.437 C 741.754 121.379 741.742 135.321 741.921 149.263 C 742.171 168.945 742.742 188.626 743.634 208.287 C 744.753 233.074 746.192 257.84 747.941 282.595 Z " fill="rgb(212,203,129)"/><path d=" M 780.628 260.523 L 781.16 269.887 L 764.295 271.07 L 763.763 261.706 C 762.512 239.59 761.481 217.456 760.687 195.322 C 760.045 177.683 759.639 160.034 759.453 142.385 C 759.327 129.849 759.335 117.323 759.487 104.788 C 759.614 94.485 759.884 84.183 760.298 73.881 C 760.636 65.417 761.093 56.945 761.667 48.491 C 762.14 41.501 762.732 34.51 763.442 27.539 C 764.134 20.69 764.971 13.85 765.943 7.038 C 766.728 1.549 767.658 -3.912 768.723 -9.335 C 770.015 -15.96 771.587 -22.518 773.42 -28.992 C 774.789 -33.796 776.429 -38.497 778.33 -43.067 C 780.848 -49.118 783.771 -54.945 787.083 -60.5 C 789.931 -65.285 793.159 -69.761 796.741 -73.889 C 798.38 -75.784 800.096 -77.595 801.887 -79.312 C 803.611 -80.973 805.41 -82.54 807.269 -84.013 C 809.094 -85.458 810.97 -86.8 812.905 -88.038 C 814.832 -89.267 816.8 -90.403 818.82 -91.425 C 820.865 -92.458 822.952 -93.377 825.072 -94.193 C 827.236 -95.019 829.441 -95.732 831.672 -96.342 C 833.987 -96.961 836.327 -97.468 838.693 -97.853 C 841.177 -98.256 843.67 -98.538 846.179 -98.697 C 847.371 -98.772 848.571 -98.819 849.77 -98.847 C 851.012 -98.866 852.255 -98.866 853.488 -98.838 C 857.941 -98.735 862.369 -98.322 866.771 -97.599 C 871.849 -96.764 876.885 -95.629 881.853 -94.193 L 890.032 -91.838 L 885.782 -73.673 L 877.603 -76.028 C 873.218 -77.295 868.773 -78.299 864.295 -79.031 C 860.603 -79.641 856.876 -79.988 853.142 -80.072 C 852.119 -80.1 851.089 -80.1 850.066 -80.082 C 849.094 -80.063 848.114 -80.025 847.143 -79.96 C 845.132 -79.828 843.129 -79.603 841.135 -79.284 C 839.293 -78.984 837.468 -78.59 835.66 -78.102 C 833.944 -77.642 832.246 -77.089 830.573 -76.451 C 828.968 -75.831 827.379 -75.128 825.833 -74.349 C 824.304 -73.57 822.808 -72.716 821.355 -71.787 C 819.884 -70.84 818.456 -69.826 817.071 -68.728 C 815.643 -67.603 814.265 -66.402 812.947 -65.126 C 811.545 -63.784 810.201 -62.367 808.917 -60.875 C 806.044 -57.572 803.459 -53.979 801.177 -50.151 C 798.338 -45.384 795.829 -40.383 793.666 -35.204 C 792.069 -31.347 790.691 -27.397 789.542 -23.353 C 787.861 -17.423 786.424 -11.418 785.233 -5.348 C 784.236 -0.262 783.374 4.842 782.639 9.984 C 781.701 16.514 780.898 23.073 780.231 29.65 C 779.546 36.387 778.972 43.143 778.516 49.898 C 777.958 58.165 777.51 66.44 777.181 74.716 C 776.775 84.821 776.513 94.926 776.386 105.041 C 776.234 117.417 776.226 129.793 776.352 142.169 C 776.53 159.639 776.935 177.11 777.569 194.562 C 778.363 216.565 779.386 238.549 780.628 260.523 Z " fill="rgb(212,203,129)" vector-effect="non-scaling-stroke" stroke-width="3" stroke="rgb(208,196,113)" stroke-opacity="100" stroke-linejoin="miter" stroke-linecap="square" stroke-miterlimit="3"/></g><g id="Group"><g id="Group"><path d=" M 924.852 96.582 C 924.852 84.23 935.711 74.202 949.087 74.202 C 962.462 74.202 973.321 84.23 973.321 96.582 C 973.321 108.934 962.462 118.962 949.087 118.962 C 935.711 118.962 924.852 108.934 924.852 96.582 Z " fill="rgb(244,140,227)" fill-opacity="0.1"/><path d=" M 920.506 98.942 C 920.506 83.935 933.312 71.752 949.087 71.752 C 964.861 71.752 977.668 83.935 977.668 98.942 C 977.668 113.949 964.861 126.132 949.087 126.132 C 933.312 126.132 920.506 113.949 920.506 98.942 Z " fill="rgb(244,140,227)" fill-opacity="0.1"/><path d=" M 783.288 95.821 C 783.288 80.814 796.095 68.631 811.869 68.631 C 827.643 68.631 840.45 80.814 840.45 95.821 C 840.45 110.828 827.643 123.011 811.869 123.011 C 796.095 123.011 783.288 110.828 783.288 95.821 Z " fill="rgb(244,140,227)" fill-opacity="0.1"/><path d=" M 934.296 96.582 C 934.296 88.562 940.923 82.05 949.087 82.05 C 957.25 82.05 963.877 88.562 963.877 96.582 C 963.877 104.602 957.25 111.114 949.087 111.114 C 940.923 111.114 934.296 104.602 934.296 96.582 Z " fill="rgb(255,137,206)" fill-opacity="0.1"/><path d=" M 787.635 95.821 C 787.635 83.469 798.494 73.441 811.869 73.441 C 825.245 73.441 836.104 83.469 836.104 95.821 C 836.104 108.173 825.245 118.202 811.869 118.202 C 798.494 118.202 787.635 108.173 787.635 95.821 Z " fill="rgb(244,140,227)" fill-opacity="0.1"/><path d=" M 792.576 95.821 C 792.576 84.345 801.221 75.028 811.869 75.028 C 822.517 75.028 831.162 84.345 831.162 95.821 C 831.162 107.297 822.517 116.614 811.869 116.614 C 801.221 116.614 792.576 107.297 792.576 95.821 Z " fill="rgb(244,140,227)" fill-opacity="0.1"/><path d=" M 795.939 96.582 C 795.939 88.79 803.077 82.464 811.869 82.464 C 820.662 82.464 827.8 88.79 827.8 96.582 C 827.8 104.374 820.662 110.7 811.869 110.7 C 803.077 110.7 795.939 104.374 795.939 96.582 Z " fill="rgb(255,137,206)" fill-opacity="0.1"/><path d=" M 803.739 95.821 C 803.739 91.925 807.308 88.762 811.704 88.762 C 816.101 88.762 819.67 91.925 819.67 95.821 C 819.67 99.717 816.101 102.88 811.704 102.88 C 807.308 102.88 803.739 99.717 803.739 95.821 Z " fill="rgb(255,137,206)" fill-opacity="0.1"/><path d=" M 943.104 96.582 C 943.104 92.686 946.673 89.523 951.069 89.523 C 955.466 89.523 959.035 92.686 959.035 96.582 C 959.035 100.478 955.466 103.641 951.069 103.641 C 946.673 103.641 943.104 100.478 943.104 96.582 Z " fill="rgb(255,137,206)" fill-opacity="0.1"/><path d=" M 819.67 134.518 Q 855.156 149.049 875.405 149.323 Q 896.762 149.612 934.293 134.518 Q 900.717 168.619 877.256 168.725 Q 853.602 168.831 819.67 134.518 Z " fill="rgb(225,118,118)" vector-effect="non-scaling-stroke" stroke-width="1" stroke="rgb(225,118,118)" stroke-opacity="10000" stroke-linejoin="miter" stroke-linecap="square" stroke-miterlimit="3"/><path d=" M 839.999 147.955 Q 862.14 154.518 875.935 154.686 Q 890.744 154.868 914.755 147.955 Q 894.202 162.176 875.935 161.845 Q 858.681 161.532 839.999 147.955 Z " fill="rgb(255,255,255)" vector-effect="non-scaling-stroke" stroke-width="0.64" stroke="rgb(255,255,255)" stroke-opacity="10000" stroke-linejoin="miter" stroke-linecap="square" stroke-miterlimit="3"/><path d=" M 798.634 39.086 C 798.634 31.567 814.75 12.879 826.709 12.879 C 838.668 12.879 855.311 32.607 855.311 40.126 C 855.311 47.644 838.49 24.351 826.531 24.351 C 814.572 24.351 798.634 46.605 798.634 39.086 Z " fill="rgb(42,41,41)"/><path d=" M 898.913 42.577 C 898.913 35.058 915.028 16.37 926.987 16.37 C 938.946 16.37 955.589 36.098 955.589 43.616 C 955.589 51.135 938.768 27.842 926.809 27.842 C 914.85 27.842 898.913 50.096 898.913 42.577 Z " fill="rgb(42,41,41)"/><path d=" M 873.278 82.725 Q 879.688 90.141 884.278 92.725 Q 888.174 94.919 896.278 96.725 Q 890.836 102.89 886.833 104.725 Q 884.324 105.875 879.278 106.725" fill="none" vector-effect="non-scaling-stroke" stroke-width="3" stroke="rgb(149,132,114)" stroke-opacity="10000" stroke-linejoin="miter" stroke-linecap="square" stroke-miterlimit="3"/></g><path d=" M 835.918 73.689 C 835.918 70.857 838.068 68.557 840.718 68.557 C 843.367 68.557 845.518 70.857 845.518 73.689 C 845.518 76.521 843.367 78.821 840.718 78.821 C 838.068 78.821 835.918 76.521 835.918 73.689 Z " fill="rgb(168,0,0)" fill-opacity="0.8"/><path d=" M 800.522 116.003 C 800.522 113.171 802.673 110.871 805.322 110.871 C 807.972 110.871 810.122 113.171 810.122 116.003 C 810.122 118.835 807.972 121.135 805.322 121.135 C 802.673 121.135 800.522 118.835 800.522 116.003 Z " fill="rgb(168,0,0)" fill-opacity="0.8"/><path d=" M 826.318 105.739 C 826.318 102.907 828.468 100.607 831.118 100.607 C 833.767 100.607 835.918 102.907 835.918 105.739 C 835.918 108.571 833.767 110.871 831.118 110.871 C 828.468 110.871 826.318 108.571 826.318 105.739 Z " fill="rgb(168,0,0)" fill-opacity="0.8"/><path d=" M 948.9 100.607 C 948.9 97.774 951.051 95.475 953.7 95.475 C 956.349 95.475 958.5 97.774 958.5 100.607 C 958.5 103.439 956.349 105.739 953.7 105.739 C 951.051 105.739 948.9 103.439 948.9 100.607 Z " fill="rgb(168,0,0)" fill-opacity="0.8"/><path d=" M 927.918 85.67 C 927.918 82.838 930.068 80.538 932.718 80.538 C 935.367 80.538 937.518 82.838 937.518 85.67 C 937.518 88.502 935.367 90.802 932.718 90.802 C 930.068 90.802 927.918 88.502 927.918 85.67 Z " fill="rgb(168,0,0)" fill-opacity="0.8"/><path d=" M 953.7 75.406 C 953.7 72.573 955.851 70.274 958.5 70.274 C 961.149 70.274 963.3 72.573 963.3 75.406 C 963.3 78.238 961.149 80.538 958.5 80.538 C 955.851 80.538 953.7 78.238 953.7 75.406 Z " fill="rgb(168,0,0)" fill-opacity="0.8"/><path d=" M 805.322 79.45 C 805.322 76.618 807.473 74.318 810.122 74.318 C 812.772 74.318 814.922 76.618 814.922 79.45 C 814.922 82.282 812.772 84.582 810.122 84.582 C 807.473 84.582 805.322 82.282 805.322 79.45 Z " fill="rgb(168,0,0)" fill-opacity="0.8"/><path d=" M 872.311 -22.935 C 872.311 -25.768 874.462 -28.067 877.111 -28.067 C 879.76 -28.067 881.911 -25.768 881.911 -22.935 C 881.911 -20.103 879.76 -17.803 877.111 -17.803 C 874.462 -17.803 872.311 -20.103 872.311 -22.935 Z " fill="rgb(168,0,0)" fill-opacity="0.8"/><path d=" M 901.739 0.66 C 901.739 -2.172 903.89 -4.472 906.539 -4.472 C 909.188 -4.472 911.339 -2.172 911.339 0.66 C 911.339 3.492 909.188 5.792 906.539 5.792 C 903.89 5.792 901.739 3.492 901.739 0.66 Z " fill="rgb(168,0,0)" fill-opacity="0.8"/><path d=" M 821.704 -9.604 C 821.704 -12.436 823.855 -14.736 826.504 -14.736 C 829.153 -14.736 831.304 -12.436 831.304 -9.604 C 831.304 -6.772 829.153 -4.472 826.504 -4.472 C 823.855 -4.472 821.704 -6.772 821.704 -9.604 Z " fill="rgb(168,0,0)" fill-opacity="0.8"/><path d=" M 840.904 -48.49 C 840.904 -51.323 843.055 -53.622 845.704 -53.622 C 848.353 -53.622 850.504 -51.323 850.504 -48.49 C 850.504 -45.658 848.353 -43.358 845.704 -43.358 C 843.055 -43.358 840.904 -45.658 840.904 -48.49 Z " fill="rgb(168,0,0)" fill-opacity="0.8"/><path d=" M 918.504 -43.358 C 918.504 -46.191 920.655 -48.49 923.304 -48.49 C 925.953 -48.49 928.104 -46.191 928.104 -43.358 C 928.104 -40.526 925.953 -38.226 923.304 -38.226 C 920.655 -38.226 918.504 -40.526 918.504 -43.358 Z " fill="rgb(168,0,0)" fill-opacity="0.8"/><path d=" M 831.118 181.714 C 831.118 178.882 833.268 176.582 835.918 176.582 C 838.567 176.582 840.718 178.882 840.718 181.714 C 840.718 184.546 838.567 186.846 835.918 186.846 C 833.268 186.846 831.118 184.546 831.118 181.714 Z " fill="rgb(168,0,0)"/><path d=" M 884.971 198.932 C 884.971 196.099 887.122 193.8 889.771 193.8 C 892.421 193.8 894.571 196.099 894.571 198.932 C 894.571 201.764 892.421 204.064 889.771 204.064 C 887.122 204.064 884.971 201.764 884.971 198.932 Z " fill="rgb(168,0,0)" fill-opacity="0.8"/></g></g></svg>