<?xml version="1.0" standalone="no"?><!-- Generator: Gravit.io --><svg xmlns="http://www.w3.org/2000/svg" xmlns:xlink="http://www.w3.org/1999/xlink" style="isolation:isolate" viewBox="177 292.326 333.195 431.503" width="333.195" height="431.503"><g id="Group"><path d=" M 417.074 701.687 L 416.324 712.236 L 440.073 713.568 L 440.823 703.019 C 442.584 678.105 444.035 653.17 445.154 628.235 C 446.058 608.363 446.629 588.481 446.891 568.598 C 447.069 554.477 447.057 540.366 446.843 526.244 C 446.665 514.638 446.284 503.032 445.701 491.426 C 445.225 481.892 444.583 472.347 443.774 462.823 C 443.107 454.948 442.274 447.074 441.275 439.22 C 440.299 431.504 439.121 423.798 437.753 416.124 C 436.646 409.941 435.338 403.789 433.838 397.679 C 432.018 390.217 429.805 382.828 427.223 375.535 C 425.295 370.123 422.987 364.827 420.31 359.68 C 416.764 352.862 412.648 346.298 407.984 340.041 C 403.974 334.65 399.429 329.608 394.384 324.957 C 392.076 322.822 389.66 320.782 387.138 318.847 C 384.711 316.976 382.176 315.211 379.559 313.552 C 376.989 311.924 374.347 310.412 371.622 309.017 C 368.91 307.633 366.137 306.354 363.294 305.201 C 360.414 304.039 357.475 303.003 354.489 302.083 C 351.443 301.153 348.338 300.35 345.196 299.663 C 341.936 298.965 338.64 298.394 335.309 297.961 C 331.811 297.506 328.301 297.189 324.767 297.01 C 323.09 296.925 321.4 296.872 319.71 296.84 C 317.961 296.819 316.212 296.819 314.475 296.851 Q 308.205 296.967 264.77 313.552 L 269 325.2 L 280.518 322.547 C 286.693 321.12 292.951 319.989 299.257 319.165 C 304.457 318.477 309.704 318.086 314.963 317.991 C 316.403 317.96 317.854 317.96 319.294 317.981 C 320.662 318.002 322.042 318.044 323.411 318.118 C 326.243 318.266 329.062 318.52 331.87 318.879 C 334.464 319.217 337.034 319.661 339.58 320.211 C 341.996 320.729 344.387 321.353 346.743 322.071 C 349.004 322.769 351.241 323.562 353.418 324.439 C 355.572 325.316 357.678 326.278 359.724 327.325 C 361.795 328.392 363.805 329.534 365.757 330.77 C 367.767 332.039 369.707 333.392 371.563 334.829 C 373.538 336.341 375.43 337.937 377.238 339.618 C 381.284 343.338 384.925 347.387 388.137 351.699 C 392.135 357.069 395.669 362.703 398.715 368.538 C 400.964 372.882 402.903 377.332 404.521 381.888 C 406.889 388.568 408.912 395.333 410.589 402.172 C 411.993 407.901 413.207 413.651 414.242 419.443 C 415.563 426.8 416.693 434.189 417.633 441.598 C 418.597 449.188 419.406 456.798 420.048 464.409 C 420.834 473.721 421.464 483.044 421.928 492.367 C 422.499 503.751 422.868 515.135 423.047 526.529 C 423.261 540.471 423.273 554.413 423.094 568.355 C 422.844 588.037 422.273 607.718 421.381 627.379 C 420.263 652.166 418.823 676.932 417.074 701.687 Z " fill="rgb(212,203,129)" vector-effect="non-scaling-stroke" stroke-width="3" stroke="rgb(208,196,113)" stroke-linejoin="miter" stroke-linecap="square" stroke-miterlimit="3"/><path d=" M 265.24 702.328 L 265.87 712.308 L 245.91 713.568 L 245.28 703.588 C 243.8 680.018 242.58 656.428 241.64 632.838 C 240.88 614.038 240.4 595.228 240.18 576.418 C 240.03 563.058 240.04 549.708 240.22 536.348 C 240.37 525.368 240.69 514.388 241.18 503.408 C 241.58 494.388 242.12 485.358 242.8 476.348 C 243.36 468.898 244.06 461.448 244.9 454.018 C 245.72 446.718 246.71 439.428 247.86 432.168 C 248.79 426.318 249.89 420.498 251.15 414.718 C 252.68 407.658 254.54 400.668 256.71 393.768 C 258.33 388.648 260.27 383.638 262.52 378.768 C 265.5 372.318 268.96 366.108 272.88 360.188 C 276.25 355.088 280.07 350.318 284.31 345.918 C 286.25 343.898 288.28 341.968 290.4 340.138 C 292.44 338.368 294.57 336.698 296.77 335.128 C 298.93 333.588 301.15 332.158 303.44 330.838 C 305.72 329.528 308.05 328.318 310.44 327.228 C 312.86 326.128 315.33 325.148 317.84 324.278 C 320.4 323.398 323.01 322.638 325.65 321.988 C 328.39 321.328 331.16 320.788 333.96 320.378 C 336.9 319.948 339.85 319.648 342.82 319.478 C 344.23 319.398 345.65 319.348 347.07 319.318 C 348.54 319.298 350.01 319.298 351.47 319.328 C 356.74 319.438 361.98 319.878 367.19 320.648 C 373.2 321.538 379.16 322.748 385.04 324.278 L 394.72 326.788 L 389.69 346.148 L 380.01 343.638 C 374.82 342.288 369.56 341.218 364.26 340.438 C 359.89 339.788 355.48 339.418 351.06 339.328 C 349.85 339.298 348.63 339.298 347.42 339.318 C 346.27 339.338 345.11 339.378 343.96 339.448 C 341.58 339.588 339.21 339.828 336.85 340.168 C 334.67 340.488 332.51 340.908 330.37 341.428 C 328.34 341.918 326.33 342.508 324.35 343.188 C 322.45 343.848 320.57 344.598 318.74 345.428 C 316.93 346.258 315.16 347.168 313.44 348.158 C 311.7 349.168 310.01 350.248 308.37 351.418 C 306.68 352.618 305.05 353.898 303.49 355.258 C 301.83 356.688 300.24 358.198 298.72 359.788 C 295.32 363.308 292.26 367.138 289.56 371.218 C 286.2 376.298 283.23 381.628 280.67 387.148 C 278.78 391.258 277.15 395.468 275.79 399.778 C 273.8 406.098 272.1 412.498 270.69 418.968 C 269.51 424.388 268.49 429.828 267.62 435.308 C 266.51 442.268 265.56 449.258 264.77 456.268 C 263.96 463.448 263.28 470.648 262.74 477.848 C 262.08 486.658 261.55 495.478 261.16 504.298 C 260.68 515.068 260.37 525.838 260.22 536.618 C 260.04 549.808 260.03 562.998 260.18 576.188 C 260.39 594.808 260.87 613.428 261.62 632.028 C 262.56 655.478 263.77 678.908 265.24 702.328 Z " fill="rgb(212,203,129)" vector-effect="non-scaling-stroke" stroke-width="3" stroke="rgb(208,196,113)" stroke-linejoin="miter" stroke-linecap="square" stroke-miterlimit="3"/><path d=" M 248.306 701.687 L 249.056 712.236 L 225.307 713.568 L 224.558 703.019 C 222.797 678.105 221.345 653.17 220.227 628.235 C 219.322 608.363 218.751 588.481 218.489 568.598 C 218.311 554.477 218.323 540.366 218.537 526.244 C 218.715 514.638 219.096 503.032 219.679 491.426 C 220.155 481.892 220.798 472.347 221.607 462.823 C 222.273 454.948 223.106 447.074 224.105 439.22 C 225.081 431.504 226.259 423.798 227.627 416.124 C 228.734 409.941 230.043 403.789 231.542 397.679 C 233.362 390.217 235.575 382.828 238.157 375.535 C 240.085 370.123 242.393 364.827 245.07 359.68 C 248.616 352.862 252.733 346.298 257.397 340.041 C 261.406 334.65 265.952 329.608 270.996 324.957 C 273.305 322.822 275.72 320.782 278.243 318.847 C 280.67 316.977 283.204 315.211 285.822 313.552 C 288.392 311.924 291.033 310.412 293.758 309.017 C 296.471 307.633 299.243 306.354 302.087 305.201 C 304.966 304.039 307.905 303.003 310.891 302.083 C 313.937 301.153 317.043 300.35 320.184 299.663 C 323.444 298.965 326.74 298.394 330.071 297.961 C 333.569 297.506 337.079 297.189 340.613 297.01 C 342.291 296.925 343.98 296.872 345.67 296.84 C 347.419 296.819 349.168 296.819 350.905 296.851 C 357.176 296.967 363.41 297.432 369.609 298.246 C 376.76 299.187 383.851 300.466 390.848 302.083 L 402.365 304.736 L 396.38 325.2 L 384.863 322.547 C 378.688 321.12 372.429 319.989 366.123 319.165 C 360.923 318.477 355.676 318.086 350.417 317.991 C 348.978 317.96 347.526 317.96 346.086 317.981 C 344.718 318.002 343.338 318.044 341.97 318.118 C 339.138 318.266 336.318 318.52 333.51 318.879 C 330.916 319.217 328.346 319.661 325.8 320.211 C 323.384 320.729 320.993 321.353 318.637 322.071 C 316.376 322.769 314.14 323.562 311.962 324.439 C 309.809 325.316 307.703 326.278 305.656 327.325 C 303.586 328.392 301.575 329.534 299.624 330.771 C 297.613 332.039 295.673 333.392 293.817 334.829 C 291.842 336.341 289.95 337.937 288.142 339.618 C 284.096 343.338 280.456 347.387 277.243 351.699 C 273.245 357.069 269.711 362.703 266.665 368.538 C 264.417 372.882 262.477 377.332 260.859 381.888 C 258.491 388.568 256.469 395.333 254.791 402.172 C 253.387 407.901 252.173 413.651 251.138 419.443 C 249.818 426.8 248.687 434.189 247.747 441.598 C 246.784 449.188 245.974 456.798 245.332 464.409 C 244.547 473.721 243.916 483.044 243.452 492.367 C 242.881 503.751 242.512 515.135 242.334 526.529 C 242.119 540.471 242.108 554.413 242.286 568.355 C 242.536 588.037 243.107 607.718 243.999 627.379 C 245.118 652.166 246.557 676.932 248.306 701.687 Z " fill="rgb(212,203,129)" vector-effect="non-scaling-stroke" stroke-width="3" stroke="rgb(208,196,113)" stroke-linejoin="miter" stroke-linecap="square" stroke-miterlimit="3"/><path d=" M 274.774 602.792 C 259.035 579.947 231.274 524.938 226.01 482.468 C 213.915 384.88 279.433 302.587 345.236 302.587 C 411.039 302.587 467.925 384.357 457.862 482.468 C 452.371 535.995 420.82 577.784 396.03 612.555 C 372.421 636.376 348.526 637.758 335.804 636.961 C 325.69 636.328 290.514 625.637 274.774 602.792 Z " fill="rgb(242,215,186)"/><path d=" M 225.535 702.328 L 226.165 712.308 L 206.205 713.568 L 205.575 703.588 C 204.095 680.018 202.875 656.428 201.935 632.838 C 201.175 614.038 200.695 595.228 200.475 576.418 C 200.325 563.058 200.335 549.708 200.515 536.348 C 200.665 525.368 200.985 514.388 201.475 503.408 C 201.875 494.388 202.415 485.358 203.095 476.348 C 203.655 468.898 204.355 461.448 205.195 454.018 C 206.015 446.718 207.005 439.428 208.155 432.168 C 209.085 426.318 210.185 420.498 211.445 414.718 C 212.975 407.658 214.835 400.668 217.005 393.768 C 218.625 388.648 220.565 383.638 222.815 378.768 C 225.795 372.318 229.255 366.108 233.175 360.188 C 236.545 355.088 240.365 350.318 244.605 345.918 C 246.545 343.898 248.575 341.968 250.695 340.138 C 252.735 338.368 254.865 336.698 257.065 335.128 C 259.225 333.588 261.445 332.158 263.735 330.838 C 266.015 329.528 268.345 328.318 270.735 327.228 C 273.155 326.128 275.625 325.148 278.135 324.278 C 280.695 323.398 283.305 322.638 285.945 321.988 C 288.685 321.328 291.455 320.788 294.255 320.378 C 297.195 319.948 300.145 319.648 303.115 319.478 C 304.525 319.398 305.945 319.348 307.365 319.318 C 308.835 319.298 310.305 319.298 311.765 319.328 C 317.035 319.438 322.275 319.878 327.485 320.648 C 333.495 321.538 339.455 322.748 345.335 324.278 L 355.015 326.788 L 349.985 346.148 L 340.305 343.638 C 335.115 342.288 329.855 341.218 324.555 340.438 C 320.185 339.788 315.775 339.418 311.355 339.328 C 310.145 339.298 308.925 339.298 307.715 339.318 C 306.565 339.338 305.405 339.378 304.255 339.448 C 301.875 339.588 299.505 339.828 297.145 340.168 C 294.965 340.488 292.805 340.908 290.665 341.428 C 288.635 341.918 286.625 342.508 284.645 343.188 C 282.745 343.848 280.865 344.598 279.035 345.428 C 277.225 346.258 275.455 347.168 273.735 348.158 C 271.995 349.168 270.305 350.248 268.665 351.418 C 266.975 352.618 265.345 353.898 263.785 355.258 C 262.125 356.688 260.535 358.198 259.015 359.788 C 255.615 363.308 252.555 367.138 249.855 371.218 C 246.495 376.298 243.525 381.628 240.965 387.148 C 239.075 391.258 237.445 395.468 236.085 399.778 C 234.095 406.098 232.395 412.498 230.985 418.968 C 229.805 424.388 228.785 429.828 227.915 435.308 C 226.805 442.268 225.855 449.258 225.065 456.268 C 224.255 463.448 223.575 470.648 223.035 477.848 C 222.375 486.658 221.845 495.478 221.455 504.298 C 220.975 515.068 220.665 525.838 220.515 536.618 C 220.335 549.808 220.325 562.998 220.475 576.188 C 220.685 594.808 221.165 613.428 221.915 632.028 C 222.855 655.478 224.065 678.908 225.535 702.328 Z " fill="rgb(212,203,129)" vector-effect="non-scaling-stroke" stroke-width="3" stroke="rgb(208,196,113)" stroke-linejoin="miter" stroke-linecap="square" stroke-miterlimit="3"/><path d=" M 465.852 708.089 L 465.222 718.069 L 485.182 719.329 L 485.812 709.349 C 487.292 685.779 488.512 662.189 489.452 638.599 C 490.212 619.799 490.692 600.989 490.912 582.179 C 491.062 568.819 491.052 555.469 490.872 542.109 C 490.722 531.129 490.402 520.149 489.912 509.169 C 489.512 500.149 488.972 491.119 488.292 482.109 C 487.732 474.659 487.032 467.209 486.192 459.779 C 485.372 452.479 484.382 445.189 483.232 437.929 C 482.302 432.079 481.202 426.259 479.942 420.479 C 478.412 413.419 476.552 406.429 474.382 399.529 C 472.762 394.409 470.822 389.399 468.572 384.529 C 465.592 378.079 462.132 371.869 458.212 365.949 C 454.842 360.849 451.022 356.079 446.782 351.679 C 444.842 349.659 442.812 347.729 440.692 345.899 C 438.652 344.129 436.522 342.459 434.322 340.889 C 432.162 339.349 429.942 337.919 427.652 336.599 C 425.372 335.289 423.042 334.079 420.652 332.989 C 418.232 331.889 415.762 330.909 413.252 330.039 C 410.692 329.159 408.082 328.399 405.442 327.749 C 402.702 327.089 399.932 326.549 397.132 326.139 C 394.192 325.709 391.242 325.409 388.272 325.239 C 386.862 325.159 385.442 325.109 384.022 325.079 C 382.552 325.059 381.082 325.059 379.622 325.089 C 374.352 325.199 369.112 325.639 363.902 326.409 C 357.892 327.299 351.932 328.509 346.052 330.039 L 336.372 332.549 L 341.402 351.909 L 351.082 349.399 C 356.272 348.049 361.532 346.979 366.832 346.199 C 371.202 345.549 375.612 345.179 380.032 345.089 C 381.242 345.059 382.462 345.059 383.672 345.079 C 384.822 345.099 385.982 345.139 387.132 345.209 C 389.512 345.349 391.882 345.589 394.242 345.929 C 396.422 346.249 398.582 346.669 400.722 347.189 C 402.752 347.679 404.762 348.269 406.742 348.949 C 408.642 349.609 410.522 350.359 412.352 351.189 C 414.162 352.019 415.932 352.929 417.652 353.919 C 419.392 354.929 421.082 356.009 422.722 357.179 C 424.412 358.379 426.042 359.659 427.602 361.019 C 429.262 362.449 430.852 363.959 432.372 365.549 C 435.772 369.069 438.832 372.899 441.532 376.979 C 444.892 382.059 447.862 387.389 450.422 392.909 C 452.312 397.019 453.942 401.229 455.302 405.539 C 457.292 411.859 458.992 418.259 460.402 424.729 C 461.582 430.149 462.602 435.589 463.472 441.069 C 464.582 448.029 465.532 455.019 466.322 462.029 C 467.132 469.209 467.812 476.409 468.352 483.609 C 469.012 492.419 469.542 501.239 469.932 510.059 C 470.412 520.829 470.722 531.599 470.872 542.379 C 471.052 555.569 471.062 568.759 470.912 581.949 C 470.702 600.569 470.222 619.189 469.472 637.789 C 468.532 661.239 467.322 684.669 465.852 708.089 Z " fill="rgb(212,203,129)" vector-effect="non-scaling-stroke" stroke-width="3" stroke="rgb(208,196,113)" stroke-linejoin="miter" stroke-linecap="square" stroke-miterlimit="3"/><path d=" M 436.01 701.446 L 435.544 711.435 L 455.522 712.368 L 455.988 702.379 C 457.081 678.787 457.913 655.181 458.466 631.578 C 458.917 612.768 459.088 593.953 458.999 575.142 C 458.93 561.781 458.701 548.433 458.302 535.078 C 457.971 524.102 457.471 513.129 456.801 502.158 C 456.253 493.146 455.565 484.126 454.737 475.129 C 454.055 467.689 453.233 460.251 452.271 452.836 C 451.331 445.55 450.221 438.278 448.953 431.037 C 447.927 425.204 446.731 419.402 445.376 413.644 C 443.731 406.61 441.756 399.651 439.473 392.788 C 437.769 387.695 435.748 382.718 433.418 377.885 C 430.332 371.485 426.771 365.333 422.754 359.478 C 419.301 354.434 415.403 349.727 411.092 345.397 C 409.119 343.41 407.057 341.513 404.907 339.718 C 402.839 337.982 400.682 336.347 398.456 334.813 C 396.271 333.309 394.028 331.916 391.717 330.634 C 389.415 329.361 387.066 328.19 384.658 327.139 Q 382.221 326.079 358.464 321.988 C 355.232 337.891 362.816 341.179 364.964 341.664 C 367.002 342.121 369.021 342.678 371.012 343.325 C 372.923 343.954 374.815 344.673 376.658 345.473 C 378.482 346.273 380.266 347.154 382.002 348.115 C 383.759 349.097 385.466 350.149 387.125 351.292 C 388.835 352.464 390.485 353.717 392.067 355.051 C 393.751 356.454 395.365 357.937 396.911 359.502 C 400.369 362.966 403.491 366.745 406.258 370.78 C 409.701 375.804 412.758 381.085 415.408 386.562 C 417.365 390.641 419.064 394.823 420.495 399.11 C 422.588 405.397 424.393 411.768 425.909 418.214 C 427.178 423.614 428.287 429.036 429.247 434.501 C 430.471 441.442 431.535 448.416 432.44 455.412 C 433.368 462.578 434.166 469.765 434.824 476.956 C 435.629 485.754 436.304 494.564 436.838 503.376 C 437.495 514.137 437.982 524.9 438.309 535.676 C 438.705 548.862 438.932 562.05 438.998 575.24 C 439.094 593.861 438.92 612.487 438.475 631.096 C 437.92 654.559 437.095 678.005 436.01 701.446 Z " fill="rgb(212,203,129)"/><path d=" M 475.753 707.448 L 475.004 717.997 L 498.753 719.329 L 499.502 708.78 C 501.263 683.866 502.715 658.931 503.833 633.996 C 504.738 614.124 505.309 594.242 505.57 574.359 C 505.749 560.238 505.737 546.127 505.523 532.005 C 505.344 520.399 504.964 508.793 504.381 497.187 C 503.905 487.653 503.262 478.108 502.453 468.584 C 501.787 460.709 500.954 452.835 499.954 444.981 C 498.979 437.265 497.801 429.559 496.433 421.885 C 495.326 415.702 494.017 409.55 492.518 403.44 C 490.698 395.978 488.485 388.589 485.903 381.296 C 483.975 375.884 481.667 370.588 478.99 365.441 C 475.444 358.623 471.327 352.059 466.663 345.802 C 462.653 340.411 458.108 335.369 453.063 330.718 C 450.755 328.583 448.34 326.543 445.817 324.608 C 443.39 322.737 440.856 320.972 438.238 319.313 C 435.668 317.685 433.027 316.173 430.302 314.778 C 427.589 313.394 424.817 312.114 421.973 310.962 C 419.094 309.8 416.155 308.764 413.168 307.844 C 410.123 306.914 407.017 306.111 403.876 305.424 C 400.616 304.726 397.32 304.155 393.989 303.722 C 390.49 303.267 386.98 302.95 383.447 302.771 C 381.769 302.686 380.079 302.633 378.39 302.601 C 376.641 302.58 374.892 302.58 373.155 302.612 C 366.884 302.728 360.65 303.193 354.451 304.007 C 347.3 304.948 340.208 306.227 333.212 307.844 L 321.695 310.497 L 327.68 330.961 L 339.197 328.308 C 345.372 326.881 351.631 325.75 357.937 324.926 C 363.136 324.238 368.384 323.847 373.643 323.752 C 375.082 323.721 376.534 323.721 377.973 323.742 C 379.342 323.763 380.722 323.805 382.09 323.879 C 384.922 324.027 387.742 324.281 390.55 324.64 C 393.144 324.978 395.714 325.422 398.26 325.972 C 400.675 326.49 403.067 327.114 405.423 327.832 C 407.683 328.53 409.92 329.323 412.098 330.2 C 414.251 331.077 416.357 332.039 418.404 333.086 C 420.474 334.153 422.485 335.295 424.436 336.531 C 426.447 337.8 428.386 339.153 430.243 340.59 C 432.218 342.102 434.109 343.698 435.918 345.379 C 439.963 349.099 443.604 353.148 446.817 357.46 C 450.815 362.83 454.348 368.464 457.394 374.299 C 459.643 378.643 461.583 383.093 463.201 387.649 C 465.568 394.329 467.591 401.094 469.269 407.933 C 470.673 413.662 471.886 419.412 472.922 425.204 C 474.242 432.561 475.373 439.95 476.313 447.359 C 477.276 454.949 478.085 462.559 478.728 470.17 C 479.513 479.482 480.144 488.805 480.608 498.128 C 481.179 509.512 481.548 520.896 481.726 532.29 C 481.94 546.232 481.952 560.174 481.774 574.116 C 481.524 593.798 480.953 613.479 480.061 633.14 C 478.942 657.927 477.502 682.693 475.753 707.448 Z " fill="rgb(212,203,129)" vector-effect="non-scaling-stroke" stroke-width="3" stroke="rgb(208,196,113)" stroke-linejoin="miter" stroke-linecap="square" stroke-miterlimit="3"/><path d=" M 449.424 707.448 L 448.674 717.997 L 472.423 719.329 L 473.173 708.78 C 474.934 683.866 476.385 658.931 477.504 633.996 C 478.408 614.124 478.979 594.242 479.241 574.359 C 479.419 560.238 479.407 546.127 479.193 532.005 C 479.015 520.399 478.634 508.793 478.051 497.187 C 477.575 487.653 476.933 478.108 476.124 468.584 C 475.457 460.709 474.624 452.835 473.625 444.981 C 472.649 437.265 471.471 429.559 470.103 421.885 C 468.996 415.702 467.688 409.55 466.188 403.44 C 464.368 395.978 462.155 388.589 459.573 381.296 C 457.645 375.884 455.337 370.588 452.66 365.441 C 449.114 358.623 444.998 352.059 440.334 345.802 C 436.324 340.411 431.779 335.369 426.734 330.718 C 424.426 328.583 422.01 326.543 419.488 324.608 C 417.061 322.737 414.526 320.972 411.909 319.313 C 409.339 317.685 406.697 316.173 403.972 314.778 C 401.26 313.394 398.487 312.114 395.644 310.962 C 392.764 309.8 389.825 308.764 386.839 307.844 C 383.793 306.914 380.688 306.111 377.546 305.424 C 374.286 304.726 370.99 304.155 367.659 303.722 C 364.161 303.267 360.651 302.95 357.117 302.771 C 355.44 302.686 353.75 302.633 352.06 302.601 C 350.311 302.58 348.562 302.58 346.825 302.612 C 340.555 302.728 334.32 303.193 328.121 304.007 C 320.97 304.948 313.879 306.227 306.883 307.844 L 295.365 310.497 L 299.257 320.211 L 314.475 322.071 C 320.65 320.644 325.301 325.75 331.607 324.926 C 336.807 324.238 342.054 323.847 347.313 323.752 C 348.753 323.721 350.204 323.721 351.644 323.742 C 353.012 323.763 354.392 323.805 355.761 323.879 C 358.593 324.027 361.412 324.281 364.22 324.64 C 366.814 324.978 369.384 325.422 371.93 325.972 C 374.346 326.49 376.737 327.114 379.093 327.832 C 381.354 328.53 383.591 329.323 385.768 330.2 C 387.922 331.077 390.028 332.039 392.074 333.086 C 394.145 334.153 396.155 335.295 398.107 336.531 C 400.117 337.8 402.057 339.153 403.913 340.59 C 405.888 342.102 407.78 343.698 409.588 345.379 C 413.634 349.099 417.275 353.148 420.487 357.46 C 424.485 362.83 428.019 368.464 431.065 374.299 C 433.314 378.643 435.253 383.093 436.871 387.649 C 439.239 394.329 441.262 401.094 442.939 407.933 C 444.343 413.662 445.557 419.412 446.592 425.204 C 447.913 432.561 449.043 439.95 449.983 447.359 C 450.947 454.949 451.756 462.559 452.398 470.17 C 453.184 479.482 453.814 488.805 454.278 498.128 C 454.849 509.512 455.218 520.896 455.397 532.29 C 455.611 546.232 455.623 560.174 455.444 574.116 C 455.194 593.798 454.623 613.479 453.731 633.14 C 452.613 657.927 451.173 682.693 449.424 707.448 Z " fill="rgb(212,203,129)" vector-effect="non-scaling-stroke" stroke-width="3" stroke="rgb(208,196,113)" stroke-linejoin="miter" stroke-linecap="square" stroke-miterlimit="3"/><path d=" M 206.941 707.448 L 207.691 717.997 L 183.942 719.329 L 183.192 708.78 C 181.431 683.866 179.98 658.931 178.861 633.996 C 177.957 614.124 177.386 594.242 177.124 574.359 C 176.946 560.238 176.958 546.127 177.172 532.005 C 177.35 520.399 177.731 508.793 178.314 497.187 C 178.79 487.653 179.433 478.108 180.242 468.584 C 180.908 460.709 181.741 452.835 182.74 444.981 C 183.716 437.265 184.894 429.559 186.262 421.885 C 187.369 415.702 188.678 409.55 190.177 403.44 C 191.997 395.978 194.21 388.589 196.792 381.296 C 198.72 375.884 201.028 370.588 203.705 365.441 C 207.251 358.623 211.367 352.059 216.032 345.802 C 220.041 340.411 224.586 335.369 229.631 330.718 C 231.94 328.583 234.355 326.543 236.877 324.608 C 239.305 322.737 241.839 320.972 244.457 319.313 C 247.027 317.685 249.668 316.173 252.393 314.778 C 255.106 313.394 257.878 312.114 260.721 310.962 C 263.601 309.8 266.54 308.764 269.526 307.844 C 272.572 306.914 275.678 306.111 278.819 305.424 C 282.079 304.726 285.375 304.155 288.706 303.722 C 292.204 303.267 295.714 302.95 299.248 302.771 C 300.926 302.686 302.615 302.633 304.305 302.601 C 306.054 302.58 307.803 302.58 309.54 302.612 C 315.81 302.728 322.045 303.193 328.244 304.007 C 335.395 304.948 342.486 306.227 349.482 307.844 L 361 310.497 L 358.365 320.211 L 343.96 320.648 L 325.65 321.988 Q 314.311 323.847 309.052 323.752 C 307.613 323.721 306.161 323.721 304.721 323.742 C 303.353 323.763 301.973 323.805 300.604 323.879 C 297.773 324.027 294.953 324.281 292.145 324.64 C 289.551 324.978 286.981 325.422 284.435 325.972 C 282.019 326.49 279.628 327.114 277.272 327.832 C 275.011 328.53 272.774 329.323 270.597 330.2 C 268.443 331.077 266.337 332.039 264.291 333.086 C 262.221 334.153 260.21 335.295 258.258 336.531 C 256.248 337.8 254.308 339.153 252.452 340.59 C 250.477 342.102 248.585 343.698 246.777 345.379 C 242.731 349.099 239.09 353.148 235.878 357.46 C 231.88 362.83 228.346 368.464 225.3 374.299 C 223.052 378.643 221.112 383.093 219.494 387.649 C 217.126 394.329 215.104 401.094 213.426 407.933 C 212.022 413.662 210.808 419.412 209.773 425.204 C 208.452 432.561 207.322 439.95 206.382 447.359 C 205.418 454.949 204.609 462.559 203.967 470.17 C 203.181 479.482 202.551 488.805 202.087 498.128 C 201.516 509.512 201.147 520.896 200.968 532.29 C 200.754 546.232 200.742 560.174 200.921 574.116 C 201.171 593.798 201.742 613.479 202.634 633.14 C 203.753 657.927 205.192 682.693 206.941 707.448 Z " fill="rgb(212,203,129)"/><path d=" M 239.628 685.376 L 240.16 694.74 L 223.295 695.923 L 222.763 686.559 C 221.512 664.443 220.481 642.309 219.687 620.175 C 219.045 602.536 218.639 584.887 218.453 567.238 C 218.327 554.702 218.335 542.176 218.487 529.641 C 218.614 519.338 218.884 509.036 219.298 498.734 C 219.636 490.27 220.093 481.798 220.667 473.344 C 221.14 466.354 221.732 459.363 222.442 452.392 C 223.134 445.543 223.971 438.703 224.943 431.891 C 225.728 426.402 226.658 420.941 227.723 415.518 C 229.015 408.893 230.587 402.335 232.42 395.861 C 233.789 391.057 235.429 386.356 237.33 381.786 C 239.848 375.735 242.771 369.908 246.083 364.353 C 248.931 359.568 252.159 355.092 255.741 350.964 C 257.38 349.069 259.096 347.258 260.887 345.541 C 262.611 343.88 264.41 342.313 266.269 340.84 C 268.094 339.395 269.97 338.053 271.905 336.815 C 273.832 335.586 275.8 334.45 277.82 333.428 C 279.865 332.395 281.952 331.476 284.072 330.66 C 286.236 329.834 288.441 329.121 290.672 328.511 C 292.987 327.892 295.327 327.385 297.693 327 C 300.177 326.597 302.67 326.315 305.179 326.156 C 306.371 326.081 307.571 326.034 308.77 326.006 C 310.012 325.987 311.255 325.987 312.488 326.015 C 316.941 326.118 321.369 326.531 325.771 327.254 C 330.849 328.089 335.885 329.224 340.853 330.66 L 349.032 333.015 L 344.782 351.18 L 336.603 348.825 C 332.218 347.558 327.773 346.554 323.295 345.822 C 319.603 345.212 315.876 344.865 312.142 344.781 C 311.119 344.753 310.089 344.753 309.066 344.771 C 308.094 344.79 307.114 344.828 306.143 344.893 C 304.132 345.025 302.129 345.25 300.135 345.569 C 298.293 345.869 296.468 346.263 294.66 346.751 C 292.944 347.211 291.246 347.764 289.573 348.402 C 287.968 349.022 286.379 349.725 284.833 350.504 C 283.304 351.283 281.808 352.137 280.355 353.066 C 278.884 354.013 277.456 355.027 276.071 356.125 C 274.643 357.25 273.265 358.451 271.947 359.727 C 270.545 361.069 269.201 362.486 267.917 363.978 C 265.044 367.281 262.459 370.874 260.177 374.702 C 257.338 379.469 254.829 384.47 252.666 389.649 C 251.069 393.506 249.691 397.456 248.542 401.5 C 246.861 407.43 245.424 413.435 244.233 419.505 C 243.236 424.591 242.374 429.695 241.639 434.837 C 240.701 441.367 239.898 447.926 239.231 454.503 C 238.546 461.24 237.972 467.996 237.516 474.751 C 236.958 483.018 236.51 491.293 236.181 499.569 C 235.775 509.674 235.513 519.779 235.386 529.894 C 235.234 542.27 235.226 554.646 235.352 567.022 C 235.53 584.492 235.935 601.963 236.569 619.415 C 237.363 641.418 238.386 663.402 239.628 685.376 Z " fill="rgb(212,203,129)" vector-effect="non-scaling-stroke" stroke-width="3" stroke="rgb(208,196,113)" stroke-linejoin="miter" stroke-linecap="square" stroke-miterlimit="3"/></g></svg>