<?xml version="1.0" standalone="no"?><!-- Generator: Gravit.io --><svg xmlns="http://www.w3.org/2000/svg" xmlns:xlink="http://www.w3.org/1999/xlink" style="isolation:isolate" viewBox="615.356 430.154 156.955 157.346" width="156.955" height="157.346"><g id="Smiling_ClosedEyesExpression"><path d=" M 690 500 Q 696.41 507.416 701 510 Q 704.896 512.194 713 514 Q 707.558 520.165 703.555 522 Q 701.046 523.15 696 524" fill="none" vector-effect="non-scaling-stroke" stroke-width="3" stroke="rgb(149,132,114)" stroke-linejoin="miter" stroke-linecap="square" stroke-miterlimit="3"/><path d=" M 636.392 551.793 Q 671.878 566.324 692.127 566.598 Q 713.484 566.887 751.015 551.793 Q 717.439 585.894 693.978 586 Q 670.324 586.106 636.392 551.793 Z " fill="rgb(225,118,118)" vector-effect="non-scaling-stroke" stroke-width="1" stroke="rgb(225,118,118)" stroke-linejoin="miter" stroke-linecap="square" stroke-miterlimit="3"/><path d=" M 656.721 565.23 Q 678.862 571.793 692.657 571.961 Q 707.466 572.143 731.477 565.23 Q 710.924 579.451 692.657 579.12 Q 675.403 578.807 656.721 565.23 Z " fill="rgb(255,255,255)" vector-effect="non-scaling-stroke" stroke-width="0.64" stroke="rgb(255,255,255)" stroke-linejoin="miter" stroke-linecap="square" stroke-miterlimit="3"/><path d=" M 615.356 456.361 C 615.356 448.842 631.472 430.154 643.431 430.154 C 655.39 430.154 672.033 449.882 672.033 457.401 C 672.033 464.919 655.212 441.626 643.253 441.626 C 631.294 441.626 615.356 463.88 615.356 456.361 Z " fill="rgb(42,41,41)"/><path d=" M 715.635 459.852 C 715.635 452.333 731.75 433.645 743.709 433.645 C 755.668 433.645 772.311 453.373 772.311 460.891 C 772.311 468.41 755.49 445.117 743.531 445.117 C 731.572 445.117 715.635 467.371 715.635 459.852 Z " fill="rgb(42,41,41)"/></g></svg>