<?xml version="1.0" standalone="no"?><!-- Generator: Gravit.io --><svg xmlns="http://www.w3.org/2000/svg" xmlns:xlink="http://www.w3.org/1999/xlink" style="isolation:isolate" viewBox="597.184 361.796 194.379 257.686" width="194.379" height="257.686"><g id="Group"><g id="Group"><path d=" M 738.748 512 C 738.748 499.648 749.607 489.62 762.983 489.62 C 776.358 489.62 787.217 499.648 787.217 512 C 787.217 524.352 776.358 534.38 762.983 534.38 C 749.607 534.38 738.748 524.352 738.748 512 Z " fill="rgb(244,140,227)" fill-opacity="0.1"/><path d=" M 734.402 514.36 C 734.402 499.353 747.208 487.17 762.983 487.17 C 778.757 487.17 791.564 499.353 791.564 514.36 C 791.564 529.367 778.757 541.55 762.983 541.55 C 747.208 541.55 734.402 529.367 734.402 514.36 Z " fill="rgb(244,140,227)" fill-opacity="0.1"/><path d=" M 597.184 511.239 C 597.184 496.232 609.991 484.049 625.765 484.049 C 641.539 484.049 654.346 496.232 654.346 511.239 C 654.346 526.246 641.539 538.429 625.765 538.429 C 609.991 538.429 597.184 526.246 597.184 511.239 Z " fill="rgb(244,140,227)" fill-opacity="0.1"/><path d=" M 748.192 512 C 748.192 503.98 754.819 497.468 762.983 497.468 C 771.146 497.468 777.773 503.98 777.773 512 C 777.773 520.02 771.146 526.532 762.983 526.532 C 754.819 526.532 748.192 520.02 748.192 512 Z " fill="rgb(255,137,206)" fill-opacity="0.1"/><path d=" M 601.531 511.239 C 601.531 498.887 612.39 488.859 625.765 488.859 C 639.141 488.859 650 498.887 650 511.239 C 650 523.591 639.141 533.62 625.765 533.62 C 612.39 533.62 601.531 523.591 601.531 511.239 Z " fill="rgb(244,140,227)" fill-opacity="0.1"/><path d=" M 606.472 511.239 C 606.472 499.763 615.117 490.446 625.765 490.446 C 636.413 490.446 645.058 499.763 645.058 511.239 C 645.058 522.715 636.413 532.032 625.765 532.032 C 615.117 532.032 606.472 522.715 606.472 511.239 Z " fill="rgb(244,140,227)" fill-opacity="0.1"/><path d=" M 609.835 512 C 609.835 504.208 616.973 497.882 625.765 497.882 C 634.558 497.882 641.696 504.208 641.696 512 C 641.696 519.792 634.558 526.118 625.765 526.118 C 616.973 526.118 609.835 519.792 609.835 512 Z " fill="rgb(255,137,206)" fill-opacity="0.1"/><path d=" M 617.635 511.239 C 617.635 507.343 621.204 504.18 625.6 504.18 C 629.997 504.18 633.566 507.343 633.566 511.239 C 633.566 515.135 629.997 518.298 625.6 518.298 C 621.204 518.298 617.635 515.135 617.635 511.239 Z " fill="rgb(255,137,206)" fill-opacity="0.1"/><path d=" M 757 512 C 757 508.104 760.569 504.941 764.965 504.941 C 769.362 504.941 772.931 508.104 772.931 512 C 772.931 515.896 769.362 519.059 764.965 519.059 C 760.569 519.059 757 515.896 757 512 Z " fill="rgb(255,137,206)" fill-opacity="0.1"/><path d=" M 633.566 549.936 Q 669.052 564.467 689.301 564.741 Q 710.658 565.03 748.189 549.936 Q 714.613 584.037 691.152 584.143 Q 667.498 584.249 633.566 549.936 Z " fill="rgb(225,118,118)" vector-effect="non-scaling-stroke" stroke-width="1" stroke="rgb(225,118,118)" stroke-opacity="100" stroke-linejoin="miter" stroke-linecap="square" stroke-miterlimit="3"/><path d=" M 653.895 563.373 Q 676.036 569.936 689.831 570.104 Q 704.64 570.286 728.651 563.373 Q 708.098 577.594 689.831 577.263 Q 672.577 576.95 653.895 563.373 Z " fill="rgb(255,255,255)" vector-effect="non-scaling-stroke" stroke-width="0.64" stroke="rgb(255,255,255)" stroke-opacity="100" stroke-linejoin="miter" stroke-linecap="square" stroke-miterlimit="3"/><path d=" M 612.53 454.504 C 612.53 446.985 628.646 428.297 640.605 428.297 C 652.564 428.297 669.207 448.025 669.207 455.544 C 669.207 463.062 652.386 439.769 640.427 439.769 C 628.468 439.769 612.53 462.023 612.53 454.504 Z " fill="rgb(42,41,41)"/><path d=" M 712.809 457.995 C 712.809 450.476 728.924 431.788 740.883 431.788 C 752.842 431.788 769.485 451.516 769.485 459.034 C 769.485 466.553 752.664 443.26 740.705 443.26 C 728.746 443.26 712.809 465.514 712.809 457.995 Z " fill="rgb(42,41,41)"/><path d=" M 687.174 498.143 Q 693.584 505.559 698.174 508.143 Q 702.07 510.337 710.174 512.143 Q 704.732 518.308 700.729 520.143 Q 698.22 521.293 693.174 522.143" fill="none" vector-effect="non-scaling-stroke" stroke-width="3" stroke="rgb(149,132,114)" stroke-opacity="100" stroke-linejoin="miter" stroke-linecap="square" stroke-miterlimit="3"/></g><path d=" M 649.814 489.107 C 649.814 486.275 651.964 483.975 654.614 483.975 C 657.263 483.975 659.414 486.275 659.414 489.107 C 659.414 491.939 657.263 494.239 654.614 494.239 C 651.964 494.239 649.814 491.939 649.814 489.107 Z " fill="rgb(168,0,0)" fill-opacity="0.8"/><path d=" M 614.418 531.421 C 614.418 528.589 616.569 526.289 619.218 526.289 C 621.868 526.289 624.018 528.589 624.018 531.421 C 624.018 534.253 621.868 536.553 619.218 536.553 C 616.569 536.553 614.418 534.253 614.418 531.421 Z " fill="rgb(168,0,0)" fill-opacity="0.8"/><path d=" M 640.214 521.157 C 640.214 518.325 642.364 516.025 645.014 516.025 C 647.663 516.025 649.814 518.325 649.814 521.157 C 649.814 523.989 647.663 526.289 645.014 526.289 C 642.364 526.289 640.214 523.989 640.214 521.157 Z " fill="rgb(168,0,0)" fill-opacity="0.8"/><path d=" M 762.796 516.025 C 762.796 513.192 764.947 510.893 767.596 510.893 C 770.245 510.893 772.396 513.192 772.396 516.025 C 772.396 518.857 770.245 521.157 767.596 521.157 C 764.947 521.157 762.796 518.857 762.796 516.025 Z " fill="rgb(168,0,0)" fill-opacity="0.8"/><path d=" M 741.814 501.088 C 741.814 498.256 743.964 495.956 746.614 495.956 C 749.263 495.956 751.414 498.256 751.414 501.088 C 751.414 503.92 749.263 506.22 746.614 506.22 C 743.964 506.22 741.814 503.92 741.814 501.088 Z " fill="rgb(168,0,0)" fill-opacity="0.8"/><path d=" M 767.596 490.824 C 767.596 487.991 769.747 485.692 772.396 485.692 C 775.045 485.692 777.196 487.991 777.196 490.824 C 777.196 493.656 775.045 495.956 772.396 495.956 C 769.747 495.956 767.596 493.656 767.596 490.824 Z " fill="rgb(168,0,0)" fill-opacity="0.8"/><path d=" M 619.218 494.868 C 619.218 492.036 621.369 489.736 624.018 489.736 C 626.668 489.736 628.818 492.036 628.818 494.868 C 628.818 497.7 626.668 500 624.018 500 C 621.369 500 619.218 497.7 619.218 494.868 Z " fill="rgb(168,0,0)" fill-opacity="0.8"/><path d=" M 686.207 392.483 C 686.207 389.65 688.358 387.351 691.007 387.351 C 693.656 387.351 695.807 389.65 695.807 392.483 C 695.807 395.315 693.656 397.615 691.007 397.615 C 688.358 397.615 686.207 395.315 686.207 392.483 Z " fill="rgb(168,0,0)" fill-opacity="0.8"/><path d=" M 715.635 416.078 C 715.635 413.246 717.786 410.946 720.435 410.946 C 723.084 410.946 725.235 413.246 725.235 416.078 C 725.235 418.91 723.084 421.21 720.435 421.21 C 717.786 421.21 715.635 418.91 715.635 416.078 Z " fill="rgb(168,0,0)" fill-opacity="0.8"/><path d=" M 635.6 405.814 C 635.6 402.982 637.751 400.682 640.4 400.682 C 643.049 400.682 645.2 402.982 645.2 405.814 C 645.2 408.646 643.049 410.946 640.4 410.946 C 637.751 410.946 635.6 408.646 635.6 405.814 Z " fill="rgb(168,0,0)" fill-opacity="0.8"/><path d=" M 654.8 366.928 C 654.8 364.095 656.951 361.796 659.6 361.796 C 662.249 361.796 664.4 364.095 664.4 366.928 C 664.4 369.76 662.249 372.06 659.6 372.06 C 656.951 372.06 654.8 369.76 654.8 366.928 Z " fill="rgb(168,0,0)" fill-opacity="0.8"/><path d=" M 732.4 372.06 C 732.4 369.227 734.551 366.928 737.2 366.928 C 739.849 366.928 742 369.227 742 372.06 C 742 374.892 739.849 377.192 737.2 377.192 C 734.551 377.192 732.4 374.892 732.4 372.06 Z " fill="rgb(168,0,0)" fill-opacity="0.8"/><path d=" M 645.014 597.132 C 645.014 594.3 647.164 592 649.814 592 C 652.463 592 654.614 594.3 654.614 597.132 C 654.614 599.964 652.463 602.264 649.814 602.264 C 647.164 602.264 645.014 599.964 645.014 597.132 Z " fill="rgb(168,0,0)"/><path d=" M 698.867 614.35 C 698.867 611.517 701.018 609.218 703.667 609.218 C 706.317 609.218 708.467 611.517 708.467 614.35 C 708.467 617.182 706.317 619.482 703.667 619.482 C 701.018 619.482 698.867 617.182 698.867 614.35 Z " fill="rgb(168,0,0)" fill-opacity="0.8"/></g></svg>