<?xml version="1.0" standalone="no"?><!-- Generator: Gravit.io --><svg xmlns="http://www.w3.org/2000/svg" xmlns:xlink="http://www.w3.org/1999/xlink" style="isolation:isolate" viewBox="597.184 428.297 194.379 157.346" width="194.379" height="157.346"><g id="Group"><path d=" M 738.748 512 C 738.748 499.648 749.607 489.62 762.983 489.62 C 776.358 489.62 787.217 499.648 787.217 512 C 787.217 524.352 776.358 534.38 762.983 534.38 C 749.607 534.38 738.748 524.352 738.748 512 Z " fill="rgb(244,140,227)" fill-opacity="0.1"/><path d=" M 734.402 514.36 C 734.402 499.353 747.208 487.17 762.983 487.17 C 778.757 487.17 791.564 499.353 791.564 514.36 C 791.564 529.367 778.757 541.55 762.983 541.55 C 747.208 541.55 734.402 529.367 734.402 514.36 Z " fill="rgb(244,140,227)" fill-opacity="0.1"/><path d=" M 597.184 511.239 C 597.184 496.232 609.991 484.049 625.765 484.049 C 641.539 484.049 654.346 496.232 654.346 511.239 C 654.346 526.246 641.539 538.429 625.765 538.429 C 609.991 538.429 597.184 526.246 597.184 511.239 Z " fill="rgb(244,140,227)" fill-opacity="0.1"/><path d=" M 748.192 512 C 748.192 503.98 754.819 497.468 762.983 497.468 C 771.146 497.468 777.773 503.98 777.773 512 C 777.773 520.02 771.146 526.532 762.983 526.532 C 754.819 526.532 748.192 520.02 748.192 512 Z " fill="rgb(255,137,206)" fill-opacity="0.1"/><path d=" M 601.531 511.239 C 601.531 498.887 612.39 488.859 625.765 488.859 C 639.141 488.859 650 498.887 650 511.239 C 650 523.591 639.141 533.62 625.765 533.62 C 612.39 533.62 601.531 523.591 601.531 511.239 Z " fill="rgb(244,140,227)" fill-opacity="0.1"/><path d=" M 606.472 511.239 C 606.472 499.763 615.117 490.446 625.765 490.446 C 636.413 490.446 645.058 499.763 645.058 511.239 C 645.058 522.715 636.413 532.032 625.765 532.032 C 615.117 532.032 606.472 522.715 606.472 511.239 Z " fill="rgb(244,140,227)" fill-opacity="0.1"/><path d=" M 609.835 512 C 609.835 504.208 616.973 497.882 625.765 497.882 C 634.558 497.882 641.696 504.208 641.696 512 C 641.696 519.792 634.558 526.118 625.765 526.118 C 616.973 526.118 609.835 519.792 609.835 512 Z " fill="rgb(255,137,206)" fill-opacity="0.1"/><path d=" M 617.635 511.239 C 617.635 507.343 621.204 504.18 625.6 504.18 C 629.997 504.18 633.566 507.343 633.566 511.239 C 633.566 515.135 629.997 518.298 625.6 518.298 C 621.204 518.298 617.635 515.135 617.635 511.239 Z " fill="rgb(255,137,206)" fill-opacity="0.1"/><path d=" M 757 512 C 757 508.104 760.569 504.941 764.965 504.941 C 769.362 504.941 772.931 508.104 772.931 512 C 772.931 515.896 769.362 519.059 764.965 519.059 C 760.569 519.059 757 515.896 757 512 Z " fill="rgb(255,137,206)" fill-opacity="0.1"/><path d=" M 633.566 549.936 Q 669.052 564.467 689.301 564.741 Q 710.658 565.03 748.189 549.936 Q 714.613 584.037 691.152 584.143 Q 667.498 584.249 633.566 549.936 Z " fill="rgb(225,118,118)" vector-effect="non-scaling-stroke" stroke-width="1" stroke="rgb(225,118,118)" stroke-opacity="100" stroke-linejoin="miter" stroke-linecap="square" stroke-miterlimit="3"/><path d=" M 653.895 563.373 Q 676.036 569.936 689.831 570.104 Q 704.64 570.286 728.651 563.373 Q 708.098 577.594 689.831 577.263 Q 672.577 576.95 653.895 563.373 Z " fill="rgb(255,255,255)" vector-effect="non-scaling-stroke" stroke-width="0.64" stroke="rgb(255,255,255)" stroke-opacity="100" stroke-linejoin="miter" stroke-linecap="square" stroke-miterlimit="3"/><path d=" M 612.53 454.504 C 612.53 446.985 628.646 428.297 640.605 428.297 C 652.564 428.297 669.207 448.025 669.207 455.544 C 669.207 463.062 652.386 439.769 640.427 439.769 C 628.468 439.769 612.53 462.023 612.53 454.504 Z " fill="rgb(42,41,41)"/><path d=" M 712.809 457.995 C 712.809 450.476 728.924 431.788 740.883 431.788 C 752.842 431.788 769.485 451.516 769.485 459.034 C 769.485 466.553 752.664 443.26 740.705 443.26 C 728.746 443.26 712.809 465.514 712.809 457.995 Z " fill="rgb(42,41,41)"/><path d=" M 687.174 498.143 Q 693.584 505.559 698.174 508.143 Q 702.07 510.337 710.174 512.143 Q 704.732 518.308 700.729 520.143 Q 698.22 521.293 693.174 522.143" fill="none" vector-effect="non-scaling-stroke" stroke-width="3" stroke="rgb(149,132,114)" stroke-opacity="100" stroke-linejoin="miter" stroke-linecap="square" stroke-miterlimit="3"/></g></svg>