<?xml version="1.0" standalone="no"?><!-- Generator: Gravit.io --><svg xmlns="http://www.w3.org/2000/svg" xmlns:xlink="http://www.w3.org/1999/xlink" style="isolation:isolate" viewBox="970 413 157.219 148.614" width="157.219" height="148.614"><g id="Group"><path d=" M 1081.356 450.153 C 1081.356 433.314 1089.181 419.643 1098.82 419.643 C 1108.459 419.643 1116.285 433.314 1116.285 450.153 C 1116.285 466.992 1108.459 480.663 1098.82 480.663 C 1089.181 480.663 1081.356 466.992 1081.356 450.153 Z " fill="rgb(255,255,255)"/><path d=" M 1093.266 430.628 C 1093.266 427.625 1095.755 425.188 1098.82 425.188 C 1101.886 425.188 1104.375 427.625 1104.375 430.628 C 1104.375 433.63 1101.886 436.068 1098.82 436.068 C 1095.755 436.068 1093.266 433.63 1093.266 430.628 Z " fill="rgb(0,0,0)"/><path d=" M 1070.422 434.034 C 1070.422 427.999 1086.572 413 1098.556 413 C 1110.54 413 1127.219 428.834 1127.219 434.868 C 1127.219 440.902 1110.362 422.207 1098.378 422.207 C 1086.394 422.207 1070.422 440.068 1070.422 434.034 Z " fill="rgb(0,0,0)"/><path d=" M 1004.097 560.114 Q 1032.456 548.754 1048.639 548.539 Q 1065.707 548.313 1095.7 560.114 Q 1068.867 533.454 1050.118 533.371 Q 1031.214 533.288 1004.097 560.114 Z " fill="rgb(225,118,118)" vector-effect="non-scaling-stroke" stroke-width="1" stroke="rgb(225,118,118)" stroke-opacity="100" stroke-linejoin="miter" stroke-linecap="square" stroke-miterlimit="3"/><path d=" M 1044.847 480.663 Q 1051.257 488.079 1055.847 490.663 Q 1059.743 492.857 1067.847 494.663 Q 1062.405 500.828 1058.402 502.663 Q 1055.893 503.813 1050.847 504.663" fill="none" vector-effect="non-scaling-stroke" stroke-width="3" stroke="rgb(149,132,114)" stroke-opacity="100" stroke-linejoin="miter" stroke-linecap="square" stroke-miterlimit="3"/><path d=" M 980.934 450.153 C 980.934 433.314 988.759 419.643 998.398 419.643 C 1008.037 419.643 1015.863 433.314 1015.863 450.153 C 1015.863 466.992 1008.037 480.663 998.398 480.663 C 988.759 480.663 980.934 466.992 980.934 450.153 Z " fill="rgb(255,255,255)"/><path d=" M 992.844 430.628 C 992.844 427.625 995.333 425.188 998.398 425.188 C 1001.464 425.188 1003.953 427.625 1003.953 430.628 C 1003.953 433.63 1001.464 436.068 998.398 436.068 C 995.333 436.068 992.844 433.63 992.844 430.628 Z " fill="rgb(0,0,0)"/><path d=" M 970 434.034 C 970 427.999 986.15 413 998.134 413 C 1010.119 413 1026.797 428.834 1026.797 434.868 C 1026.797 440.902 1009.94 422.207 997.956 422.207 C 985.972 422.207 970 440.068 970 434.034 Z " fill="rgb(0,0,0)"/></g></svg>