<?xml version="1.0" standalone="no"?><!-- Generator: Gravit.io --><svg xmlns="http://www.w3.org/2000/svg" xmlns:xlink="http://www.w3.org/1999/xlink" style="isolation:isolate" viewBox="25.982 36.287 280.136 358.93" width="280.136" height="358.93"><g id="Group"><path d=" M 228.784 375.733 L 228.162 384.494 L 247.884 385.6 L 248.507 376.839 C 249.97 356.149 251.175 335.441 252.104 314.734 C 252.855 298.23 253.329 281.719 253.547 265.207 C 253.694 253.48 253.684 241.761 253.507 230.033 C 253.359 220.395 253.042 210.756 252.558 201.118 C 252.163 193.2 251.63 185.273 250.958 177.364 C 250.404 170.824 249.712 164.285 248.883 157.762 C 248.072 151.354 247.094 144.955 245.958 138.582 C 245.038 133.447 243.952 128.338 242.706 123.264 C 241.195 117.067 239.357 110.93 237.213 104.874 C 235.612 100.379 233.695 95.981 231.472 91.707 C 228.527 86.044 225.109 80.593 221.235 75.397 C 217.905 70.92 214.131 66.733 209.941 62.87 C 208.024 61.097 206.018 59.403 203.923 57.796 C 201.908 56.242 199.803 54.776 197.629 53.399 C 195.495 52.047 193.301 50.791 191.038 49.633 C 188.786 48.483 186.483 47.421 184.122 46.463 C 181.73 45.498 179.289 44.638 176.809 43.874 C 174.28 43.102 138.372 39.625 102.301 53.399 L 105.813 63.072 L 115.379 60.869 C 120.507 59.684 125.704 58.744 130.941 58.06 C 135.259 57.489 139.617 57.164 143.984 57.085 C 145.18 57.059 146.385 57.059 147.581 57.077 C 148.717 57.094 149.863 57.129 151 57.191 C 153.352 57.314 155.693 57.524 158.025 57.823 C 160.179 58.103 162.314 58.472 164.428 58.929 C 166.434 59.359 168.42 59.877 170.377 60.473 C 172.254 61.053 174.112 61.712 175.92 62.44 C 177.709 63.168 179.458 63.967 181.157 64.837 C 182.877 65.723 184.546 66.671 186.167 67.698 C 187.836 68.752 189.448 69.875 190.989 71.069 C 192.629 72.324 194.2 73.65 195.702 75.046 C 199.062 78.135 202.086 81.498 204.753 85.079 C 208.073 89.538 211.008 94.217 213.538 99.063 C 215.406 102.67 217.016 106.366 218.36 110.15 C 220.326 115.697 222.006 121.315 223.399 126.995 C 224.565 131.753 225.573 136.528 226.433 141.338 C 227.53 147.448 228.468 153.584 229.249 159.737 C 230.049 166.04 230.721 172.36 231.254 178.681 C 231.907 186.414 232.43 194.157 232.816 201.899 C 233.29 211.353 233.596 220.807 233.745 230.27 C 233.923 241.848 233.933 253.427 233.784 265.005 C 233.576 281.35 233.102 297.695 232.361 314.023 C 231.433 334.608 230.237 355.175 228.784 375.733 Z " fill="rgb(212,203,129)" vector-effect="non-scaling-stroke" stroke-width="2.491" stroke="rgb(191,179,98)" stroke-linejoin="miter" stroke-linecap="square" stroke-miterlimit="3"/><path d=" M 108.414 379.234 L 109.037 387.995 L 89.314 389.101 L 88.692 380.341 C 87.229 359.65 86.024 338.942 85.095 318.235 C 84.344 301.732 83.87 285.22 83.652 268.708 C 83.504 256.981 83.514 245.262 83.692 233.534 C 83.84 223.896 84.156 214.257 84.641 204.619 C 85.036 196.701 85.569 188.774 86.241 180.865 C 86.795 174.325 87.487 167.786 88.316 161.263 C 89.127 154.855 90.105 148.456 91.241 142.083 C 92.16 136.948 93.247 131.839 94.492 126.765 C 96.004 120.568 97.842 114.432 99.986 108.375 C 101.587 103.88 103.504 99.482 105.727 95.208 C 108.672 89.546 112.09 84.094 115.963 78.898 C 119.294 74.421 123.068 70.234 127.258 66.371 C 129.175 64.598 131.181 62.904 133.275 61.297 C 135.291 59.743 137.396 58.278 139.57 56.9 C 141.704 55.548 143.898 54.292 146.161 53.134 C 148.413 51.984 150.716 50.922 153.077 49.965 C 155.469 49 157.91 48.139 160.389 47.375 C 162.919 46.603 165.498 45.936 168.107 45.365 C 170.814 44.786 173.552 44.312 176.318 43.952 C 179.223 43.574 182.488 44.594 185.423 44.445 C 186.815 44.375 198.827 43.127 234.898 56.9 L 231.385 66.573 L 221.82 64.37 C 216.692 63.185 211.495 62.246 206.258 61.561 C 201.939 60.99 197.582 60.665 193.215 60.586 C 192.019 60.561 190.814 60.561 189.618 60.578 C 188.482 60.595 187.336 60.63 186.199 60.692 C 183.847 60.815 181.506 61.026 179.174 61.324 C 177.02 61.604 174.885 61.973 172.771 62.43 C 170.764 62.86 168.779 63.378 166.822 63.975 C 164.945 64.554 163.087 65.213 161.279 65.941 C 159.49 66.67 157.741 67.468 156.042 68.338 C 154.322 69.224 152.653 70.172 151.032 71.199 C 149.362 72.253 147.751 73.376 146.21 74.57 C 144.57 75.825 142.999 77.151 141.497 78.547 C 138.137 81.636 135.113 84.999 132.446 88.58 C 129.126 93.039 126.191 97.718 123.661 102.564 C 121.793 106.172 120.183 109.867 118.839 113.651 C 116.873 119.198 115.193 124.817 113.8 130.496 C 112.634 135.254 111.626 140.029 110.766 144.839 C 109.669 150.949 108.731 157.085 107.95 163.238 C 107.15 169.541 106.478 175.861 105.945 182.182 C 105.292 189.915 104.769 197.658 104.383 205.4 C 103.909 214.854 103.603 224.309 103.454 233.771 C 103.276 245.349 103.266 256.928 103.415 268.506 C 103.623 284.851 104.097 301.196 104.838 317.524 C 105.766 338.109 106.962 358.676 108.414 379.234 Z " fill="rgb(212,203,129)" vector-effect="non-scaling-stroke" stroke-width="2.491" stroke="rgb(191,179,98)" stroke-linejoin="miter" stroke-linecap="square" stroke-miterlimit="3"/><path d=" M 110.609 293.604 C 97.538 274.632 74.483 228.948 70.111 193.678 C 60.067 112.634 114.478 44.293 169.125 44.293 C 223.773 44.293 271.015 112.2 262.658 193.678 C 258.098 238.131 231.895 272.836 211.308 301.712 C 191.701 321.494 171.857 322.642 161.292 321.98 C 152.893 321.455 123.68 312.576 110.609 293.604 Z " fill="rgb(242,215,186)" vector-effect="non-scaling-stroke" stroke-width="3.221" stroke="rgb(187,166,144)" stroke-linejoin="miter" stroke-linecap="butt" stroke-miterlimit="4"/><path d=" M 95.772 378.554 L 96.295 386.842 L 79.719 387.888 L 79.195 379.6 C 77.966 360.026 76.953 340.435 76.172 320.845 C 75.541 305.232 75.143 289.611 74.96 273.989 C 74.835 262.894 74.844 251.808 74.993 240.712 C 75.118 231.594 75.384 222.475 75.79 213.357 C 76.123 205.866 76.571 198.367 77.136 190.884 C 77.601 184.697 78.182 178.51 78.88 172.34 C 79.561 166.277 80.383 160.223 81.338 154.194 C 82.11 149.336 83.024 144.502 84.07 139.702 C 85.341 133.839 86.886 128.034 88.688 122.304 C 90.033 118.052 91.644 113.891 93.513 109.847 C 95.987 104.49 98.861 99.333 102.116 94.417 C 104.915 90.181 108.087 86.22 111.609 82.566 C 113.22 80.888 114.906 79.286 116.666 77.766 C 118.36 76.296 120.129 74.909 121.956 73.605 C 123.75 72.326 125.594 71.139 127.496 70.043 C 129.389 68.955 131.324 67.95 133.309 67.045 C 135.319 66.131 137.37 65.317 139.454 64.595 C 141.58 63.864 143.748 63.233 145.94 62.693 C 148.216 62.145 150.516 61.696 152.841 61.356 C 155.283 60.999 157.733 60.75 160.199 60.608 C 161.37 60.542 162.55 60.5 163.729 60.476 C 164.95 60.459 166.171 60.459 167.383 60.484 C 171.76 60.575 176.111 60.941 180.438 61.58 C 185.429 62.319 190.379 63.324 195.262 64.595 L 203.301 66.679 L 199.731 79.965 Q 196.482 77.333 191.865 77.193 C 187.248 77.053 182.406 78.663 178.005 78.015 C 174.376 77.475 170.713 77.168 167.043 77.093 C 166.038 77.068 165.024 77.068 164.02 77.085 C 163.065 77.102 162.101 77.135 161.146 77.193 C 159.17 77.309 157.201 77.508 155.242 77.791 C 153.431 78.057 151.637 78.405 149.86 78.837 C 148.174 79.244 146.505 79.734 144.861 80.299 C 143.283 80.847 141.721 81.47 140.202 82.159 C 138.699 82.848 137.229 83.604 135.8 84.426 C 134.355 85.265 132.952 86.162 131.59 87.134 C 130.186 88.13 128.833 89.193 127.537 90.323 C 126.158 91.51 124.838 92.764 123.576 94.085 C 120.752 97.008 118.211 100.189 115.969 103.577 C 113.178 107.796 110.712 112.222 108.586 116.806 C 107.016 120.22 105.662 123.716 104.533 127.295 C 102.88 132.544 101.469 137.859 100.298 143.232 C 99.318 147.733 98.471 152.251 97.748 156.802 C 96.826 162.582 96.037 168.387 95.381 174.208 C 94.709 180.171 94.144 186.151 93.695 192.13 C 93.147 199.446 92.707 206.771 92.383 214.096 C 91.985 223.04 91.727 231.984 91.603 240.937 C 91.453 251.891 91.445 262.844 91.569 273.798 C 91.744 289.262 92.142 304.725 92.765 320.172 C 93.546 339.646 94.551 359.104 95.772 378.554 Z " fill="rgb(212,203,129)" vector-effect="non-scaling-stroke" stroke-width="2.491" stroke="rgb(191,179,98)" stroke-linejoin="miter" stroke-linecap="square" stroke-miterlimit="3"/><path d=" M 269.293 381.05 L 268.77 389.338 L 285.346 390.384 L 285.869 382.096 C 287.098 362.522 288.112 342.931 288.892 323.341 C 289.523 307.728 289.922 292.107 290.105 276.485 C 290.229 265.39 290.221 254.304 290.071 243.208 C 289.947 234.09 289.681 224.971 289.274 215.853 C 288.942 208.362 288.494 200.863 287.929 193.38 C 287.464 187.193 286.882 181.006 286.185 174.836 C 285.504 168.773 284.682 162.719 283.727 156.69 C 282.954 151.832 282.041 146.999 280.994 142.198 C 279.724 136.335 278.179 130.53 276.377 124.8 C 275.032 120.548 273.421 116.387 271.552 112.343 C 269.077 106.986 266.204 101.829 262.948 96.913 C 260.15 92.677 256.977 88.716 253.456 85.062 C 251.845 83.384 250.159 81.782 248.398 80.262 C 246.704 78.792 244.935 77.405 243.108 76.101 C 241.315 74.822 239.471 73.635 237.569 72.539 C 235.676 71.451 233.741 70.446 231.756 69.541 C 229.746 68.627 227.695 67.813 225.61 67.091 C 223.484 66.36 221.317 65.729 219.124 65.189 C 216.849 64.641 214.549 64.192 212.223 63.852 C 209.782 63.495 207.332 63.246 204.865 63.104 C 203.694 63.038 202.515 62.996 201.336 62.972 C 200.115 62.955 198.894 62.955 197.682 62.98 C 193.305 63.071 188.953 63.437 184.627 64.076 Q 179.636 64.815 174.055 68.497 Q 169.758 81.094 170.928 83.536 L 173.98 83.169 C 178.29 82.047 183.345 81.981 187.747 81.333 C 195.577 77.499 254.353 114.718 256.479 119.302 C 258.049 122.716 259.402 126.212 260.532 129.791 C 262.184 135.04 263.596 140.355 264.767 145.728 C 265.747 150.229 266.594 154.747 267.317 159.298 C 268.238 165.078 269.027 170.883 269.683 176.704 C 270.356 182.667 270.921 188.647 271.369 194.626 C 271.917 201.942 272.358 209.267 272.681 216.592 C 273.08 225.536 273.338 234.48 273.462 243.433 C 273.612 254.387 273.62 265.34 273.495 276.294 C 273.321 291.758 272.922 307.221 272.299 322.668 C 271.519 342.142 270.514 361.6 269.293 381.05 Z " fill="rgb(212,203,129)" vector-effect="non-scaling-stroke" stroke-width="2.491" stroke="rgb(208,196,113)" stroke-opacity="100" stroke-linejoin="miter" stroke-linecap="square" stroke-miterlimit="3"/><path d=" M 244.51 375.533 L 244.123 383.829 L 260.714 384.603 L 261.101 376.308 C 262.009 356.715 262.7 337.111 263.159 317.51 C 263.534 301.889 263.676 286.263 263.602 270.641 C 263.545 259.545 263.354 248.46 263.023 237.369 C 262.748 228.254 262.333 219.141 261.777 210.03 C 261.321 202.546 260.75 195.055 260.062 187.584 C 259.496 181.405 258.813 175.228 258.015 169.07 C 257.234 163.019 256.312 156.98 255.259 150.966 C 254.407 146.122 253.414 141.304 252.288 136.522 C 250.922 130.681 249.282 124.901 247.386 119.202 C 245.971 114.972 244.293 110.839 242.358 106.825 C 239.795 101.51 236.838 96.401 233.502 91.539 C 230.634 87.35 227.397 83.441 223.817 79.845 C 222.178 78.195 220.466 76.619 218.68 75.129 C 216.963 73.687 215.171 72.329 213.323 71.055 C 211.508 69.806 209.645 68.649 207.726 67.585 C 205.814 66.528 203.864 65.555 201.864 64.682 L 175.76 63.749 L 169.092 80.969 Q 188.878 77.587 190.531 78.124 C 192.118 78.647 193.69 79.244 195.22 79.908 C 196.735 80.573 198.216 81.304 199.658 82.102 C 201.117 82.918 202.535 83.791 203.913 84.741 C 205.333 85.714 206.703 86.755 208.017 87.862 C 209.415 89.028 210.756 90.259 212.04 91.559 C 214.911 94.436 217.504 97.574 219.802 100.925 C 222.661 105.097 225.2 109.483 227.401 114.031 C 229.026 117.419 230.437 120.892 231.625 124.452 C 233.364 129.673 234.863 134.964 236.122 140.317 C 237.176 144.802 238.097 149.305 238.894 153.843 C 239.91 159.608 240.794 165.399 241.545 171.209 C 242.316 177.16 242.979 183.129 243.525 189.101 C 244.194 196.407 244.754 203.724 245.198 211.042 C 245.743 219.979 246.148 228.917 246.419 237.866 C 246.748 248.817 246.937 259.769 246.992 270.723 C 247.071 286.187 246.927 301.655 246.557 317.11 C 246.096 336.595 245.411 356.066 244.51 375.533 Z " fill="rgb(212,203,129)" vector-effect="non-scaling-stroke" stroke-width="0.83" stroke="rgb(191,179,98)" stroke-linejoin="miter" stroke-linecap="butt" stroke-miterlimit="4"/><path d=" M 277.516 380.518 L 276.894 389.278 L 296.616 390.384 L 297.238 381.624 C 298.701 360.933 299.907 340.226 300.835 319.518 C 301.587 303.015 302.061 286.503 302.278 269.991 C 302.426 258.264 302.416 246.545 302.239 234.817 C 302.09 225.179 301.774 215.541 301.29 205.902 C 300.895 197.984 300.361 190.058 299.689 182.148 C 299.136 175.608 298.444 169.069 297.614 162.547 C 296.804 156.139 295.826 149.739 294.69 143.366 C 293.77 138.231 292.683 133.122 291.438 128.048 C 289.927 121.851 288.089 115.715 285.945 109.658 C 284.344 105.164 282.427 100.765 280.204 96.491 C 277.259 90.829 273.84 85.378 269.967 80.181 C 266.636 75.704 262.862 71.517 258.672 67.655 C 256.756 65.882 254.75 64.187 252.655 62.58 C 250.639 61.027 248.535 59.561 246.361 58.183 C 244.226 56.831 242.033 55.575 239.77 54.417 C 237.517 53.267 235.215 52.204 232.853 51.248 C 230.462 50.283 228.021 49.422 225.541 48.658 C 223.012 47.886 220.432 47.219 217.824 46.649 C 215.117 46.069 212.379 45.595 209.613 45.235 C 206.707 44.857 203.792 44.594 200.858 44.445 Q 199.465 44.375 180.111 43.162 L 175.76 63.072 Q 188.349 61.948 192.716 61.87 C 193.911 61.844 195.117 61.844 196.312 61.861 C 197.449 61.879 198.595 61.914 199.731 61.975 C 202.083 62.098 204.425 62.309 206.757 62.607 C 208.911 62.888 211.046 63.256 213.16 63.713 C 215.166 64.143 217.152 64.662 219.109 65.258 C 220.986 65.837 222.843 66.496 224.652 67.224 C 226.44 67.953 228.189 68.752 229.889 69.621 C 231.608 70.507 233.278 71.456 234.898 72.482 C 236.568 73.536 238.179 74.66 239.721 75.853 C 241.361 77.109 242.932 78.434 244.434 79.83 C 247.793 82.919 250.817 86.282 253.485 89.863 C 256.805 94.323 259.739 99.001 262.269 103.847 C 264.137 107.455 265.748 111.15 267.092 114.934 C 269.057 120.482 270.737 126.1 272.131 131.779 C 273.297 136.537 274.304 141.312 275.165 146.122 C 276.261 152.232 277.2 158.368 277.981 164.521 C 278.78 170.825 279.452 177.145 279.986 183.465 C 280.638 191.199 281.162 198.941 281.548 206.684 C 282.022 216.138 282.328 225.592 282.476 235.054 C 282.654 246.633 282.664 258.211 282.516 269.789 C 282.308 286.135 281.834 302.479 281.093 318.807 C 280.164 339.392 278.968 359.959 277.516 380.518 Z " fill="rgb(212,203,129)" vector-effect="non-scaling-stroke" stroke-width="2.491" stroke="rgb(191,179,98)" stroke-opacity="100" stroke-linejoin="miter" stroke-linecap="square" stroke-miterlimit="3"/><path d=" M 55.679 380.518 L 56.302 389.279 L 36.579 390.385 L 35.956 381.624 C 34.493 360.934 33.288 340.226 32.359 319.518 C 31.608 303.015 31.134 286.504 30.917 269.992 C 30.769 258.265 30.779 246.546 30.956 234.818 C 31.104 225.179 31.421 215.541 31.905 205.903 C 32.3 197.985 32.834 190.058 33.506 182.149 C 34.059 175.609 34.751 169.07 35.58 162.547 C 36.391 156.139 37.369 149.74 38.505 143.367 C 39.425 138.232 40.512 133.123 41.757 128.049 C 43.268 121.852 45.106 115.715 47.25 109.659 C 48.851 105.164 50.768 100.766 52.991 96.491 C 55.936 90.829 59.354 85.378 63.228 80.182 C 66.558 75.705 70.332 71.518 74.522 67.655 C 76.44 65.882 78.445 64.188 80.54 62.581 C 82.556 61.027 84.66 59.561 86.835 58.184 C 88.969 56.832 91.162 55.576 93.425 54.417 C 95.678 53.268 97.98 52.205 100.341 51.248 C 102.733 50.283 105.174 49.423 107.654 48.659 C 110.183 47.887 112.763 47.22 115.371 46.649 C 118.079 46.069 120.816 45.595 123.582 45.236 C 126.487 44.858 126.628 44.065 132.446 42.729 C 138.263 41.393 149.451 41.136 150.904 41.118 Q 152.356 41.101 180.111 43.021 L 175.92 62.607 L 168.748 62.306 Q 144.846 61.949 140.479 61.87 C 139.284 61.844 138.078 61.844 136.882 61.862 C 135.746 61.879 134.6 61.914 133.463 61.975 C 131.112 62.098 128.77 62.309 126.438 62.607 C 124.284 62.888 122.15 63.257 120.035 63.714 C 118.029 64.144 116.043 64.662 114.086 65.258 C 112.209 65.838 110.351 66.497 108.543 67.225 C 106.754 67.953 105.005 68.752 103.306 69.622 C 101.587 70.508 99.917 71.456 98.296 72.483 C 96.627 73.536 95.016 74.66 93.474 75.853 C 91.834 77.109 90.263 78.435 88.761 79.831 C 85.401 82.92 82.377 86.283 79.71 89.863 C 76.39 94.323 73.455 99.002 70.925 103.848 C 69.058 107.455 67.447 111.151 66.104 114.935 C 64.137 120.482 62.458 126.1 61.064 131.78 C 59.898 136.538 58.89 141.313 58.031 146.123 C 56.934 152.233 55.995 158.369 55.214 164.522 C 54.414 170.825 53.742 177.145 53.209 183.466 C 52.556 191.199 52.033 198.942 51.648 206.684 C 51.173 216.138 50.867 225.592 50.718 235.055 C 50.541 246.633 50.531 258.211 50.679 269.79 C 50.887 286.135 51.361 302.48 52.102 318.808 C 53.031 339.392 54.226 359.96 55.679 380.518 Z " fill="rgb(212,203,129)" vector-effect="non-scaling-stroke" stroke-width="2.416" stroke="rgb(191,179,98)" stroke-linejoin="miter" stroke-linecap="butt" stroke-miterlimit="4"/><path d=" M 81.421 362.187 L 81.863 369.964 L 67.857 370.946 L 67.415 363.17 C 66.376 344.803 65.52 326.422 64.86 308.04 C 64.327 293.391 63.99 278.734 63.836 264.077 C 63.731 253.667 63.738 243.264 63.864 232.854 C 63.969 224.298 64.194 215.742 64.537 207.187 C 64.818 200.158 65.198 193.122 65.674 186.101 C 66.067 180.296 66.559 174.49 67.148 168.701 C 67.723 163.013 68.418 157.333 69.225 151.676 C 69.877 147.117 70.65 142.582 71.534 138.078 C 72.607 132.577 73.913 127.13 75.435 121.754 C 76.572 117.764 77.934 113.86 79.512 110.065 C 81.604 105.04 84.031 100.201 86.782 95.587 C 89.147 91.614 91.827 87.896 94.802 84.468 C 96.163 82.895 97.588 81.391 99.076 79.965 C 100.508 78.585 102.002 77.284 103.545 76.061 C 105.061 74.861 106.619 73.746 108.226 72.718 C 109.826 71.697 111.461 70.754 113.138 69.905 C 114.836 69.047 116.57 68.284 118.33 67.606 C 120.127 66.92 121.959 66.328 123.811 65.822 C 125.734 65.308 127.677 64.887 129.642 64.567 C 131.705 64.232 133.775 63.998 135.859 63.866 C 136.849 63.804 137.845 63.765 138.841 63.741 C 139.873 63.726 140.905 63.726 141.929 63.749 C 145.627 63.834 149.304 64.177 152.96 64.778 C 157.177 65.471 161.359 66.414 165.485 67.606 L 172.278 69.562 L 169.486 83.536 L 161.956 82.692 C 158.314 81.64 154.623 80.806 150.904 80.198 C 147.838 79.691 144.743 79.403 141.642 79.333 C 140.792 79.31 139.937 79.31 139.087 79.325 C 138.28 79.341 137.466 79.372 136.66 79.426 C 134.989 79.536 133.326 79.723 131.67 79.988 C 130.14 80.237 128.625 80.564 127.123 80.969 C 125.698 81.351 124.288 81.811 122.899 82.341 C 121.566 82.855 120.246 83.439 118.962 84.086 C 117.692 84.733 116.45 85.442 115.243 86.214 C 114.022 87 112.836 87.842 111.686 88.754 C 110.5 89.689 109.355 90.686 108.261 91.746 C 107.096 92.86 105.98 94.037 104.914 95.276 C 102.528 98.019 100.381 101.003 98.486 104.182 C 96.128 108.141 94.045 112.294 92.249 116.595 C 90.922 119.798 89.778 123.078 88.824 126.437 C 87.428 131.362 86.234 136.349 85.245 141.39 C 84.417 145.613 83.701 149.852 83.091 154.122 C 82.312 159.545 81.645 164.992 81.091 170.454 C 80.522 176.049 80.046 181.66 79.667 187.27 C 79.203 194.135 78.831 201.007 78.558 207.88 C 78.221 216.272 78.003 224.664 77.898 233.064 C 77.772 243.342 77.765 253.62 77.87 263.898 C 78.018 278.406 78.354 292.915 78.88 307.409 C 79.54 325.682 80.389 343.939 81.421 362.187 Z " fill="rgb(212,203,129)" vector-effect="non-scaling-stroke" stroke-width="2.491" stroke="rgb(208,196,113)" stroke-opacity="100" stroke-linejoin="miter" stroke-linecap="square" stroke-miterlimit="3"/><path d=" M 69.717 376.266 L 70.24 384.554 L 53.664 385.6 L 53.141 377.312 C 51.912 357.738 50.899 338.147 50.118 318.556 C 49.487 302.943 49.088 287.322 48.905 271.701 C 48.781 260.606 48.789 249.519 48.939 238.424 C 49.063 229.306 49.329 220.187 49.736 211.068 C 50.068 203.578 50.517 196.078 51.081 188.596 C 51.546 182.409 52.128 176.222 52.825 170.052 C 53.506 163.989 54.328 157.935 55.283 151.906 C 56.056 147.047 56.969 142.214 58.016 137.414 C 59.286 131.551 60.831 125.746 62.633 120.016 C 63.978 115.764 65.59 111.603 67.458 107.559 C 69.933 102.202 72.806 97.045 76.062 92.128 C 78.86 87.893 82.033 83.932 85.554 80.278 C 87.165 78.6 88.851 76.997 90.612 75.478 C 92.306 74.008 94.075 72.621 95.902 71.317 C 97.696 70.038 99.539 68.85 101.441 67.754 C 103.334 66.666 105.269 65.661 107.254 64.756 C 109.264 63.843 111.315 63.029 113.4 62.306 C 115.526 61.576 117.693 60.944 119.886 60.405 C 122.161 59.856 124.462 59.408 126.787 59.067 C 129.229 58.71 131.678 58.461 134.145 58.32 C 135.316 58.254 136.495 58.212 137.674 58.187 C 138.895 58.171 140.116 58.171 141.328 58.195 C 145.705 58.287 150.057 58.652 154.383 59.292 C 159.375 60.031 164.324 61.036 169.207 62.306 L 175.92 62.306 L 169.486 81.333 L 165.03 78.384 C 160.72 77.263 156.352 76.374 151.95 75.727 C 148.321 75.187 144.659 74.88 140.988 74.805 C 139.983 74.78 138.97 74.78 137.965 74.797 C 137.01 74.813 136.047 74.846 135.092 74.905 C 133.115 75.021 131.147 75.22 129.187 75.502 C 127.377 75.768 125.583 76.117 123.806 76.549 C 122.12 76.956 120.45 77.446 118.806 78.011 C 117.228 78.559 115.667 79.181 114.147 79.871 C 112.644 80.56 111.174 81.316 109.746 82.138 C 108.301 82.977 106.897 83.874 105.535 84.845 C 104.132 85.842 102.778 86.905 101.483 88.034 C 100.104 89.222 98.783 90.476 97.521 91.796 C 94.698 94.72 92.156 97.9 89.914 101.289 C 87.124 105.507 84.657 109.934 82.531 114.518 C 80.962 117.931 79.608 121.427 78.478 125.007 C 76.826 130.255 75.414 135.57 74.243 140.944 C 73.263 145.445 72.416 149.962 71.694 154.513 C 70.772 160.294 69.983 166.098 69.327 171.92 C 68.654 177.883 68.089 183.862 67.641 189.842 C 67.093 197.158 66.653 204.483 66.329 211.808 C 65.93 220.752 65.673 229.696 65.548 238.648 C 65.399 249.602 65.39 260.556 65.515 271.51 C 65.689 286.973 66.088 302.437 66.711 317.884 C 67.491 337.358 68.496 356.816 69.717 376.266 Z " fill="rgb(212,203,129)" vector-effect="non-scaling-stroke" stroke-width="2.491" stroke="rgb(191,179,98)" stroke-linejoin="miter" stroke-linecap="square" stroke-miterlimit="3"/><path d=" M 255.65 380.518 L 255.027 389.278 L 274.75 390.384 L 275.373 381.624 C 276.835 360.933 278.04 340.226 278.97 319.518 C 279.721 303.015 280.195 286.503 280.412 269.991 C 280.56 258.264 280.55 246.545 280.372 234.817 C 280.225 225.179 279.908 215.541 279.424 205.902 C 279.029 197.984 278.496 190.058 277.824 182.148 C 277.27 175.608 276.578 169.069 275.748 162.547 C 274.938 156.139 273.96 149.739 272.823 143.366 C 271.904 138.231 270.818 133.122 269.572 128.048 C 268.061 121.851 266.223 115.715 264.079 109.658 C 262.477 105.164 260.561 100.765 258.338 96.491 C 255.393 90.829 251.974 85.378 248.101 80.181 C 244.771 75.704 240.997 71.517 236.807 67.655 C 234.89 65.882 232.884 64.187 230.789 62.58 C 228.774 61.027 226.668 59.561 224.495 58.183 C 222.361 56.831 220.167 55.575 217.904 54.417 C 215.651 53.267 213.348 52.204 210.987 51.248 C 208.596 50.283 206.155 49.422 203.675 48.658 C 201.146 47.886 198.567 47.219 195.958 46.649 C 194.269 46.287 190.849 46.246 187.033 45.95 C 184.731 45.771 182.14 44.948 180.111 45.472 L 175.92 64.076 Q 182.559 62.309 184.891 62.607 C 187.045 62.888 189.179 63.256 191.294 63.713 C 193.3 64.143 195.286 64.662 197.242 65.258 C 199.12 65.837 200.978 66.496 202.786 67.224 C 204.575 67.953 206.324 68.752 208.023 69.621 C 209.743 70.507 211.412 71.456 213.033 72.482 C 214.702 73.536 216.313 74.66 217.855 75.853 C 219.495 77.109 221.066 78.434 222.568 79.83 C 225.928 82.919 228.951 86.282 231.619 89.863 C 234.939 94.323 237.874 99.001 240.404 103.847 C 242.271 107.455 243.882 111.15 245.225 114.934 C 247.192 120.482 248.872 126.1 250.265 131.779 C 251.431 136.537 252.439 141.312 253.298 146.122 C 254.395 152.232 255.334 158.368 256.114 164.521 C 256.915 170.825 257.587 177.145 258.12 183.465 C 258.773 191.199 259.296 198.941 259.681 206.684 C 260.155 216.138 260.462 225.592 260.611 235.054 C 260.788 246.633 260.798 258.211 260.65 269.789 C 260.442 286.135 259.968 302.479 259.227 318.807 C 258.299 339.392 257.103 359.959 255.65 380.518 Z " fill="rgb(212,203,129)" vector-effect="non-scaling-stroke" stroke-width="2.491" stroke="rgb(191,179,98)" stroke-linejoin="miter" stroke-linecap="square" stroke-miterlimit="3"/><path d=" M 82.453 381.073 L 83.076 389.341 L 63.353 390.385 L 62.731 382.117 C 61.269 362.59 60.063 343.046 59.134 323.502 C 58.383 307.927 57.909 292.344 57.691 276.76 C 57.543 265.692 57.553 254.632 57.731 243.563 C 57.879 234.467 58.195 225.37 58.679 216.274 C 59.075 208.801 59.609 201.32 60.28 193.855 C 60.833 187.683 61.525 181.511 62.355 175.355 C 63.165 169.308 64.144 163.268 65.28 157.253 C 66.199 152.407 67.286 147.585 68.531 142.796 C 70.043 136.948 71.88 131.156 74.025 125.44 C 75.626 121.198 77.543 117.047 79.766 113.013 C 82.711 107.669 86.13 102.525 90.003 97.621 C 93.332 93.395 97.108 89.443 101.296 85.798 C 103.214 84.125 105.22 82.526 107.315 81.009 C 109.33 79.543 111.435 78.159 113.609 76.859 C 115.743 75.583 117.937 74.398 120.2 73.304 C 122.453 72.22 124.755 71.217 127.117 70.314 C 129.508 69.403 131.948 68.591 134.428 67.87 C 136.958 67.141 139.537 66.511 142.146 65.973 C 144.853 65.426 147.59 64.978 150.357 64.639 C 153.261 64.282 156.176 64.034 159.111 63.894 C 160.505 63.827 161.908 63.785 163.311 63.76 C 164.764 63.744 166.216 63.744 167.659 63.769 Q 172.866 63.86 175.76 64.837 L 170.603 82.078 Q 164.852 80.314 163.656 80.33 C 162.52 80.347 161.374 80.38 160.238 80.438 C 157.886 80.554 155.544 80.753 153.213 81.034 C 151.058 81.299 148.924 81.647 146.81 82.078 C 144.803 82.484 142.818 82.973 140.861 83.536 C 138.983 84.083 137.126 84.705 135.318 85.392 C 133.53 86.079 131.781 86.833 130.081 87.654 C 128.362 88.49 126.691 89.385 125.071 90.355 C 123.401 91.349 121.79 92.409 120.249 93.535 C 118.608 94.721 117.037 95.971 115.536 97.289 C 112.176 100.205 109.153 103.378 106.484 106.758 C 103.164 110.967 100.229 115.383 97.7 119.956 C 95.833 123.361 94.222 126.849 92.878 130.42 C 90.911 135.655 89.232 140.958 87.839 146.318 C 86.673 150.808 85.665 155.315 84.805 159.855 C 83.709 165.621 82.77 171.412 81.989 177.219 C 81.189 183.168 80.516 189.133 79.983 195.098 C 79.331 202.397 78.807 209.704 78.422 217.011 C 77.948 225.934 77.641 234.856 77.494 243.787 C 77.315 254.714 77.306 265.642 77.454 276.569 C 77.661 291.996 78.135 307.421 78.876 322.831 C 79.806 342.259 81.001 361.67 82.453 381.073 Z " fill="rgb(212,203,129)" vector-effect="non-scaling-stroke" stroke-width="2.491" stroke="rgb(208,196,113)" stroke-opacity="100" stroke-linejoin="miter" stroke-linecap="square" stroke-miterlimit="3"/></g></svg>