<?xml version="1.0" standalone="no"?><!-- Generator: Gravit.io --><svg xmlns="http://www.w3.org/2000/svg" xmlns:xlink="http://www.w3.org/1999/xlink" style="isolation:isolate" viewBox="0.664 -10.832 154.586 177.78" width="154.586" height="177.78"><g id="Group"><path d=" M 22.032 130 Q 56.968 145.058 76.903 145.342 Q 97.929 145.641 134.878 130 Q 101.823 165.338 78.725 165.448 Q 55.438 165.557 22.032 130 Z " fill="rgb(225,118,118)" vector-effect="non-scaling-stroke" stroke-width="1" stroke="rgb(225,118,118)" stroke-opacity="100" stroke-linejoin="miter" stroke-linecap="square" stroke-miterlimit="3"/><path d=" M 44.675 143.922 Q 64.685 149.997 77.152 150.152 Q 90.535 150.321 112.235 143.922 Q 93.66 157.085 77.152 156.778 Q 61.559 156.489 44.675 143.922 Z " fill="rgb(255,255,255)" vector-effect="non-scaling-stroke" stroke-width="0.64" stroke="rgb(255,255,255)" stroke-opacity="100" stroke-linejoin="miter" stroke-linecap="square" stroke-miterlimit="3"/><path d=" M 10 43.678 C 10 26.839 17.826 13.168 27.464 13.168 C 37.103 13.168 44.929 26.839 44.929 43.678 C 44.929 60.518 37.103 74.189 27.464 74.189 C 17.826 74.189 10 60.518 10 43.678 Z " fill="rgb(255,255,255)"/><path d=" M 24.365 40.232 C 24.365 33.623 26.854 28.257 29.92 28.257 C 32.986 28.257 35.475 33.623 35.475 40.232 C 35.475 46.841 32.986 52.207 29.92 52.207 C 26.854 52.207 24.365 46.841 24.365 40.232 Z " fill="rgb(0,0,0)"/><path d=" M 111 43.678 C 111 26.839 118.826 13.168 128.464 13.168 C 138.103 13.168 145.929 26.839 145.929 43.678 C 145.929 60.518 138.103 74.189 128.464 74.189 C 118.826 74.189 111 60.518 111 43.678 Z " fill="rgb(255,255,255)"/><path d=" M 122.91 40.232 C 122.91 33.623 125.399 28.257 128.464 28.257 C 131.53 28.257 134.019 33.623 134.019 40.232 C 134.019 46.841 131.53 52.207 128.464 52.207 C 125.399 52.207 122.91 46.841 122.91 40.232 Z " fill="rgb(0,0,0)"/><path d=" M 74.644 69.846 Q 81.054 77.262 85.644 79.846 Q 89.54 82.04 97.644 83.846 Q 92.202 90.011 88.199 91.846 Q 85.69 92.996 80.644 93.846" fill="none" vector-effect="non-scaling-stroke" stroke-width="3" stroke="rgb(149,132,114)" stroke-opacity="100" stroke-linejoin="miter" stroke-linecap="square" stroke-miterlimit="3"/><path d=" M 101.365 1.963 C 101.365 -1.708 116.687 -10.832 128.057 -10.832 C 139.427 -10.832 155.25 -1.2 155.25 2.471 C 155.25 6.141 139.258 -5.231 127.888 -5.231 C 116.518 -5.231 101.365 5.634 101.365 1.963 Z " fill="rgb(157,140,122)"/><path d=" M 0.664 1.963 C 0.664 -1.708 15.986 -10.832 27.356 -10.832 C 38.726 -10.832 54.549 -1.2 54.549 2.471 C 54.549 6.141 38.557 -5.231 27.187 -5.231 C 15.817 -5.231 0.664 5.634 0.664 1.963 Z " fill="rgb(157,140,122)"/></g></svg>