<?xml version="1.0" encoding="UTF-8" standalone="no"?><!-- Generator: Gravit.io --><svg xmlns="http://www.w3.org/2000/svg" xmlns:xlink="http://www.w3.org/1999/xlink" style="isolation:isolate" viewBox="739.5 222.5 1055 518.25" width="1055pt" height="518.25pt"><defs><clipPath id="_clipPath_PM0DApWD8K0PIa6tYcSkPtNMxgOs6PAJ"><rect x="739.5" y="222.5" width="1055" height="518.25"/></clipPath></defs><g clip-path="url(#_clipPath_PM0DApWD8K0PIa6tYcSkPtNMxgOs6PAJ)"><circle vector-effect="non-scaling-stroke" cx="994" cy="488.2503433978332" r="250" fill="rgb(203,174,200)" stroke-width="5" stroke="rgb(0,0,0)" stroke-linejoin="miter" stroke-linecap="square" stroke-miterlimit="3"/><circle vector-effect="non-scaling-stroke" cx="994" cy="488.2503433978332" r="75.00896126297198" fill="rgb(255,253,253)" stroke-width="5" stroke="rgb(0,0,0)" stroke-linejoin="miter" stroke-linecap="square" stroke-miterlimit="3"/><path d=" M 763.143 439 Q 756.611 492 787.407 556 L 777.142 423 L 810.737 566 L 810.737 433 L 835.934 566 L 853.666 433 Q 867.664 581 867.664 573 Q 867.664 565 896.594 439 Q 901.62 560.898 896.594 556 C 878.923 538.78 882.977 499.79 908.726 439 L 896.594 490 L 918.991 556" fill="none" vector-effect="non-scaling-stroke" stroke-width="15" stroke="rgb(255,255,255)" stroke-linejoin="miter" stroke-linecap="square" stroke-miterlimit="3"/><path d=" M 760 490 Q 772 564 797 445 L 822 566 L 835.934 439 L 853.666 556 L 875 452 L 902 566" fill="none" vector-effect="non-scaling-stroke" stroke-width="10" stroke="rgb(255,255,255)" stroke-linejoin="miter" stroke-linecap="square" stroke-miterlimit="3"/><path d=" M 763 538 Q 773 548 787.407 573 L 797 433 L 822 538 L 844 468 L 853.666 538 L 887 475 L 908.726 548" fill="none" vector-effect="non-scaling-stroke" stroke-width="5" stroke="rgb(255,255,255)" stroke-linejoin="miter" stroke-linecap="square" stroke-miterlimit="3"/><path d=" M 1220.936 431.59 Q 1227.304 484.59 1197.283 548.59 L 1207.29 415.59 L 1174.539 558.59 L 1174.539 425.59 L 1149.976 558.59 L 1132.691 425.59 Q 1119.045 573.59 1119.045 565.59 Q 1119.045 557.59 1090.843 431.59 Q 1085.943 553.488 1090.843 548.59 C 1108.069 531.369 1104.117 492.379 1079.016 431.59 L 1090.843 482.59 L 1069.009 548.59" fill="none" vector-effect="non-scaling-stroke" stroke-width="15" stroke="rgb(255,255,255)" stroke-linejoin="miter" stroke-linecap="square" stroke-miterlimit="3"/><path d=" M 1224 482.59 Q 1212.302 556.59 1187.931 437.59 L 1163.56 558.59 L 1149.976 431.59 L 1132.691 548.59 L 1111.893 444.59 L 1085.573 558.59" fill="none" vector-effect="non-scaling-stroke" stroke-width="10" stroke="rgb(255,255,255)" stroke-linejoin="miter" stroke-linecap="square" stroke-miterlimit="3"/><path d=" M 1221.075 530.59 Q 1211.327 540.59 1197.283 565.59 L 1187.931 425.59 L 1163.56 530.59 L 1142.113 460.59 L 1132.691 530.59 L 1100.195 467.59 L 1079.016 540.59" fill="none" vector-effect="non-scaling-stroke" stroke-width="5" stroke="rgb(255,255,255)" stroke-linejoin="miter" stroke-linecap="square" stroke-miterlimit="3"/><path d=" M 822 439 L 853.666 573 L 875 482.59" fill="none" vector-effect="non-scaling-stroke" stroke-width="8" stroke="rgb(255,255,255)" stroke-linejoin="miter" stroke-linecap="square" stroke-miterlimit="3"/><path d=" M 1170.409 428.09 L 1135.448 562.09 L 1111.893 471.679" fill="none" vector-effect="non-scaling-stroke" stroke-width="8" stroke="rgb(255,255,255)" stroke-linejoin="miter" stroke-linecap="square" stroke-miterlimit="3"/><circle vector-effect="non-scaling-stroke" cx="1542" cy="474.99999999999994" r="250" fill="rgb(203,174,200)" stroke-width="5" stroke="rgb(0,0,0)" stroke-linejoin="miter" stroke-linecap="square" stroke-miterlimit="3"/><circle vector-effect="non-scaling-stroke" cx="1542" cy="475" r="75.00896126297198" fill="rgb(255,253,253)" stroke-width="5" stroke="rgb(0,0,0)" stroke-linejoin="miter" stroke-linecap="square" stroke-miterlimit="3"/><path d=" M 1317 395.378 Q 1310.467 448.378 1335.407 518.378 L 1325.142 385.378 L 1358.737 528.378 L 1358.737 395.378 L 1383.934 528.378 L 1401.666 395.378 C 1413.201 462.594 1417.877 509.271 1415.664 535.378 Q 1414.988 543.345 1444.594 401.378 Q 1449.62 523.276 1444.594 518.378 C 1426.923 501.158 1441.242 462.168 1466.991 401.378 L 1444.594 452.378 L 1453.863 491.986 L 1466.991 528.378" fill="none" vector-effect="non-scaling-stroke" stroke-width="15" stroke="rgb(255,255,255)" stroke-linejoin="miter" stroke-linecap="square" stroke-miterlimit="3"/><path d=" M 1310 443.045 Q 1322 517.045 1347 398.045 L 1372 519.045 L 1385.934 392.045 L 1403.666 509.045 L 1425 405.045 L 1452 519.045" fill="none" vector-effect="non-scaling-stroke" stroke-width="10" stroke="rgb(255,255,255)" stroke-linejoin="miter" stroke-linecap="square" stroke-miterlimit="3"/><path d=" M 1308.137 478.095 Q 1318.137 486.925 1332.544 509 L 1342.137 385.378 C 1348.373 440.28 1356.716 471.196 1367.137 478.095 L 1389.137 416.284 L 1398.803 478.095 L 1432.137 422.465 L 1453.863 486.925" fill="none" vector-effect="non-scaling-stroke" stroke-width="5" stroke="rgb(255,255,255)" stroke-linejoin="miter" stroke-linecap="square" stroke-miterlimit="3"/><path d=" M 1768.936 476.59 Q 1775.304 529.59 1745.283 593.59 L 1755.29 460.59 L 1722.539 603.59 L 1722.539 470.59 L 1697.976 603.59 L 1680.691 470.59 Q 1667.045 618.59 1667.045 610.59 Q 1667.045 602.59 1638.843 476.59 Q 1633.943 598.488 1638.843 593.59 C 1656.069 576.369 1656.724 531.379 1631.623 470.59 L 1632.929 502.09 L 1638.843 527.59 L 1608 588.987" fill="none" vector-effect="non-scaling-stroke" stroke-width="15" stroke="rgb(255,255,255)" stroke-linejoin="miter" stroke-linecap="square" stroke-miterlimit="3"/><path d=" M 1770.05 518.25 Q 1758.352 592.25 1733.981 473.25 L 1709.61 594.25 L 1696.026 467.25 L 1678.741 584.25 L 1657.944 480.25 L 1631.623 594.25" fill="none" vector-effect="non-scaling-stroke" stroke-width="10" stroke="rgb(255,255,255)" stroke-linejoin="miter" stroke-linecap="square" stroke-miterlimit="3"/><path d=" M 1770.05 553.987 Q 1760.302 563.987 1746.257 588.987 C 1745.155 591.742 1742.048 566.688 1736.906 470.59 L 1700.837 558.59 L 1691.088 483.987 L 1681.666 553.987 L 1649.17 490.987 L 1608 556" fill="none" vector-effect="non-scaling-stroke" stroke-width="5" stroke="rgb(255,255,255)" stroke-linejoin="miter" stroke-linecap="square" stroke-miterlimit="3"/><path d=" M 1381 375 L 1412.666 509 L 1434 418.59" fill="none" vector-effect="non-scaling-stroke" stroke-width="8" stroke="rgb(255,255,255)" stroke-linejoin="miter" stroke-linecap="square" stroke-miterlimit="3"/><path d=" M 1700.837 475 L 1665.875 609 L 1642.32 518.59" fill="none" vector-effect="non-scaling-stroke" stroke-width="8" stroke="rgb(255,255,255)" stroke-linejoin="miter" stroke-linecap="square" stroke-miterlimit="3"/><path d=" M 1623 588.987 L 1673 482.59 L 1691.088 584.25 L 1736.906 502.09" fill="none" vector-effect="non-scaling-stroke" stroke-width="10" stroke="rgb(255,255,255)" stroke-linejoin="miter" stroke-linecap="square" stroke-miterlimit="3"/></g></svg>