<?xml version="1.0" standalone="no"?><!-- Generator: Gravit.io --><svg xmlns="http://www.w3.org/2000/svg" xmlns:xlink="http://www.w3.org/1999/xlink" style="isolation:isolate" viewBox="0 0 673.333 734.668" width="673.333" height="734.668"><defs><clipPath id="_clipPath_NSBjPLQAgbLXhKRAoGESswhxrPtb97RG"><rect width="673.333" height="734.668"/></clipPath></defs><g clip-path="url(#_clipPath_NSBjPLQAgbLXhKRAoGESswhxrPtb97RG)"><g id="Group"><path d=" M 3.334 367.001 C 3.334 183.029 152.695 33.668 336.667 33.668 C 520.639 33.668 670 183.029 670 367.001 C 670 550.973 520.639 700.334 336.667 700.334 C 152.695 700.334 3.334 550.973 3.334 367.001 Z " fill="rgb(196,153,215)" vector-effect="non-scaling-stroke" stroke-width="4" stroke="rgb(0,0,0)" stroke-opacity="100" stroke-linejoin="miter" stroke-linecap="square" stroke-miterlimit="3"/><path d=" M 335.379 700.749 C 152.036 700.007 3.417 550.931 3.417 367.418 C 11.479 221.759 82.75 109.734 203.679 60.44 L 336.751 367.418 L 335.379 700.749 Z " fill="rgb(234,165,203)" vector-effect="non-scaling-stroke" stroke-width="0.7" stroke="rgb(0,0,0)" stroke-opacity="100" stroke-linejoin="miter" stroke-linecap="square" stroke-miterlimit="3"/><path d=" M 338.039 700.335 C 521.381 699.593 670 550.517 670 367.004 C 670 206.273 542.546 86.826 477.679 67.026 L 336.667 367.004 L 338.039 700.335 Z " fill="rgb(125,186,255)"/><rect x="0" y="-31" width="673.333" height="734.668" transform="matrix(1,0,0,1,0,0)" fill="none"/><path d=" M 3.334 367.001 C 3.334 183.029 152.695 33.668 336.667 33.668 C 520.639 33.668 670 183.029 670 367.001 C 670 550.973 520.639 700.334 336.667 700.334 C 152.695 700.334 3.334 550.973 3.334 367.001 Z " fill="none" vector-effect="non-scaling-stroke" stroke-width="4" stroke="rgb(0,0,0)" stroke-opacity="100" stroke-linejoin="miter" stroke-linecap="square" stroke-miterlimit="3"/><g id="Group"><path d=" M 129.384 470.724 C 129.384 460.581 142.229 452.346 158.051 452.346 C 173.872 452.346 186.717 460.581 186.717 470.724 C 186.717 480.868 173.872 489.103 158.051 489.103 C 142.229 489.103 129.384 480.868 129.384 470.724 Z " fill="rgb(255,255,255)"/><path d=" M 154.084 452.346 C 154.084 442.203 166.929 433.968 182.75 433.968 C 198.572 433.968 211.417 442.203 211.417 452.346 C 211.417 462.489 198.572 470.724 182.75 470.724 C 166.929 470.724 154.084 462.489 154.084 452.346 Z " fill="rgb(255,255,255)"/><path d=" M 186.717 448.58 C 186.717 436.359 199.562 426.436 215.384 426.436 C 231.206 426.436 244.051 436.359 244.051 448.58 C 244.051 460.802 231.206 470.724 215.384 470.724 C 199.562 470.724 186.717 460.802 186.717 448.58 Z " fill="rgb(255,255,255)"/><path d=" M 211.417 473.379 C 211.417 463.236 224.262 455.001 240.084 455.001 C 255.905 455.001 268.75 463.236 268.75 473.379 C 268.75 483.522 255.905 491.757 240.084 491.757 C 224.262 491.757 211.417 483.522 211.417 473.379 Z " fill="rgb(255,255,255)"/><path d=" M 168.051 476.724 C 168.051 463.27 180.896 452.346 196.717 452.346 C 212.539 452.346 225.384 463.27 225.384 476.724 C 225.384 490.179 212.539 501.103 196.717 501.103 C 180.896 501.103 168.051 490.179 168.051 476.724 Z " fill="rgb(255,255,255)"/></g><g id="Group"><path d=" M 118.717 601.505 C 118.717 584.198 140.635 570.146 167.632 570.146 C 194.629 570.146 216.547 584.198 216.547 601.505 C 216.547 618.813 194.629 632.865 167.632 632.865 C 140.635 632.865 118.717 618.813 118.717 601.505 Z " fill="rgb(255,255,255)"/><path d=" M 161.432 573.528 C 161.432 558.676 180.241 546.617 203.408 546.617 C 226.575 546.617 245.384 558.676 245.384 573.528 C 245.384 588.381 226.575 600.439 203.408 600.439 C 180.241 600.439 161.432 588.381 161.432 573.528 Z " fill="rgb(255,255,255)"/><path d=" M 216.547 573.528 C 216.547 555.632 235.356 541.103 258.523 541.103 C 281.691 541.103 300.5 555.632 300.5 573.528 C 300.5 591.424 281.691 605.954 258.523 605.954 C 235.356 605.954 216.547 591.424 216.547 573.528 Z " fill="rgb(255,255,255)"/><path d=" M 252.715 616.683 C 252.715 598.054 271.523 582.93 294.691 582.93 C 317.858 582.93 336.667 598.054 336.667 616.683 C 336.667 635.312 317.858 650.436 294.691 650.436 C 271.523 650.436 252.715 635.312 252.715 616.683 Z " fill="rgb(255,255,255)"/><path d=" M 189.214 614.739 C 189.214 595.038 208.023 579.043 231.19 579.043 C 254.357 579.043 273.166 595.038 273.166 614.739 C 273.166 634.441 254.357 650.436 231.19 650.436 C 208.023 650.436 189.214 634.441 189.214 614.739 Z " fill="rgb(255,255,255)"/></g><line x1="203.679" y1="64.026" x2="336.667" y2="366.436" vector-effect="non-scaling-stroke" stroke-width="3" stroke="rgb(0,0,0)" stroke-opacity="100" stroke-linejoin="miter" stroke-linecap="square" stroke-miterlimit="3"/><line x1="477.679" y1="67.026" x2="336.751" y2="366.436" vector-effect="non-scaling-stroke" stroke-width="3" stroke="rgb(0,0,0)" stroke-opacity="100" stroke-linejoin="miter" stroke-linecap="square" stroke-miterlimit="3"/><line x1="335.379" y1="367.418" x2="336.667" y2="700.335" vector-effect="non-scaling-stroke" stroke-width="3" stroke="rgb(0,0,0)" stroke-opacity="100" stroke-linejoin="miter" stroke-linecap="square" stroke-miterlimit="3"/><g id="Group"><path d=" M 89.22 200.629 C 89.22 183.336 103.26 169.296 120.553 169.296 C 137.847 169.296 151.887 183.336 151.887 200.629 C 151.887 217.922 137.847 231.962 120.553 231.962 C 103.26 231.962 89.22 217.922 89.22 200.629 Z " fill="rgb(255,255,255)"/><path d=" M 120.553 220.731 C 120.553 206.013 134.593 194.064 151.887 194.064 C 169.18 194.064 183.22 206.013 183.22 220.731 C 183.22 235.448 169.18 247.397 151.887 247.397 C 134.593 247.397 120.553 235.448 120.553 220.731 Z " fill="rgb(255,255,255)"/><path d=" M 157.92 220.731 C 157.92 206.013 171.96 194.064 189.253 194.064 C 206.547 194.064 220.587 206.013 220.587 220.731 C 220.587 235.448 206.547 247.397 189.253 247.397 C 171.96 247.397 157.92 235.448 157.92 220.731 Z " fill="rgb(255,255,255)"/><path d=" M 189.253 208.077 C 189.253 192.984 203.293 180.731 220.587 180.731 C 237.88 180.731 251.92 192.984 251.92 208.077 C 251.92 223.17 237.88 235.424 220.587 235.424 C 203.293 235.424 189.253 223.17 189.253 208.077 Z " fill="rgb(255,255,255)"/><path d=" M 120.553 180.731 C 120.553 163.437 146.244 149.397 177.887 149.397 C 209.53 149.397 235.22 163.437 235.22 180.731 C 235.22 198.024 209.53 212.064 177.887 212.064 C 146.244 212.064 120.553 198.024 120.553 180.731 Z " fill="rgb(255,255,255)"/></g><g id="Group"><path d=" M 484.052 279.932 C 486.769 273.207 491.799 268.885 495.276 270.291 C 498.752 271.695 499.369 278.296 496.651 285.023 C 493.933 291.75 488.904 296.069 485.428 294.665 C 481.951 293.26 481.335 286.659 484.052 279.932 Z " fill="rgb(255,255,255)" vector-effect="non-scaling-stroke" stroke-width="1.333" stroke="rgb(74,134,232)" stroke-opacity="100" stroke-linejoin="miter" stroke-linecap="square" stroke-miterlimit="3"/><path d=" M 455.679 308.925 C 455.679 297.519 469.122 288.259 485.679 288.259 C 502.237 288.259 515.679 297.519 515.679 308.925 C 515.679 320.332 502.237 329.592 485.679 329.592 C 469.122 329.592 455.679 320.332 455.679 308.925 Z " fill="rgb(255,255,0)" vector-effect="non-scaling-stroke" stroke-width="2.667" stroke="rgb(0,0,0)" stroke-opacity="100" stroke-linejoin="miter" stroke-linecap="square" stroke-miterlimit="3"/><line x1="506.347" y1="296.259" x2="506.347" y2="321.592" vector-effect="non-scaling-stroke" stroke-width="4" stroke="rgb(0,0,0)" stroke-opacity="100" stroke-linejoin="miter" stroke-linecap="square" stroke-miterlimit="3"/><line x1="476.296" y1="291.592" x2="476.296" y2="326.259" vector-effect="non-scaling-stroke" stroke-width="4" stroke="rgb(0,0,0)" stroke-opacity="100" stroke-linejoin="miter" stroke-linecap="square" stroke-miterlimit="3"/><line x1="487.013" y1="291.592" x2="487.013" y2="328.259" vector-effect="non-scaling-stroke" stroke-width="4" stroke="rgb(0,0,0)" stroke-opacity="100" stroke-linejoin="miter" stroke-linecap="square" stroke-miterlimit="3"/><line x1="497.013" y1="291.592" x2="497.013" y2="326.259" vector-effect="non-scaling-stroke" stroke-width="4" stroke="rgb(0,0,0)" stroke-opacity="100" stroke-linejoin="miter" stroke-linecap="square" stroke-miterlimit="3"/><path d=" M 515.691 306.847 L 526.352 308.517 L 516.407 310.265 L 515.691 306.847 Z " fill="rgb(0,0,0)"/><path d=" M 471.384 285.024 C 468.661 278.3 469.273 271.699 472.749 270.292 C 476.225 268.884 481.257 273.201 483.979 279.927 C 486.701 286.651 486.089 293.252 482.613 294.66 C 479.137 296.067 474.105 291.75 471.384 285.024 Z " fill="rgb(255,255,255)" vector-effect="non-scaling-stroke" stroke-width="1.333" stroke="rgb(74,134,232)" stroke-opacity="100" stroke-linejoin="miter" stroke-linecap="square" stroke-miterlimit="3"/><path d=" M 463.679 304.925 C 463.679 303.822 464.576 302.925 465.679 302.925 C 466.783 302.925 467.679 303.822 467.679 304.925 C 467.679 306.029 466.783 306.925 465.679 306.925 C 464.576 306.925 463.679 306.029 463.679 304.925 Z " fill="rgb(0,0,0)"/></g><g id="Group"><path d=" M 459.33 588.643 C 465.406 584.681 472.003 584.013 474.051 587.153 C 476.101 590.294 472.83 596.062 466.754 600.025 C 460.678 603.989 454.081 604.655 452.033 601.515 C 449.985 598.374 453.254 592.606 459.33 588.643 Z " fill="rgb(255,255,255)" vector-effect="non-scaling-stroke" stroke-width="1.333" stroke="rgb(74,134,232)" stroke-opacity="100" stroke-linejoin="miter" stroke-linecap="square" stroke-miterlimit="3"/><path d=" M 419.474 596.198 C 425.998 586.842 442.321 586.934 455.903 596.403 C 469.485 605.874 475.215 621.158 468.691 630.515 C 462.169 639.871 445.845 639.779 432.263 630.31 C 418.681 620.839 412.95 605.555 419.474 596.198 Z " fill="rgb(255,255,0)" vector-effect="non-scaling-stroke" stroke-width="2.667" stroke="rgb(0,0,0)" stroke-opacity="100" stroke-linejoin="miter" stroke-linecap="square" stroke-miterlimit="3"/><line x1="468.281" y1="614.786" x2="453.791" y2="635.567" vector-effect="non-scaling-stroke" stroke-width="4" stroke="rgb(0,0,0)" stroke-opacity="100" stroke-linejoin="miter" stroke-linecap="square" stroke-miterlimit="3"/><line x1="446.299" y1="593.771" x2="426.471" y2="622.209" vector-effect="non-scaling-stroke" stroke-width="4" stroke="rgb(0,0,0)" stroke-opacity="100" stroke-linejoin="miter" stroke-linecap="square" stroke-miterlimit="3"/><line x1="455.09" y1="599.901" x2="434.119" y2="629.978" vector-effect="non-scaling-stroke" stroke-width="4" stroke="rgb(0,0,0)" stroke-opacity="100" stroke-linejoin="miter" stroke-linecap="square" stroke-miterlimit="3"/><line x1="463.293" y1="605.621" x2="443.466" y2="634.057" vector-effect="non-scaling-stroke" stroke-width="4" stroke="rgb(0,0,0)" stroke-opacity="100" stroke-linejoin="miter" stroke-linecap="square" stroke-miterlimit="3"/><path d=" M 469.889 628.817 L 477.679 636.285 L 468.522 632.031 L 469.889 628.817 Z " fill="rgb(0,0,0)"/><path d=" M 446.026 585.575 C 447.639 578.502 451.917 573.437 455.573 574.27 C 459.229 575.105 460.887 581.523 459.274 588.597 C 457.661 595.67 453.383 600.735 449.727 599.901 C 446.071 599.067 444.413 592.647 446.026 585.575 Z " fill="rgb(255,255,255)" vector-effect="non-scaling-stroke" stroke-width="1.333" stroke="rgb(74,134,232)" stroke-opacity="100" stroke-linejoin="miter" stroke-linecap="square" stroke-miterlimit="3"/><path d=" M 428.325 597.493 C 428.955 596.587 430.203 596.365 431.109 596.997 C 432.014 597.627 432.237 598.875 431.606 599.781 C 430.974 600.686 429.726 600.909 428.821 600.277 C 427.915 599.646 427.693 598.398 428.325 597.493 Z " fill="rgb(0,0,0)"/></g><g id="Group"><path d=" M 497.375 476.68 C 492.463 471.454 486.538 469.267 484.151 471.8 C 481.766 474.335 483.815 480.635 488.726 485.862 C 493.638 491.088 499.563 493.274 501.95 490.74 C 504.337 488.207 502.286 481.907 497.375 476.68 Z " fill="rgb(255,255,255)" vector-effect="non-scaling-stroke" stroke-width="1.333" stroke="rgb(74,134,232)" stroke-opacity="100" stroke-linejoin="miter" stroke-linecap="square" stroke-miterlimit="3"/><path d=" M 532.599 493.268 C 528.159 482.762 513.213 479.026 499.243 484.93 C 485.274 490.834 477.537 504.156 481.978 514.663 C 486.418 525.17 501.365 528.906 515.334 523.002 C 529.303 517.098 537.041 503.775 532.599 493.268 Z " fill="rgb(255,255,0)" vector-effect="non-scaling-stroke" stroke-width="2.667" stroke="rgb(0,0,0)" stroke-opacity="100" stroke-linejoin="miter" stroke-linecap="square" stroke-miterlimit="3"/><line x1="484.921" y1="499.668" x2="494.783" y2="523.003" vector-effect="non-scaling-stroke" stroke-width="4" stroke="rgb(0,0,0)" stroke-opacity="100" stroke-linejoin="miter" stroke-linecap="square" stroke-miterlimit="3"/><line x1="508.458" y1="484.654" x2="521.954" y2="516.586" vector-effect="non-scaling-stroke" stroke-width="4" stroke="rgb(0,0,0)" stroke-opacity="100" stroke-linejoin="miter" stroke-linecap="square" stroke-miterlimit="3"/><line x1="499.415" y1="488.475" x2="513.69" y2="522.25" vector-effect="non-scaling-stroke" stroke-width="4" stroke="rgb(0,0,0)" stroke-opacity="100" stroke-linejoin="miter" stroke-linecap="square" stroke-miterlimit="3"/><line x1="490.979" y1="492.042" x2="504.475" y2="523.972" vector-effect="non-scaling-stroke" stroke-width="4" stroke="rgb(0,0,0)" stroke-opacity="100" stroke-linejoin="miter" stroke-linecap="square" stroke-miterlimit="3"/><path d=" M 481.159 512.754 L 472.814 518.094 L 481.885 516.158 L 481.159 512.754 Z " fill="rgb(0,0,0)"/><path d=" M 510.046 476.852 C 509.725 469.688 506.638 463.826 503.158 463.77 C 499.677 463.712 497.113 469.483 497.434 476.648 C 497.755 483.812 500.842 489.675 504.322 489.732 C 507.802 489.788 510.367 484.018 510.046 476.852 Z " fill="rgb(255,255,255)" vector-effect="non-scaling-stroke" stroke-width="1.333" stroke="rgb(74,134,232)" stroke-opacity="100" stroke-linejoin="miter" stroke-linecap="square" stroke-miterlimit="3"/><path d=" M 524.293 492.436 C 523.863 491.42 522.758 490.914 521.827 491.307 C 520.895 491.7 520.489 492.846 520.918 493.863 C 521.349 494.879 522.453 495.386 523.385 494.992 C 524.315 494.598 524.723 493.454 524.293 492.436 Z " fill="rgb(0,0,0)"/></g><g id="Group"><path d=" M 562.959 181.157 C 563.61 174.015 561.314 168.131 557.834 168.027 C 554.355 167.923 551.002 173.637 550.351 180.78 C 549.701 187.923 551.997 193.805 555.477 193.909 C 558.955 194.013 562.309 188.3 562.959 181.157 Z " fill="rgb(255,255,255)" vector-effect="non-scaling-stroke" stroke-width="1.333" stroke="rgb(74,134,232)" stroke-opacity="100" stroke-linejoin="miter" stroke-linecap="square" stroke-miterlimit="3"/><path d=" M 573.925 218.516 C 578.838 208.223 571.714 194.561 558.027 188.029 C 544.341 181.496 529.239 184.551 524.326 194.844 C 519.414 205.139 526.537 218.799 540.223 225.332 C 553.911 231.864 569.011 228.811 573.925 218.516 Z " fill="rgb(255,255,0)" vector-effect="non-scaling-stroke" stroke-width="2.667" stroke="rgb(0,0,0)" stroke-opacity="100" stroke-linejoin="miter" stroke-linecap="square" stroke-miterlimit="3"/><line x1="537.498" y1="187.095" x2="526.586" y2="209.957" vector-effect="non-scaling-stroke" stroke-width="4" stroke="rgb(0,0,0)" stroke-opacity="100" stroke-linejoin="miter" stroke-linecap="square" stroke-miterlimit="3"/><line x1="564.349" y1="194.74" x2="549.417" y2="226.025" vector-effect="non-scaling-stroke" stroke-width="4" stroke="rgb(0,0,0)" stroke-opacity="100" stroke-linejoin="miter" stroke-linecap="square" stroke-miterlimit="3"/><line x1="555.49" y1="190.511" x2="539.697" y2="223.603" vector-effect="non-scaling-stroke" stroke-width="4" stroke="rgb(0,0,0)" stroke-opacity="100" stroke-linejoin="miter" stroke-linecap="square" stroke-miterlimit="3"/><line x1="547.223" y1="186.565" x2="532.291" y2="217.852" vector-effect="non-scaling-stroke" stroke-width="4" stroke="rgb(0,0,0)" stroke-opacity="100" stroke-linejoin="miter" stroke-linecap="square" stroke-miterlimit="3"/><path d=" M 525.213 192.964 L 515.679 190.265 L 523.147 195.767 L 525.213 192.964 Z " fill="rgb(0,0,0)"/><path d=" M 571.238 190.751 C 576.385 185.756 578.722 179.556 576.455 176.915 C 574.187 174.275 568.169 176.185 563.022 181.18 C 557.875 186.175 555.538 192.375 557.805 195.016 C 560.073 197.656 566.091 195.745 571.238 190.751 Z " fill="rgb(255,255,255)" vector-effect="non-scaling-stroke" stroke-width="1.333" stroke="rgb(74,134,232)" stroke-opacity="100" stroke-linejoin="miter" stroke-linecap="square" stroke-miterlimit="3"/><path d=" M 569.035 211.751 C 569.51 210.755 569.155 209.592 568.243 209.156 C 567.33 208.72 566.203 209.176 565.729 210.172 C 565.253 211.168 565.607 212.331 566.519 212.767 C 567.433 213.201 568.559 212.747 569.035 211.751 Z " fill="rgb(0,0,0)"/></g><g id="Group"><path d=" M 612.163 370.855 C 615.266 364.39 615.169 358.075 611.945 356.763 C 608.721 355.451 603.585 359.635 600.481 366.101 C 597.377 372.567 597.475 378.882 600.698 380.194 C 603.922 381.506 609.059 377.322 612.163 370.855 Z " fill="rgb(255,255,255)" vector-effect="non-scaling-stroke" stroke-width="1.333" stroke="rgb(74,134,232)" stroke-opacity="100" stroke-linejoin="miter" stroke-linecap="square" stroke-miterlimit="3"/><path d=" M 609.395 409.693 C 617.593 401.762 615.687 386.474 605.142 375.574 C 594.598 364.674 579.381 362.263 571.183 370.194 C 562.985 378.125 564.89 393.413 575.435 404.313 C 585.981 415.213 601.197 417.623 609.395 409.693 Z " fill="rgb(255,255,0)" vector-effect="non-scaling-stroke" stroke-width="2.667" stroke="rgb(0,0,0)" stroke-opacity="100" stroke-linejoin="miter" stroke-linecap="square" stroke-miterlimit="3"/><line x1="586.231" y1="367.531" x2="568.023" y2="385.145" vector-effect="non-scaling-stroke" stroke-width="4" stroke="rgb(0,0,0)" stroke-opacity="100" stroke-linejoin="miter" stroke-linecap="square" stroke-miterlimit="3"/><line x1="608.723" y1="384.069" x2="583.807" y2="408.173" vector-effect="non-scaling-stroke" stroke-width="4" stroke="rgb(0,0,0)" stroke-opacity="100" stroke-linejoin="miter" stroke-linecap="square" stroke-miterlimit="3"/><line x1="601.898" y1="377.014" x2="575.545" y2="402.507" vector-effect="non-scaling-stroke" stroke-width="4" stroke="rgb(0,0,0)" stroke-opacity="100" stroke-linejoin="miter" stroke-linecap="square" stroke-miterlimit="3"/><line x1="595.529" y1="370.43" x2="570.613" y2="394.534" vector-effect="non-scaling-stroke" stroke-width="4" stroke="rgb(0,0,0)" stroke-opacity="100" stroke-linejoin="miter" stroke-linecap="square" stroke-miterlimit="3"/><path d=" M 572.67 368.742 L 564.679 362.883 L 569.755 370.646 L 572.67 368.742 Z " fill="rgb(0,0,0)"/><path d=" M 616.571 382.737 C 623.138 379.853 627.493 374.859 626.29 371.593 C 625.087 368.327 618.781 368.015 612.214 370.899 C 605.647 373.783 601.293 378.777 602.495 382.043 C 603.698 385.309 610.005 385.621 616.571 382.737 Z " fill="rgb(255,255,255)" vector-effect="non-scaling-stroke" stroke-width="1.333" stroke="rgb(74,134,232)" stroke-opacity="100" stroke-linejoin="miter" stroke-linecap="square" stroke-miterlimit="3"/><path d=" M 607.175 401.645 C 607.969 400.878 608.042 399.665 607.338 398.938 C 606.635 398.211 605.421 398.245 604.627 399.011 C 603.834 399.779 603.761 400.993 604.463 401.719 C 605.167 402.446 606.382 402.413 607.175 401.645 Z " fill="rgb(0,0,0)"/></g><g id="Group"><path d=" M 324.366 162.495 C 324.366 133.389 329.301 109.759 335.379 109.759 C 341.457 109.759 346.391 133.389 346.391 162.495 C 346.391 191.601 341.457 215.231 335.379 215.231 C 329.301 215.231 324.366 191.601 324.366 162.495 Z " fill="none" vector-effect="non-scaling-stroke" stroke-width="5" stroke="rgb(255,255,255)" stroke-linejoin="miter" stroke-linecap="square" stroke-miterlimit="3"/><path d=" M 328.141 154.195 C 350.077 135.065 371.13 123.254 375.125 127.835 C 379.12 132.415 364.553 151.665 342.617 170.795 C 320.68 189.924 299.627 201.736 295.632 197.155 C 291.638 192.574 306.204 173.324 328.141 154.195 Z " fill="none" vector-effect="non-scaling-stroke" stroke-width="5" stroke="rgb(255,255,255)" stroke-linejoin="miter" stroke-linecap="square" stroke-miterlimit="3"/><path d=" M 339.626 152.334 C 366.48 163.56 386.379 177.227 384.034 182.834 C 381.69 188.442 357.985 183.881 331.131 172.655 C 304.277 161.43 284.379 147.763 286.723 142.155 C 289.067 136.547 312.772 141.108 339.626 152.334 Z " fill="none" vector-effect="non-scaling-stroke" stroke-width="5" stroke="rgb(255,255,255)" stroke-linejoin="miter" stroke-linecap="square" stroke-miterlimit="3"/></g><g id="Group"><path d=" M 84.842 367.619 C 84.842 341.819 109.473 320.873 139.811 320.873 C 170.149 320.873 194.779 341.819 194.779 367.619 C 194.779 393.418 170.149 414.364 139.811 414.364 C 109.473 414.364 84.842 393.418 84.842 367.619 Z " fill="rgb(255,255,255)"/><path d=" M 18.27 359.986 C 18.27 343.429 42.901 329.986 73.239 329.986 C 103.577 329.986 128.208 343.429 128.208 359.986 C 128.208 376.544 103.577 389.986 73.239 389.986 C 42.901 389.986 18.27 376.544 18.27 359.986 Z " fill="rgb(255,255,255)"/><path d=" M 48.54 320.873 C 48.54 304.316 73.17 290.873 103.508 290.873 C 133.847 290.873 158.477 304.316 158.477 320.873 C 158.477 337.431 133.847 350.873 103.508 350.873 C 73.17 350.873 48.54 337.431 48.54 320.873 Z " fill="rgb(255,255,255)"/><path d=" M 113.508 314.653 C 113.508 298.095 138.139 284.653 168.477 284.653 C 198.815 284.653 223.446 298.095 223.446 314.653 C 223.446 331.21 198.815 344.653 168.477 344.653 C 138.139 344.653 113.508 331.21 113.508 314.653 Z " fill="rgb(255,255,255)"/><path d=" M 144.489 367.619 C 144.489 351.061 165.999 337.619 192.493 337.619 C 218.988 337.619 240.498 351.061 240.498 367.619 C 240.498 384.176 218.988 397.619 192.493 397.619 C 165.999 397.619 144.489 384.176 144.489 367.619 Z " fill="rgb(255,255,255)"/><path d=" M 203.389 329.986 C 203.389 313.429 209.976 299.986 218.09 299.986 C 226.204 299.986 232.791 313.429 232.791 329.986 C 232.791 346.544 226.204 359.986 218.09 359.986 C 209.976 359.986 203.389 346.544 203.389 329.986 Z " fill="rgb(255,255,255)"/></g></g><path d=" M 355.123 20.026 L 336.821 87.022 L 318.378 20.222 L 355.123 20.026 Z " fill="rgb(255,176,112)" vector-effect="non-scaling-stroke" stroke-width="2" stroke="rgb(0,0,0)" stroke-linejoin="miter" stroke-linecap="butt" stroke-miterlimit="4"/></g></svg>